<svg height="1024" width="1024" xmlns="http://www.w3.org/2000/svg">
<g fill="black" fill-rule="evenodd">
<path d="M 338 569 Z" />
<path d="M 651 545 650 546 645 546 644 547 642 547 641 548 640 548 639 549 637 549 635 551 634 551 632 553 631 553 630 554 629 554 628 555 627 555 626 556 624 556 623 557 619 557 618 558 612 558 611 559 607 559 606 560 604 560 603 561 602 561 601 562 599 562 597 564 596 564 595 565 594 565 591 568 582 568 581 569 575 569 574 570 571 570 570 571 569 571 568 572 566 572 564 574 563 574 557 580 557 581 556 582 556 583 555 584 555 585 554 586 554 590 553 591 553 601 554 602 554 611 555 612 555 614 556 615 556 616 557 617 557 618 563 624 564 624 565 625 566 625 567 626 568 626 569 627 570 627 571 628 572 628 573 629 575 629 576 630 578 630 579 631 582 631 591 640 592 640 594 642 595 642 596 643 597 643 598 644 599 644 600 645 601 645 602 646 603 646 604 647 605 647 606 648 607 648 608 649 609 649 610 650 612 650 613 651 614 651 615 652 616 652 617 653 618 653 619 654 619 658 618 659 618 666 617 667 617 675 616 676 616 683 615 684 615 691 614 692 614 699 613 700 613 708 612 709 612 716 611 717 611 724 610 725 610 733 609 734 609 740 608 741 608 749 607 750 607 757 606 758 606 765 605 766 605 774 604 775 604 782 603 783 603 804 604 805 604 809 605 810 605 812 606 813 606 815 607 816 607 817 608 818 608 819 609 820 609 821 610 822 610 823 612 825 612 826 614 828 614 829 625 840 626 840 628 842 629 842 631 844 632 844 633 845 634 845 635 846 637 846 638 847 639 847 640 848 642 848 643 849 646 849 647 850 652 850 653 851 664 851 665 850 670 850 671 849 674 849 675 848 677 848 678 847 679 847 680 846 682 846 683 845 684 845 685 844 686 844 688 842 689 842 691 840 692 840 696 836 697 836 700 833 700 832 704 828 704 827 706 825 706 824 708 822 708 821 709 820 709 819 710 818 710 817 711 816 711 814 712 813 712 811 713 810 713 807 714 806 714 801 715 800 715 789 714 788 714 783 713 782 713 779 712 778 712 776 711 775 711 773 710 772 710 771 709 770 709 769 708 768 708 766 707 765 707 764 706 763 706 761 705 760 705 758 704 757 704 756 703 755 703 753 702 752 702 751 701 750 701 748 700 747 700 746 699 745 699 743 698 742 698 740 697 739 697 737 696 736 696 734 695 733 695 731 694 730 694 728 693 727 693 724 692 723 692 721 691 720 691 717 690 716 690 712 689 711 689 707 688 706 688 701 687 700 687 692 686 691 686 677 685 676 685 646 684 645 684 619 683 618 683 590 682 589 682 569 681 568 681 564 680 563 680 561 679 560 679 559 678 558 678 557 672 551 671 551 670 550 669 550 668 549 667 549 666 548 664 548 663 547 661 547 660 546 655 546 654 545 Z M 656 769 657 768 659 768 660 769 665 769 666 770 668 770 669 771 670 771 672 773 673 773 680 780 680 781 681 782 681 783 682 784 682 785 683 786 683 788 684 789 684 800 683 801 683 803 682 804 682 806 680 808 680 809 672 817 671 817 670 818 669 818 668 819 667 819 666 820 663 820 662 821 654 821 653 820 650 820 649 819 648 819 647 818 646 818 645 817 644 817 636 809 636 808 635 807 635 806 634 805 634 804 633 803 633 800 632 799 632 791 633 790 633 787 634 786 634 784 635 783 635 782 637 780 637 779 643 773 644 773 646 771 648 771 649 770 650 770 651 769 Z M 619 586 620 585 622 585 625 588 626 588 627 589 627 592 626 593 626 600 625 601 625 608 624 609 624 617 623 618 623 625 622 626 622 631 621 632 619 630 618 630 616 628 615 628 612 625 612 624 611 623 611 619 610 618 610 602 611 601 611 595 612 594 612 592 613 591 613 589 615 587 616 587 617 586 Z" />
<path d="M 191 492 Z" />
<path d="M 734 445 733 446 732 446 731 447 730 447 729 448 728 448 724 452 724 453 723 454 723 455 722 456 722 458 721 459 721 467 722 468 722 469 723 470 723 471 724 472 724 473 729 478 730 478 731 479 732 479 733 480 735 480 736 481 742 481 743 480 746 480 747 479 748 479 750 477 751 477 754 474 754 473 755 472 755 471 756 470 756 469 757 468 757 464 758 463 757 462 757 457 756 456 756 455 755 454 755 453 749 447 748 447 747 446 746 446 745 445 Z" />
<path d="M 729 323 728 324 726 324 722 328 722 329 721 330 721 357 722 358 722 374 723 375 723 389 724 390 724 401 725 402 725 413 726 414 726 422 727 423 727 425 731 429 732 429 733 430 746 430 747 429 748 429 752 425 752 424 753 423 753 416 754 415 754 403 755 402 755 392 756 391 756 378 757 377 757 363 758 362 758 344 759 343 759 331 758 330 758 329 757 328 757 327 755 325 754 325 753 324 752 324 751 323 Z" />
<path d="M 736 267 735 268 722 268 721 269 716 269 715 270 711 270 710 271 707 271 706 272 703 272 702 273 700 273 699 274 697 274 696 275 694 275 693 276 691 276 690 277 689 277 688 278 686 278 685 279 684 279 683 280 682 280 681 281 680 281 679 282 678 282 677 283 676 283 675 284 674 284 672 286 671 286 670 287 669 287 667 289 666 289 664 291 663 291 660 294 659 294 656 297 655 297 647 305 646 305 645 306 645 307 637 315 637 316 633 320 633 321 630 324 630 325 628 327 628 328 626 330 626 331 625 332 625 333 623 335 623 336 622 337 622 338 621 339 621 340 620 341 620 342 619 343 619 344 618 345 618 347 617 348 617 349 616 350 616 351 615 352 615 354 614 355 614 357 613 358 613 360 612 361 612 363 611 364 611 367 610 368 610 371 609 372 609 377 608 378 608 383 607 384 607 396 606 397 606 404 607 405 607 417 608 418 608 424 609 425 609 429 610 430 610 433 611 434 611 437 612 438 612 440 613 441 613 443 614 444 614 446 615 447 615 449 616 450 616 451 617 452 617 454 618 455 618 456 619 457 619 458 620 459 620 460 621 461 621 462 622 463 622 464 623 465 623 466 624 467 624 468 626 470 626 471 627 472 627 473 629 475 629 476 631 478 631 479 634 482 634 483 637 486 637 487 645 495 645 496 646 496 647 497 647 498 648 498 655 505 656 505 660 509 661 509 663 511 664 511 666 513 667 513 669 515 670 515 672 517 673 517 674 518 675 518 676 519 677 519 678 520 679 520 680 521 681 521 682 522 683 522 684 523 685 523 686 524 687 524 688 525 690 525 691 526 692 526 693 527 695 527 696 528 698 528 699 529 701 529 702 530 704 530 705 531 708 531 709 532 712 532 713 533 718 533 719 534 725 534 726 535 753 535 754 534 760 534 761 533 766 533 767 532 770 532 771 531 774 531 775 530 778 530 779 529 781 529 782 528 784 528 785 527 786 527 787 526 789 526 790 525 791 525 792 524 794 524 795 523 796 523 797 522 798 522 799 521 800 521 801 520 802 520 803 519 804 519 806 517 807 517 808 516 809 516 811 514 812 514 813 513 814 513 817 510 818 510 821 507 822 507 826 503 827 503 841 489 841 488 845 484 845 483 848 480 848 479 850 477 850 476 852 474 852 473 853 472 853 471 855 469 855 468 856 467 856 466 857 465 857 464 858 463 858 462 859 461 859 460 860 459 860 458 861 457 861 456 862 455 862 453 863 452 863 451 864 450 864 448 865 447 865 446 866 445 866 443 867 442 867 439 868 438 868 436 869 435 869 432 870 431 870 427 871 426 871 422 872 421 872 415 873 414 873 387 872 386 872 379 871 378 871 374 870 373 870 369 869 368 869 366 868 365 868 362 867 361 867 359 866 358 866 356 865 355 865 354 864 353 864 351 863 350 863 349 862 348 862 346 861 345 861 344 860 343 860 342 859 341 859 340 858 339 858 338 856 336 856 335 855 334 855 333 854 332 854 331 852 329 852 328 850 326 850 325 848 323 848 322 845 319 845 318 839 312 839 311 830 302 829 302 824 297 823 297 819 293 818 293 816 291 815 291 813 289 812 289 810 287 809 287 808 286 807 286 805 284 804 284 803 283 802 283 801 282 800 282 799 281 798 281 797 280 796 280 795 279 794 279 793 278 791 278 790 277 789 277 788 276 786 276 785 275 783 275 782 274 780 274 779 273 777 273 776 272 774 272 773 271 769 271 768 270 764 270 763 269 758 269 757 268 746 268 745 267 Z M 730 292 731 291 749 291 750 292 757 292 758 293 763 293 764 294 767 294 768 295 770 295 771 296 774 296 775 297 777 297 778 298 779 298 780 299 782 299 783 300 784 300 785 301 786 301 787 302 788 302 789 303 790 303 791 304 792 304 793 305 794 305 795 306 796 306 798 308 799 308 801 310 802 310 804 312 805 312 809 316 810 316 825 331 825 332 829 336 829 337 831 339 831 340 833 342 833 343 834 344 834 345 836 347 836 348 837 349 837 350 838 351 838 352 839 353 839 354 840 355 840 356 841 357 841 359 842 360 842 361 843 362 843 364 844 365 844 367 845 368 845 370 846 371 846 374 847 375 847 378 848 379 848 384 849 385 849 392 850 393 850 406 849 407 849 416 848 417 848 422 847 423 847 427 846 428 846 430 845 431 845 434 844 435 844 437 843 438 843 439 842 440 842 442 841 443 841 444 840 445 840 447 839 448 839 449 838 450 838 451 837 452 837 453 836 454 836 455 834 457 834 458 833 459 833 460 831 462 831 463 828 466 828 467 825 470 825 471 809 487 808 487 805 490 804 490 801 493 800 493 798 495 797 495 796 496 795 496 793 498 792 498 791 499 790 499 789 500 788 500 787 501 786 501 785 502 783 502 782 503 781 503 780 504 779 504 778 505 775 505 774 506 772 506 771 507 769 507 768 508 765 508 764 509 760 509 759 510 754 510 753 511 726 511 725 510 720 510 719 509 715 509 714 508 712 508 711 507 708 507 707 506 705 506 704 505 702 505 701 504 699 504 698 503 697 503 696 502 695 502 694 501 693 501 692 500 691 500 690 499 689 499 688 498 687 498 686 497 685 497 683 495 682 495 681 494 680 494 678 492 677 492 673 488 672 488 668 484 667 484 657 474 657 473 653 469 653 468 650 465 650 464 648 462 648 461 646 459 646 458 645 457 645 456 644 455 644 454 642 452 642 451 641 450 641 449 640 448 640 446 639 445 639 444 638 443 638 441 637 440 637 439 636 438 636 436 635 435 635 432 634 431 634 429 633 428 633 424 632 423 632 418 631 417 631 410 630 409 630 392 631 391 631 383 632 382 632 378 633 377 633 374 634 373 634 370 635 369 635 367 636 366 636 364 637 363 637 361 638 360 638 359 639 358 639 356 640 355 640 354 641 353 641 352 642 351 642 350 644 348 644 347 645 346 645 345 646 344 646 343 648 341 648 340 650 338 650 337 653 334 653 333 658 328 658 327 667 318 668 318 672 314 673 314 676 311 677 311 679 309 680 309 682 307 683 307 684 306 685 306 687 304 688 304 689 303 690 303 691 302 692 302 693 301 694 301 695 300 697 300 698 299 699 299 700 298 702 298 703 297 705 297 706 296 708 296 709 295 712 295 713 294 716 294 717 293 722 293 723 292 Z" />
<path d="M 271 94 270 95 269 95 268 96 267 96 266 97 266 98 264 100 264 102 263 103 263 104 262 105 262 107 261 108 261 110 260 111 260 113 259 114 259 116 258 117 258 119 257 120 257 122 256 123 256 124 255 125 255 127 254 128 254 130 253 131 253 133 252 134 252 136 251 137 251 139 250 140 250 142 249 143 249 145 248 146 248 148 247 149 247 151 246 152 246 153 245 154 245 156 244 157 244 159 243 160 243 162 242 163 242 165 241 166 241 168 240 169 240 171 239 172 239 174 238 175 238 177 237 178 237 180 236 181 236 183 235 184 235 189 236 190 236 192 239 195 239 198 238 199 238 203 237 204 237 208 236 209 236 213 235 214 235 219 234 220 234 227 233 228 233 238 232 239 232 259 233 260 233 270 234 271 234 275 235 276 235 280 236 281 236 284 237 285 237 287 238 288 238 290 239 291 239 292 240 293 240 295 241 296 241 297 242 298 242 299 243 300 243 301 244 302 244 303 246 305 246 306 248 308 248 309 252 313 252 314 257 319 258 319 259 320 258 321 238 321 237 322 235 322 234 323 233 323 232 324 231 324 230 325 229 325 227 327 226 327 220 333 220 334 218 336 218 337 217 338 217 340 216 341 216 342 215 343 215 346 214 347 214 348 213 349 213 351 212 352 212 354 211 355 211 358 210 359 210 360 209 361 209 364 208 365 208 367 207 368 207 370 206 371 206 373 205 374 205 376 204 377 204 380 203 381 203 383 202 384 202 387 201 388 201 390 200 391 200 394 199 395 199 397 198 398 198 401 197 402 197 405 196 406 196 410 195 411 195 414 194 415 194 419 193 420 193 425 192 426 192 431 191 432 191 440 190 441 190 472 191 473 191 481 192 482 192 488 193 489 193 493 194 494 194 498 195 499 195 503 196 504 196 507 197 508 197 511 198 512 198 514 199 515 199 517 200 518 200 520 201 521 201 523 202 524 202 527 203 528 203 529 204 530 204 532 205 533 205 535 206 536 206 538 207 539 207 540 208 541 208 543 209 544 209 545 210 546 210 547 211 548 211 550 212 551 212 552 213 553 213 554 214 555 214 557 215 558 215 559 216 560 216 561 217 562 217 564 218 565 218 566 219 567 219 568 220 569 220 570 221 571 221 572 222 573 222 575 223 576 223 577 224 578 224 579 225 580 225 582 226 583 226 584 227 585 227 586 228 587 227 588 223 588 222 589 221 589 220 590 219 590 218 591 217 591 212 596 212 597 211 598 211 600 210 601 210 612 211 613 211 614 212 615 212 616 218 622 219 622 220 623 221 623 222 624 225 624 226 625 239 625 240 626 240 629 241 630 241 636 242 637 242 644 243 645 243 654 244 655 244 692 243 693 243 704 242 705 242 711 241 712 241 717 240 718 240 722 239 723 239 727 238 728 238 731 237 732 237 735 236 736 236 738 235 739 235 742 234 743 234 745 233 746 233 748 232 749 232 751 231 752 231 754 230 755 230 756 229 757 229 759 228 760 228 761 227 762 227 763 226 764 226 765 225 766 225 767 224 768 224 769 223 770 223 771 222 772 222 774 221 775 221 777 220 778 220 780 219 781 219 787 218 788 218 801 219 802 219 807 220 808 220 810 221 811 221 813 222 814 222 816 223 817 223 818 224 819 224 820 225 821 225 822 227 824 227 825 229 827 229 828 233 832 233 833 237 837 238 837 241 840 242 840 244 842 245 842 247 844 248 844 249 845 250 845 251 846 252 846 253 847 255 847 256 848 258 848 259 849 262 849 263 850 267 850 268 851 280 851 281 850 286 850 287 849 290 849 291 848 293 848 294 847 295 847 296 846 298 846 299 845 300 845 302 843 303 843 304 842 305 842 307 840 308 840 313 835 314 835 315 834 315 833 320 828 320 827 322 825 322 824 323 823 323 822 325 820 325 819 326 818 326 816 327 815 327 814 328 813 328 811 329 810 329 807 330 806 330 802 331 801 331 761 332 760 332 707 333 706 333 659 334 658 334 629 335 628 351 628 353 630 353 631 356 634 357 634 358 635 359 635 360 636 362 636 363 637 373 637 374 636 376 636 377 635 379 635 380 634 381 634 382 633 383 633 384 632 385 632 386 631 388 631 389 630 391 630 392 629 394 629 395 628 396 628 397 627 399 627 400 626 401 626 402 625 403 625 404 624 405 624 406 623 407 623 409 621 410 621 418 613 418 612 419 611 419 610 420 609 420 608 421 607 421 605 422 604 422 601 423 600 423 593 424 592 424 580 423 579 423 576 422 575 422 573 421 572 421 571 420 570 420 569 418 567 418 566 416 564 415 564 413 562 412 562 411 561 410 561 409 560 408 560 407 559 401 559 400 558 398 558 397 559 396 558 394 558 393 557 392 557 391 556 389 556 388 555 387 555 386 554 384 554 383 553 377 553 376 552 375 552 374 553 369 553 368 554 366 554 365 555 364 555 363 556 362 556 359 559 358 559 356 561 356 562 354 564 354 566 353 567 353 569 352 570 352 571 351 572 344 572 343 571 331 571 330 570 330 568 329 567 329 565 328 564 328 562 327 561 327 560 326 559 326 558 325 557 325 556 324 555 324 554 315 545 314 545 312 543 311 543 309 541 308 541 306 539 305 539 303 537 302 537 299 534 298 534 291 527 290 527 286 523 286 522 280 516 280 515 277 512 277 511 274 508 274 507 272 505 272 504 271 503 271 502 269 500 269 499 268 498 268 497 267 496 267 495 265 493 265 492 264 491 264 490 263 489 263 487 262 486 262 485 261 484 261 483 260 482 260 480 259 479 259 478 258 477 258 475 257 474 257 472 256 471 256 468 255 467 255 465 254 464 254 461 253 460 253 456 252 455 252 450 251 449 251 443 250 442 250 418 251 417 251 409 252 408 252 403 253 402 253 399 254 398 254 395 255 394 255 392 256 391 256 390 257 389 257 388 258 387 258 386 259 385 259 384 261 382 261 381 265 377 266 377 267 376 371 376 373 378 374 378 377 381 378 381 379 382 381 382 382 383 389 383 390 382 391 382 392 381 393 381 394 380 395 380 397 378 397 377 399 375 399 372 400 371 400 362 401 361 403 361 404 362 410 362 411 363 417 363 418 364 424 364 425 365 431 365 432 366 438 366 439 367 444 367 445 368 451 368 452 369 457 369 458 370 464 370 465 371 470 371 471 372 477 372 478 373 484 373 485 374 490 374 491 375 497 375 498 376 502 376 503 377 503 378 504 379 504 380 505 381 505 382 509 386 510 386 511 387 513 387 514 388 521 388 522 387 526 387 527 386 531 386 532 385 536 385 537 384 541 384 542 383 545 383 546 382 547 382 548 381 549 381 554 376 554 375 555 374 555 373 556 372 556 362 555 361 555 360 554 359 554 358 552 356 551 356 549 354 548 354 547 353 545 353 544 352 542 352 541 351 540 351 539 350 537 350 536 349 535 349 534 348 532 348 531 347 530 347 529 346 527 346 526 345 524 345 523 344 519 344 518 345 515 345 514 346 513 346 508 351 508 352 507 353 501 353 500 352 495 352 494 351 488 351 487 350 482 350 481 349 475 349 474 348 469 348 468 347 462 347 461 346 456 346 455 345 449 345 448 344 442 344 441 343 436 343 435 342 429 342 428 341 423 341 422 340 416 340 415 339 409 339 408 338 402 338 400 336 400 330 399 329 399 328 397 326 397 325 396 325 393 322 391 322 390 321 309 321 308 320 304 320 303 319 300 319 299 318 297 318 296 317 295 317 294 316 293 316 292 315 290 315 288 313 287 313 286 312 285 312 283 310 282 310 279 307 278 307 270 299 270 298 267 295 267 294 265 292 265 291 264 290 264 289 263 288 263 287 262 286 262 285 261 284 261 283 260 282 260 280 259 279 259 277 258 276 258 273 257 272 257 268 256 267 256 261 255 260 255 238 256 237 256 229 257 228 257 222 258 221 258 216 259 215 259 211 260 210 260 207 261 206 261 202 262 201 266 201 268 199 269 199 269 198 271 196 271 195 272 194 272 193 273 192 273 190 274 189 274 187 275 186 275 184 276 183 276 182 277 181 277 179 278 178 278 176 279 175 279 173 280 172 280 170 281 169 281 167 282 166 282 164 283 163 283 161 284 160 284 159 285 158 285 156 286 155 286 153 287 152 287 150 288 149 288 147 289 146 289 144 290 143 290 141 291 140 291 138 292 137 292 135 293 134 293 132 294 131 294 130 295 129 295 127 296 126 296 124 297 123 297 121 298 120 298 118 299 117 299 115 300 114 300 112 301 111 301 107 300 106 300 104 296 100 295 100 294 99 292 99 291 98 288 98 287 97 285 97 284 96 281 96 280 95 277 95 276 94 Z M 272 769 273 768 276 768 277 769 281 769 282 770 284 770 285 771 286 771 287 772 288 772 296 780 296 781 298 783 298 785 299 786 299 788 300 789 300 801 299 802 299 804 298 805 298 806 297 807 297 808 294 811 294 812 291 815 290 815 288 817 287 817 286 818 285 818 284 819 283 819 282 820 279 820 278 821 270 821 269 820 266 820 265 819 264 819 263 818 262 818 261 817 260 817 252 809 252 808 251 807 251 806 250 805 250 804 249 803 249 800 248 799 248 790 249 789 249 787 250 786 250 784 251 783 251 782 253 780 253 779 258 774 259 774 261 772 262 772 263 771 264 771 265 770 266 770 267 769 Z M 280 342 281 341 365 341 366 342 367 342 368 343 369 343 371 345 371 346 372 347 372 348 373 349 373 353 372 354 372 355 368 359 367 359 366 360 280 360 279 359 278 359 274 355 274 354 273 353 273 349 274 348 274 346 278 342 Z" />
</g>
</svg>