<svg height="1024" width="1024" xmlns="http://www.w3.org/2000/svg">
<g fill="black" fill-rule="evenodd">
<path d="M 522 614 Z" />
<path d="M 793 586 794 587 793 588 793 597 792 598 792 602 791 603 791 606 790 607 790 609 789 610 789 611 788 612 788 613 787 614 787 615 786 616 786 617 785 618 785 619 783 621 783 622 780 625 780 626 770 636 769 636 767 638 766 638 764 640 763 640 761 642 760 642 759 643 758 643 757 644 755 644 754 645 753 645 752 646 751 646 751 647 752 647 753 648 755 648 756 649 757 649 758 650 759 650 760 651 761 651 762 652 763 652 764 653 765 653 767 655 768 655 769 656 770 656 772 658 773 658 775 660 776 660 778 662 779 662 781 664 782 664 784 666 785 666 787 668 788 668 791 671 792 671 795 674 796 674 802 680 803 680 807 684 807 685 810 688 810 689 812 691 812 692 814 694 814 695 816 697 816 698 818 700 818 701 827 710 828 710 830 712 831 712 832 713 833 713 835 715 837 715 838 716 839 716 840 717 841 717 842 718 844 718 845 719 847 719 848 720 850 720 851 721 853 721 854 722 855 722 856 723 858 723 859 724 860 724 861 725 862 725 863 726 864 726 865 727 866 727 867 728 868 728 870 730 871 730 872 731 873 731 875 733 876 733 878 735 879 735 883 739 884 739 898 753 899 753 901 755 902 755 904 757 905 757 906 758 907 758 908 759 909 759 910 760 912 760 913 761 915 761 916 762 920 762 921 763 936 763 937 762 940 762 941 761 943 761 944 760 946 760 947 759 948 759 949 758 950 758 951 757 952 757 953 756 954 756 956 754 957 754 968 743 968 742 969 741 969 740 971 738 971 737 972 736 972 735 973 734 973 732 974 731 974 730 975 729 975 726 976 725 976 719 977 718 977 711 976 710 976 705 975 704 975 701 974 700 974 698 973 697 973 696 972 695 972 694 971 693 971 692 970 691 970 690 968 688 968 687 965 684 965 683 960 678 959 678 956 675 955 675 953 673 952 673 951 672 950 672 949 671 948 671 947 670 946 670 945 669 943 669 942 668 939 668 938 667 936 667 935 666 933 666 932 665 931 665 930 664 929 664 928 663 926 663 925 662 924 662 923 661 922 661 920 659 919 659 918 658 917 658 915 656 914 656 911 653 910 653 906 649 905 649 895 639 894 639 888 633 887 633 885 631 884 631 882 629 881 629 880 628 879 628 878 627 876 627 875 626 873 626 872 625 869 625 868 624 863 624 862 623 850 623 849 622 848 622 847 621 845 621 844 620 843 620 842 619 841 619 840 618 839 618 838 617 837 617 836 616 835 616 834 615 833 615 831 613 830 613 829 612 828 612 826 610 825 610 824 609 823 609 821 607 820 607 818 605 817 605 814 602 813 602 809 598 808 598 804 594 803 594 798 589 797 589 794 586 Z M 923 694 924 693 933 693 934 694 936 694 937 695 939 695 941 697 942 697 947 702 947 703 949 705 949 707 950 708 950 710 951 711 951 719 950 720 950 722 949 723 949 724 948 725 948 726 947 727 947 728 942 733 941 733 939 735 938 735 937 736 934 736 933 737 924 737 923 736 921 736 920 735 919 735 918 734 917 734 910 727 910 726 909 725 909 724 908 723 908 722 907 721 907 709 908 708 908 707 909 706 909 705 910 704 910 703 917 696 918 696 919 695 920 695 921 694 Z M 851 652 852 651 863 651 864 652 866 652 867 653 868 653 870 655 871 655 876 660 876 661 878 663 878 665 879 666 879 669 880 670 880 674 879 675 879 679 878 680 878 681 877 682 877 683 875 685 875 686 873 688 872 688 869 691 868 691 867 692 866 692 865 693 863 693 862 694 854 694 853 693 850 693 849 692 848 692 846 690 845 690 839 684 839 683 838 682 838 681 837 680 837 678 836 677 836 667 837 666 837 664 838 663 838 662 840 660 840 659 843 656 844 656 847 653 849 653 850 652 Z" />
<path d="M 534 548 533 549 532 549 530 551 530 553 529 554 529 562 528 563 528 574 527 575 527 587 526 588 526 598 525 599 525 611 524 612 524 624 523 625 523 638 522 639 522 651 523 652 523 653 526 656 532 656 533 655 534 655 535 654 535 653 536 652 536 650 537 649 537 644 538 643 538 636 539 635 539 626 540 625 540 616 541 615 541 606 542 605 542 595 543 594 543 584 544 583 544 573 545 572 545 562 546 561 546 553 541 548 Z" />
<path d="M 759 544 Z" />
<path d="M 492 527 490 529 489 529 480 538 479 538 464 553 463 553 453 563 452 563 443 572 442 572 434 580 433 580 430 583 430 584 428 586 428 591 430 593 430 594 431 594 432 595 433 595 434 596 435 596 436 597 437 597 438 598 440 598 441 599 442 599 443 600 445 600 446 601 447 601 448 602 450 602 451 603 452 603 453 604 454 604 455 605 456 605 457 606 457 610 456 611 456 612 454 614 454 615 452 617 452 618 449 621 449 622 446 625 446 626 443 629 443 630 439 634 439 635 436 638 436 639 433 642 433 643 429 647 429 648 426 651 426 652 424 654 424 659 425 660 425 661 427 663 429 663 430 664 433 664 434 663 436 663 443 656 443 655 453 645 453 644 464 633 464 632 476 620 476 619 487 608 487 607 492 602 492 601 493 600 493 594 490 591 489 591 488 590 487 590 486 589 485 589 484 588 482 588 481 587 480 587 479 586 477 586 476 585 475 585 474 584 473 584 472 583 471 583 470 582 469 582 468 581 467 581 465 579 465 578 466 577 466 576 468 574 468 573 502 539 502 538 503 537 503 531 500 528 499 528 498 527 Z" />
<path d="M 281 465 279 467 278 467 276 469 275 469 273 471 272 471 270 473 269 473 268 474 267 474 266 475 265 475 263 477 262 477 261 478 260 478 259 479 258 479 257 480 256 480 255 481 254 481 253 482 252 482 251 483 250 483 249 484 248 484 247 485 246 485 245 486 243 486 242 487 241 487 240 488 238 488 237 489 236 489 235 490 233 490 232 491 230 491 229 492 227 492 226 493 224 493 223 492 202 492 201 493 198 493 197 494 194 494 193 495 192 495 191 496 190 496 189 497 188 497 187 498 186 498 185 499 184 499 182 501 181 501 172 510 172 511 170 513 170 514 168 516 168 517 166 519 166 520 164 522 164 523 162 525 162 526 160 528 160 529 146 543 145 543 141 547 140 547 137 550 136 550 134 552 133 552 131 554 130 554 128 556 127 556 126 557 125 557 123 559 122 559 121 560 120 560 119 561 118 561 117 562 116 562 115 563 113 563 112 564 110 564 109 565 106 565 105 566 103 566 102 567 99 567 98 568 96 568 95 569 93 569 92 570 90 570 89 571 88 571 87 572 86 572 84 574 83 574 81 576 80 576 70 586 70 587 68 589 68 590 66 592 66 593 65 594 65 595 64 596 64 598 63 599 63 601 62 602 62 605 61 606 61 625 62 626 62 629 63 630 63 632 64 633 64 635 65 636 65 637 66 638 66 639 68 641 68 642 70 644 70 645 80 655 81 655 83 657 84 657 85 658 86 658 87 659 88 659 89 660 90 660 91 661 93 661 94 662 97 662 98 663 101 663 102 664 116 664 117 663 121 663 122 662 124 662 125 661 127 661 128 660 129 660 130 659 131 659 132 658 133 658 134 657 135 657 137 655 138 655 143 650 144 650 145 649 145 648 150 643 150 642 152 640 152 639 153 638 153 637 155 635 155 634 156 633 156 632 159 629 159 628 163 624 163 623 174 612 175 612 180 607 181 607 184 604 185 604 187 602 188 602 189 601 190 601 191 600 192 600 193 599 194 599 195 598 196 598 197 597 198 597 199 596 201 596 202 595 203 595 204 594 206 594 207 593 210 593 211 592 214 592 215 591 219 591 220 590 222 590 223 589 225 589 226 588 228 588 229 587 230 587 231 586 233 586 235 584 236 584 238 582 239 582 241 580 242 580 245 577 245 576 249 572 249 571 251 569 251 568 253 566 253 565 255 563 255 562 256 561 256 560 261 555 262 555 265 552 266 552 268 550 269 550 271 548 272 548 273 547 274 547 276 545 277 545 278 544 279 544 281 542 282 542 283 541 284 541 285 540 286 540 287 539 288 539 290 537 291 537 292 536 294 536 295 535 296 535 297 534 299 534 300 533 301 533 302 532 304 532 305 531 307 531 308 530 310 530 311 529 310 528 309 528 307 526 306 526 302 522 301 522 297 518 297 517 292 512 292 511 290 509 290 508 289 507 289 506 288 505 288 504 287 503 287 502 286 501 286 500 285 499 285 497 284 496 284 494 283 493 283 489 282 488 282 484 281 483 281 467 282 466 282 465 Z M 105 593 106 592 113 592 114 593 116 593 117 594 119 594 120 595 121 595 128 602 128 603 130 605 130 607 131 608 131 613 132 614 131 615 131 620 130 621 130 623 129 624 129 625 127 627 127 628 123 632 122 632 120 634 119 634 118 635 116 635 115 636 104 636 103 635 101 635 100 634 99 634 97 632 96 632 91 627 91 626 89 624 89 622 88 621 88 618 87 617 87 612 88 611 88 608 89 607 89 605 90 604 90 603 98 595 99 595 100 594 102 594 103 593 Z M 203 520 204 519 216 519 217 520 218 520 219 521 221 521 223 523 224 523 227 526 227 527 230 530 230 531 231 532 231 534 232 535 232 547 231 548 231 550 230 551 230 552 228 554 228 555 225 558 224 558 221 561 220 561 219 562 217 562 216 563 204 563 203 562 201 562 200 561 199 561 197 559 196 559 193 556 193 555 190 552 190 551 189 550 189 548 188 547 188 535 189 534 189 532 190 531 190 530 192 528 192 527 195 524 196 524 199 521 200 521 201 520 Z" />
<path d="M 615 459 614 460 609 460 608 461 604 461 603 462 602 462 601 463 599 463 598 464 597 464 595 466 595 470 596 471 596 473 597 474 597 476 598 477 598 483 597 484 597 485 594 488 593 488 591 490 586 490 585 491 571 491 569 493 569 495 568 496 568 513 569 514 569 518 570 519 570 521 571 522 571 524 572 525 572 526 573 527 573 528 574 529 574 530 575 531 575 532 576 533 576 534 578 536 578 537 588 547 589 547 591 549 592 549 594 551 595 551 596 552 597 552 598 553 599 553 600 554 602 554 603 555 605 555 606 556 608 556 609 557 613 557 614 558 617 558 618 559 621 559 622 560 625 560 626 561 628 561 629 562 631 562 632 563 633 563 634 564 636 564 637 565 638 565 639 566 640 566 641 567 642 567 643 568 644 568 645 569 646 569 648 571 649 571 650 572 651 572 653 574 654 574 657 577 658 577 661 580 662 580 668 586 669 586 673 590 673 591 679 597 679 598 682 601 682 602 684 604 684 605 686 607 686 608 687 609 687 610 689 612 689 613 690 614 690 615 702 627 703 627 704 628 705 628 707 630 708 630 709 631 710 631 711 632 713 632 714 633 716 633 717 634 719 634 720 635 723 635 724 636 738 636 739 635 743 635 744 634 746 634 747 633 749 633 750 632 751 632 752 631 753 631 754 630 755 630 756 629 757 629 759 627 760 627 764 623 765 623 768 620 768 619 772 615 772 614 774 612 774 611 775 610 775 609 776 608 776 607 777 606 777 605 778 604 778 602 779 601 779 598 780 597 780 578 779 577 779 574 778 573 778 571 777 570 777 569 776 568 776 566 775 565 775 564 773 562 773 561 772 560 772 559 767 554 767 553 764 550 763 550 759 546 758 546 756 544 755 544 754 543 753 543 752 542 751 542 750 541 748 541 747 540 745 540 744 539 742 539 741 538 738 538 737 537 734 537 733 536 730 536 729 535 727 535 726 534 724 534 723 533 721 533 720 532 719 532 718 531 717 531 716 530 714 530 712 528 711 528 710 527 709 527 708 526 707 526 706 525 705 525 703 523 702 523 701 522 700 522 698 520 697 520 695 518 694 518 691 515 690 515 687 512 686 512 679 505 678 505 677 504 677 503 670 496 670 495 667 492 667 491 665 489 665 488 663 486 663 485 661 483 661 482 660 481 660 480 654 474 654 473 653 473 649 469 648 469 647 468 646 468 644 466 643 466 642 465 641 465 640 464 639 464 638 463 637 463 636 462 634 462 633 461 630 461 629 460 624 460 623 459 Z M 725 565 726 564 736 564 737 565 740 565 741 566 742 566 745 569 746 569 749 572 749 573 751 575 751 576 752 577 752 578 753 579 753 584 754 585 754 587 753 588 753 592 752 593 752 595 751 596 751 597 748 600 748 601 746 603 745 603 743 605 742 605 741 606 740 606 739 607 738 607 737 608 726 608 725 607 723 607 722 606 721 606 719 604 718 604 714 600 714 599 712 597 712 596 711 595 711 594 710 593 710 590 709 589 709 583 710 582 710 579 711 578 711 577 712 576 712 575 713 574 713 573 718 568 719 568 721 566 722 566 723 565 Z M 616 487 617 486 624 486 625 487 627 487 628 488 629 488 630 489 631 489 632 490 633 490 638 495 638 496 640 498 640 499 641 500 641 502 642 503 642 513 641 514 641 516 640 517 640 519 637 522 637 523 633 527 632 527 631 528 630 528 629 529 628 529 627 530 625 530 624 531 615 531 614 530 612 530 611 529 610 529 609 528 608 528 601 521 601 520 600 519 600 518 599 517 599 516 598 515 598 511 597 510 597 507 598 506 598 502 599 501 599 500 600 499 600 498 601 497 601 496 607 490 608 490 609 489 610 489 611 488 612 488 613 487 Z" />
<path d="M 349 455 Z" />
<path d="M 649 401 648 402 647 402 646 403 645 403 643 405 642 405 640 407 639 407 638 408 637 408 635 410 634 410 632 412 631 412 630 413 629 413 627 415 626 415 624 417 623 417 621 419 620 419 618 421 617 421 615 423 614 423 611 426 611 427 610 428 610 433 611 434 611 435 612 436 613 436 614 437 623 437 624 436 625 436 627 434 628 434 629 433 630 433 633 430 634 430 636 428 637 428 639 426 640 426 642 424 643 424 644 423 645 423 647 421 648 421 650 419 651 419 652 418 653 418 655 416 656 416 660 412 660 405 656 401 Z" />
<path d="M 472 397 471 398 466 398 465 399 462 399 461 400 460 400 459 401 458 401 457 402 456 402 455 403 454 403 453 404 452 404 451 405 450 405 449 406 448 406 446 408 445 408 444 409 443 409 441 411 440 411 438 413 437 413 436 414 435 414 434 415 433 415 432 416 431 416 430 417 429 417 428 418 427 418 426 419 425 419 424 420 422 420 421 421 420 421 419 422 417 422 416 423 414 423 413 424 411 424 410 425 407 425 406 426 403 426 402 427 399 427 398 428 393 428 392 429 366 429 365 428 359 428 358 427 353 427 352 426 336 426 335 427 332 427 331 428 328 428 327 429 326 429 325 430 324 430 323 431 322 431 321 432 320 432 319 433 318 433 316 435 315 435 310 440 309 440 308 441 308 442 302 448 302 449 300 451 300 452 299 453 299 454 298 455 298 456 297 457 297 458 296 459 296 462 295 463 295 465 294 466 294 473 293 474 293 479 294 480 294 486 295 487 295 489 296 490 296 492 297 493 297 495 298 496 298 497 299 498 299 499 301 501 301 502 303 504 303 505 312 514 313 514 316 517 317 517 318 518 319 518 320 519 321 519 322 520 323 520 324 521 325 521 326 522 328 522 329 523 331 523 332 524 337 524 338 525 348 525 349 524 354 524 355 523 358 523 359 522 360 522 361 521 363 521 364 520 365 520 366 519 367 519 368 518 369 518 370 517 371 517 373 515 374 515 376 513 377 513 380 510 381 510 384 507 385 507 387 505 388 505 390 503 391 503 392 502 393 502 394 501 395 501 396 500 397 500 398 499 400 499 401 498 403 498 404 497 406 497 407 496 409 496 410 495 412 495 413 494 417 494 418 493 422 493 423 492 429 492 430 491 451 491 452 492 459 492 460 493 463 493 464 494 468 494 469 495 485 495 486 494 490 494 491 493 493 493 494 492 496 492 497 491 498 491 499 490 501 490 503 488 504 488 506 486 507 486 508 485 508 484 510 482 510 481 511 480 511 479 512 478 512 477 513 476 513 475 517 471 518 471 519 470 520 470 521 469 525 469 526 468 528 468 529 467 530 467 531 466 531 462 528 459 527 459 526 458 525 458 524 457 523 457 522 456 521 456 520 455 519 455 518 454 517 454 515 452 515 447 519 443 520 443 522 441 523 441 526 438 527 438 527 437 528 436 528 433 527 432 527 430 526 429 526 428 525 427 525 426 524 425 524 424 523 423 523 422 522 421 522 420 520 418 520 417 510 407 509 407 507 405 506 405 505 404 504 404 503 403 502 403 501 402 500 402 499 401 497 401 496 400 494 400 493 399 490 399 489 398 484 398 483 397 Z M 339 453 340 452 347 452 348 453 351 453 352 454 353 454 354 455 355 455 363 463 363 464 364 465 364 466 365 467 365 470 366 471 366 478 365 479 365 482 364 483 364 484 363 485 363 486 361 488 361 489 357 493 356 493 354 495 353 495 352 496 350 496 349 497 338 497 337 496 335 496 334 495 333 495 332 494 331 494 325 488 325 487 323 485 323 484 322 483 322 480 321 479 321 470 322 469 322 467 323 466 323 465 324 464 324 463 326 461 326 460 329 457 330 457 332 455 333 455 334 454 335 454 336 453 Z M 473 424 474 423 482 423 483 424 485 424 486 425 488 425 490 427 491 427 496 432 496 433 497 434 497 435 498 436 498 437 499 438 499 440 500 441 500 450 499 451 499 453 498 454 498 455 497 456 497 457 495 459 495 460 491 464 490 464 489 465 488 465 487 466 486 466 485 467 483 467 482 468 474 468 473 467 470 467 469 466 468 466 467 465 466 465 458 457 458 456 457 455 457 453 456 452 456 440 457 439 457 437 458 436 458 435 460 433 460 432 465 427 466 427 468 425 470 425 471 424 Z" />
<path d="M 524 280 523 281 522 281 521 282 520 282 520 283 519 284 519 285 518 286 518 292 519 293 519 299 520 300 520 304 521 305 521 310 522 311 522 316 523 317 523 322 524 323 524 328 525 329 525 333 526 334 526 339 527 340 527 344 528 345 528 350 529 351 529 356 530 357 530 361 531 362 531 367 532 368 532 373 533 374 533 378 534 379 534 383 535 384 535 386 539 390 546 390 547 389 548 389 549 388 549 387 550 386 550 385 551 384 551 382 550 381 550 377 549 376 549 372 548 371 548 367 547 366 547 362 546 361 546 356 545 355 545 351 544 350 544 346 543 345 543 341 542 340 542 335 541 334 541 330 540 329 540 325 539 324 539 320 538 319 538 314 537 313 537 309 536 308 536 304 535 303 535 300 534 299 534 295 533 294 533 290 532 289 532 286 531 285 531 284 528 281 526 281 525 280 Z" />
<path d="M 610 260 606 264 606 265 605 266 605 267 604 268 604 269 602 271 602 273 601 274 601 275 600 276 600 277 599 278 599 279 598 280 598 281 596 283 596 285 595 286 595 287 594 288 594 289 592 291 592 292 591 293 591 294 590 295 590 296 589 297 589 298 588 299 588 300 587 301 587 302 586 303 586 304 585 305 585 306 584 307 584 308 583 309 583 310 582 311 582 312 581 313 581 314 580 315 580 316 579 317 579 318 578 319 578 320 577 321 577 322 576 323 576 324 575 325 575 326 574 327 574 328 573 329 573 330 572 331 572 332 571 333 571 335 570 336 570 337 571 338 571 340 574 343 576 343 577 344 604 344 606 346 606 351 605 352 605 353 604 354 604 356 602 358 602 359 601 360 601 361 600 362 600 363 599 364 599 365 598 366 598 367 597 368 597 369 596 370 596 371 595 372 595 373 594 374 594 375 593 376 593 377 591 379 591 380 590 381 590 382 589 383 589 384 588 385 588 386 587 387 587 388 586 389 586 390 585 391 585 392 584 393 584 394 583 395 583 396 582 397 582 398 581 399 581 400 580 401 580 402 579 403 579 405 578 406 579 407 579 408 580 409 580 410 581 411 582 411 583 412 590 412 595 407 595 406 596 405 596 404 598 402 598 401 600 399 600 398 601 397 601 396 603 394 603 393 604 392 604 391 606 389 606 388 608 386 608 385 609 384 609 383 611 381 611 380 613 378 613 377 614 376 614 375 616 373 616 372 617 371 617 370 619 368 619 367 621 365 621 364 622 363 622 362 624 360 624 359 625 358 625 357 627 355 627 354 628 353 628 352 630 350 630 349 631 348 631 347 633 345 633 344 634 343 634 342 636 340 636 339 637 338 637 337 639 335 639 334 640 333 640 332 641 331 641 326 639 324 639 323 638 323 636 321 635 321 634 320 632 320 631 319 621 319 620 318 607 318 606 317 605 317 604 316 604 311 605 310 605 308 606 307 606 305 607 304 607 303 608 302 608 300 609 299 609 298 610 297 610 295 611 294 611 293 612 292 612 291 613 290 613 288 614 287 614 286 615 285 615 284 616 283 616 281 617 280 617 279 618 278 618 277 619 276 619 274 620 273 620 272 621 271 621 269 622 268 622 266 621 265 621 264 620 263 620 262 619 261 618 261 617 260 Z" />
</g>
</svg>