<svg height="1024" width="1024" xmlns="http://www.w3.org/2000/svg">
<g fill="black" fill-rule="evenodd">
<path d="M 657 895 661 895 Z" />
<path d="M 370 895 373 895 Z" />
<path d="M 316 893 Z" />
<path d="M 750 891 752 891 Z" />
<path d="M 767 890 Z" />
<path d="M 783 889 784 889 Z" />
<path d="M 812 887 814 887 Z" />
<path d="M 211 887 Z" />
<path d="M 154 860 Z" />
<path d="M 161 859 Z" />
<path d="M 842 857 Z" />
<path d="M 276 857 278 857 Z" />
<path d="M 773 856 Z" />
<path d="M 747 856 Z" />
<path d="M 189 856 Z" />
<path d="M 749 855 Z" />
<path d="M 246 855 Z" />
<path d="M 790 854 Z" />
<path d="M 261 852 Z" />
<path d="M 616 828 618 828 Z" />
<path d="M 614 828 Z" />
<path d="M 601 828 Z" />
<path d="M 593 828 Z" />
<path d="M 591 828 Z" />
<path d="M 587 828 589 828 Z" />
<path d="M 581 827 Z" />
<path d="M 579 827 Z" />
<path d="M 629 826 Z" />
<path d="M 439 826 Z" />
<path d="M 567 825 Z" />
<path d="M 445 825 Z" />
<path d="M 560 824 562 824 Z" />
<path d="M 453 824 Z" />
<path d="M 395 824 Z" />
<path d="M 769 823 Z" />
<path d="M 463 822 465 822 Z" />
<path d="M 542 821 Z" />
<path d="M 540 821 Z" />
<path d="M 474 821 Z" />
<path d="M 759 820 Z" />
<path d="M 531 820 Z" />
<path d="M 755 819 756 819 Z" />
<path d="M 515 819 518 819 Z" />
<path d="M 501 819 513 819 Z" />
<path d="M 496 819 499 819 Z" />
<path d="M 268 815 Z" />
<path d="M 271 814 272 814 Z" />
<path d="M 727 813 Z" />
<path d="M 674 813 675 813 Z" />
<path d="M 277 813 Z" />
<path d="M 718 812 Z" />
<path d="M 410 812 Z" />
<path d="M 284 812 286 812 Z" />
<path d="M 282 812 Z" />
<path d="M 704 811 709 811 Z" />
<path d="M 690 811 692 811 Z" />
<path d="M 402 811 404 811 Z" />
<path d="M 295 811 Z" />
<path d="M 335 810 Z" />
<path d="M 394 809 Z" />
<path d="M 755 803 756 803 Z" />
<path d="M 745 801 747 801 Z" />
<path d="M 368 801 Z" />
<path d="M 357 798 Z" />
<path d="M 664 797 666 797 Z" />
<path d="M 411 797 Z" />
<path d="M 709 796 710 796 Z" />
<path d="M 693 796 695 796 Z" />
<path d="M 688 796 691 796 Z" />
<path d="M 682 796 684 796 Z" />
<path d="M 658 796 Z" />
<path d="M 345 796 346 796 Z" />
<path d="M 277 796 Z" />
<path d="M 529 795 530 795 Z" />
<path d="M 526 795 527 795 Z" />
<path d="M 524 795 Z" />
<path d="M 522 795 Z" />
<path d="M 492 795 496 795 Z" />
<path d="M 337 795 Z" />
<path d="M 283 795 284 795 Z" />
<path d="M 538 794 540 794 Z" />
<path d="M 483 794 485 794 Z" />
<path d="M 322 794 329 794 Z" />
<path d="M 318 794 Z" />
<path d="M 293 794 300 794 Z" />
<path d="M 548 793 Z" />
<path d="M 474 793 475 793 Z" />
<path d="M 553 792 554 792 Z" />
<path d="M 561 791 Z" />
<path d="M 463 791 Z" />
<path d="M 460 791 461 791 Z" />
<path d="M 565 790 Z" />
<path d="M 570 789 Z" />
<path d="M 451 789 Z" />
<path d="M 580 787 Z" />
<path d="M 443 787 Z" />
<path d="M 583 786 Z" />
<path d="M 435 785 Z" />
<path d="M 591 784 Z" />
<path d="M 374 781 Z" />
<path d="M 656 780 Z" />
<path d="M 604 780 Z" />
<path d="M 607 779 Z" />
<path d="M 411 777 Z" />
<path d="M 618 775 Z" />
<path d="M 623 773 Z" />
<path d="M 525 771 Z" />
<path d="M 519 771 523 771 Z" />
<path d="M 503 771 Z" />
<path d="M 496 771 501 771 Z" />
<path d="M 535 770 537 770 Z" />
<path d="M 486 770 Z" />
<path d="M 394 770 Z" />
<path d="M 544 769 Z" />
<path d="M 479 769 Z" />
<path d="M 471 768 Z" />
<path d="M 460 766 Z" />
<path d="M 566 765 Z" />
<path d="M 571 764 Z" />
<path d="M 378 762 Z" />
<path d="M 338 760 Z" />
<path d="M 577 758 Z" />
<path d="M 428 756 427 757 428 757 Z" />
<path d="M 421 755 Z" />
<path d="M 429 753 Z" />
<path d="M 610 752 Z" />
<path d="M 574 748 Z" />
<path d="M 233 748 Z" />
<path d="M 622 747 Z" />
<path d="M 451 747 Z" />
<path d="M 229 747 Z" />
<path d="M 593 746 Z" />
<path d="M 573 745 Z" />
<path d="M 432 744 Z" />
<path d="M 453 740 Z" />
<path d="M 383 737 Z" />
<path d="M 816 736 Z" />
<path d="M 807 736 Z" />
<path d="M 816 726 Z" />
<path d="M 808 722 808 724 Z" />
<path d="M 586 722 Z" />
<path d="M 459 720 Z" />
<path d="M 672 717 Z" />
<path d="M 584 715 Z" />
<path d="M 865 708 Z" />
<path d="M 447 693 Z" />
<path d="M 468 689 Z" />
<path d="M 319 686 Z" />
<path d="M 555 683 Z" />
<path d="M 450 683 Z" />
<path d="M 171 679 Z" />
<path d="M 472 675 Z" />
<path d="M 552 674 Z" />
<path d="M 571 671 571 672 Z" />
<path d="M 455 667 Z" />
<path d="M 853 665 Z" />
<path d="M 475 665 Z" />
<path d="M 568 662 Z" />
<path d="M 548 661 Z" />
<path d="M 567 658 Z" />
<path d="M 566 655 Z" />
<path d="M 565 652 Z" />
<path d="M 460 650 Z" />
<path d="M 480 649 Z" />
<path d="M 461 647 Z" />
<path d="M 563 645 Z" />
<path d="M 481 645 Z" />
<path d="M 562 642 Z" />
<path d="M 482 642 Z" />
<path d="M 656 640 Z" />
<path d="M 561 638 Z" />
<path d="M 540 634 540 635 Z" />
<path d="M 538 627 Z" />
<path d="M 537 624 Z" />
<path d="M 488 622 Z" />
<path d="M 489 618 Z" />
<path d="M 470 616 Z" />
<path d="M 471 613 Z" />
<path d="M 623 611 Z" />
<path d="M 472 609 Z" />
<path d="M 782 607 Z" />
<path d="M 880 605 Z" />
<path d="M 493 605 Z" />
<path d="M 804 602 Z" />
<path d="M 907 601 Z" />
<path d="M 494 601 Z" />
<path d="M 240 600 Z" />
<path d="M 549 598 Z" />
<path d="M 264 596 Z" />
<path d="M 761 595 Z" />
<path d="M 496 594 Z" />
<path d="M 547 590 547 591 Z" />
<path d="M 262 590 Z" />
<path d="M 763 589 Z" />
<path d="M 478 589 Z" />
<path d="M 546 588 Z" />
<path d="M 525 582 Z" />
<path d="M 480 582 Z" />
<path d="M 215 582 Z" />
<path d="M 810 581 Z" />
<path d="M 524 580 Z" />
<path d="M 811 577 Z" />
<path d="M 584 576 Z" />
<path d="M 523 576 Z" />
<path d="M 792 573 Z" />
<path d="M 515 573 517 573 Z" />
<path d="M 483 571 Z" />
<path d="M 604 569 Z" />
<path d="M 541 569 Z" />
<path d="M 813 568 Z" />
<path d="M 794 565 Z" />
<path d="M 211 564 Z" />
<path d="M 210 556 Z" />
<path d="M 228 551 Z" />
<path d="M 772 549 Z" />
<path d="M 515 549 518 549 Z" />
<path d="M 507 549 508 549 Z" />
<path d="M 252 549 Z" />
<path d="M 763 548 Z" />
<path d="M 502 548 Z" />
<path d="M 261 548 Z" />
<path d="M 756 547 757 547 Z" />
<path d="M 525 547 526 547 Z" />
<path d="M 749 546 Z" />
<path d="M 529 546 Z" />
<path d="M 493 545 Z" />
<path d="M 227 543 Z" />
<path d="M 208 541 208 542 Z" />
<path d="M 706 540 Z" />
<path d="M 324 539 Z" />
<path d="M 691 538 Z" />
<path d="M 574 535 Z" />
<path d="M 508 534 Z" />
<path d="M 892 533 892 534 Z" />
<path d="M 818 531 Z" />
<path d="M 642 531 643 531 Z" />
<path d="M 635 530 636 530 Z" />
<path d="M 392 530 Z" />
<path d="M 250 530 Z" />
<path d="M 768 529 Z" />
<path d="M 766 529 Z" />
<path d="M 605 526 Z" />
<path d="M 739 525 Z" />
<path d="M 473 525 Z" />
<path d="M 424 525 Z" />
<path d="M 286 525 288 525 Z" />
<path d="M 775 524 775 525 Z" />
<path d="M 441 523 Z" />
<path d="M 775 522 Z" />
<path d="M 717 522 Z" />
<path d="M 578 522 Z" />
<path d="M 249 520 249 521 Z" />
<path d="M 693 519 Z" />
<path d="M 686 518 687 518 Z" />
<path d="M 539 518 Z" />
<path d="M 336 518 337 518 Z" />
<path d="M 666 515 Z" />
<path d="M 249 515 Z" />
<path d="M 819 514 819 515 Z" />
<path d="M 659 514 Z" />
<path d="M 877 512 Z" />
<path d="M 541 512 Z" />
<path d="M 516 512 Z" />
<path d="M 381 512 Z" />
<path d="M 819 511 Z" />
<path d="M 388 511 Z" />
<path d="M 877 510 Z" />
<path d="M 556 510 556 511 Z" />
<path d="M 469 510 469 513 Z" />
<path d="M 394 510 396 510 Z" />
<path d="M 622 509 623 509 Z" />
<path d="M 401 509 Z" />
<path d="M 483 508 Z" />
<path d="M 819 507 Z" />
<path d="M 416 507 Z" />
<path d="M 505 506 Z" />
<path d="M 483 506 Z" />
<path d="M 422 506 Z" />
<path d="M 586 504 Z" />
<path d="M 520 504 Z" />
<path d="M 505 504 Z" />
<path d="M 483 503 Z" />
<path d="M 445 503 Z" />
<path d="M 580 502 581 503 Z" />
<path d="M 541 500 Z" />
<path d="M 800 498 800 516 Z" />
<path d="M 556 498 556 500 Z" />
<path d="M 511 498 513 498 Z" />
<path d="M 819 496 819 498 Z" />
<path d="M 579 494 579 495 Z" />
<path d="M 249 492 Z" />
<path d="M 799 482 Z" />
<path d="M 207 481 Z" />
<path d="M 818 480 818 481 Z" />
<path d="M 132 479 Z" />
<path d="M 507 478 506 479 504 479 503 480 501 480 500 481 499 481 498 482 497 482 489 490 489 491 488 492 488 493 487 494 487 496 486 497 486 500 485 501 485 509 486 510 486 513 487 514 487 516 488 517 488 518 489 519 489 520 491 522 491 523 495 527 496 527 498 529 499 529 500 530 501 530 502 531 505 531 506 532 520 532 521 531 523 531 524 530 525 530 526 529 527 529 530 526 531 526 533 524 533 523 536 520 536 519 537 518 537 516 538 515 538 514 539 513 539 499 538 498 538 496 537 495 537 493 536 492 536 491 533 488 533 487 529 483 528 483 526 481 525 481 524 480 522 480 521 479 519 479 518 478 Z M 508 496 516 496 517 497 518 497 521 500 521 501 522 502 522 508 521 509 521 510 517 514 516 514 515 515 509 515 507 513 506 513 504 511 504 510 503 509 503 501 Z" />
<path d="M 508 476 509 476 Z" />
<path d="M 132 476 Z" />
<path d="M 892 473 Z" />
<path d="M 132 473 132 474 Z" />
<path d="M 797 464 Z" />
<path d="M 520 462 521 462 Z" />
<path d="M 915 452 Z" />
<path d="M 872 441 Z" />
<path d="M 522 437 Z" />
<path d="M 501 437 502 437 Z" />
<path d="M 899 426 Z" />
<path d="M 763 426 Z" />
<path d="M 899 424 Z" />
<path d="M 729 415 Z" />
<path d="M 265 415 Z" />
<path d="M 755 404 Z" />
<path d="M 876 391 Z" />
<path d="M 503 370 Z" />
<path d="M 629 342 Z" />
<path d="M 522 340 Z" />
<path d="M 181 337 Z" />
<path d="M 522 323 Z" />
<path d="M 178 321 178 322 Z" />
<path d="M 522 310 522 311 Z" />
<path d="M 522 283 Z" />
<path d="M 213 279 Z" />
<path d="M 839 278 Z" />
<path d="M 785 263 Z" />
<path d="M 598 258 Z" />
<path d="M 503 254 503 255 Z" />
<path d="M 578 252 Z" />
<path d="M 503 252 Z" />
<path d="M 571 250 Z" />
<path d="M 503 248 Z" />
<path d="M 553 247 Z" />
<path d="M 522 247 522 249 Z" />
<path d="M 471 247 Z" />
<path d="M 629 244 Z" />
<path d="M 522 244 Z" />
<path d="M 501 244 503 244 Z" />
<path d="M 499 244 Z" />
<path d="M 260 241 Z" />
<path d="M 405 240 Z" />
<path d="M 612 237 Z" />
<path d="M 437 229 Z" />
<path d="M 806 227 Z" />
<path d="M 578 227 Z" />
<path d="M 225 227 Z" />
<path d="M 451 226 Z" />
<path d="M 234 226 Z" />
<path d="M 236 225 Z" />
<path d="M 494 222 493 223 481 223 480 224 472 224 471 225 466 225 465 226 460 226 459 227 455 227 454 228 450 228 449 229 445 229 444 230 441 230 440 231 437 231 436 232 433 232 432 233 430 233 429 234 427 234 426 235 423 235 422 236 420 236 419 237 418 237 417 238 415 238 414 239 412 239 411 240 410 240 409 241 407 241 406 242 404 242 403 243 402 243 401 244 400 244 399 245 398 245 397 246 395 246 394 247 393 247 392 248 391 248 390 249 389 249 388 250 387 250 386 251 385 251 384 252 383 252 382 253 381 253 380 254 379 254 378 255 377 255 376 256 375 256 374 257 373 257 371 259 370 259 369 260 368 260 367 261 366 261 364 263 363 263 361 265 360 265 359 266 358 266 356 268 355 268 353 270 352 270 350 272 349 272 346 275 345 275 342 278 341 278 338 281 337 281 333 285 332 285 328 289 327 289 319 297 318 297 302 313 302 314 295 321 295 322 290 327 290 328 286 332 286 333 283 336 283 337 280 340 280 341 278 343 278 344 276 346 276 347 274 349 274 350 272 352 272 353 270 355 270 356 269 357 269 358 267 360 267 361 266 362 266 363 264 365 264 366 263 367 263 368 262 369 262 370 261 371 261 372 259 374 259 375 258 376 258 377 257 378 257 379 256 380 256 382 254 384 254 386 253 387 253 388 252 389 252 390 251 391 251 392 250 393 250 395 249 396 249 397 248 398 248 400 247 401 247 402 246 403 246 405 245 406 245 408 244 409 244 410 243 411 243 413 242 414 242 416 241 417 241 419 240 420 240 422 239 423 239 425 238 426 238 428 237 429 237 432 236 433 236 436 235 437 235 440 234 441 234 444 233 445 233 448 232 449 232 453 231 454 231 459 230 460 230 465 229 466 229 473 228 474 228 484 227 485 227 527 228 528 228 537 229 538 229 545 230 546 230 552 231 553 231 558 232 559 232 563 233 564 233 568 234 569 234 572 235 573 235 576 236 577 236 580 237 581 237 584 238 585 238 587 239 588 239 590 240 591 240 594 241 595 241 596 242 597 242 600 243 601 243 602 244 603 244 605 245 606 245 608 246 609 246 610 247 611 247 613 248 614 248 616 249 617 249 618 250 619 250 620 251 621 251 623 252 624 252 625 253 626 253 627 254 628 254 629 255 630 255 631 256 632 256 633 257 634 257 635 258 636 258 637 259 638 259 639 260 640 260 641 261 642 261 643 262 644 262 645 263 646 263 647 264 648 264 649 266 651 266 652 268 654 268 655 269 656 269 657 271 659 271 660 273 662 273 663 275 665 275 666 277 668 277 669 279 671 279 672 282 675 282 676 285 679 285 680 288 683 288 684 291 687 291 688 296 693 296 694 305 703 305 704 306 704 307 705 307 706 317 716 318 716 326 724 327 724 332 729 333 729 337 733 338 733 341 736 342 736 345 739 346 739 349 742 350 742 352 744 353 744 355 746 356 746 358 748 359 748 361 750 362 750 364 752 365 752 366 753 367 753 369 755 370 755 371 756 372 756 373 757 374 757 376 759 377 759 378 760 379 760 380 761 381 761 382 762 383 762 384 763 385 763 386 764 387 764 388 765 389 765 390 766 391 766 392 767 393 767 394 768 395 768 396 769 398 769 399 770 400 770 401 771 402 771 403 772 405 772 406 773 407 773 408 774 410 774 411 775 412 775 413 776 415 776 416 777 418 777 419 778 421 778 422 779 424 779 425 780 427 780 428 781 431 781 432 782 434 782 435 783 438 783 439 784 441 784 442 785 446 785 447 786 450 786 451 787 455 787 456 788 460 788 461 789 466 789 467 790 472 790 473 791 480 791 481 792 490 792 491 793 530 793 531 792 540 792 541 791 549 791 550 790 555 790 556 789 561 789 562 788 566 788 567 787 571 787 572 786 575 786 576 785 580 785 581 784 584 784 585 783 587 783 588 782 591 782 592 781 594 781 595 780 598 780 599 779 601 779 602 778 604 778 605 777 607 777 608 776 610 776 611 775 613 775 614 774 615 774 616 773 618 773 619 772 621 772 622 771 623 771 624 770 626 770 627 769 628 769 629 768 630 768 631 767 632 767 633 766 635 766 636 765 637 765 638 764 639 764 640 763 641 763 642 762 643 762 644 761 645 761 646 760 647 760 648 759 649 759 651 757 652 757 653 756 654 756 655 755 656 755 658 753 659 753 661 751 662 751 663 750 664 750 666 748 667 748 669 746 670 746 672 744 673 744 676 741 677 741 679 739 680 739 683 736 684 736 687 733 688 733 692 729 693 729 698 724 699 724 710 713 711 713 715 709 715 708 716 707 717 707 717 706 728 695 728 694 733 689 733 688 736 685 736 684 740 680 740 679 743 676 743 675 745 673 745 672 747 670 747 669 749 667 749 666 751 664 751 663 753 661 753 660 755 658 755 657 756 656 756 655 758 653 758 652 759 651 759 650 761 648 761 647 762 646 762 645 763 644 763 643 764 642 764 641 766 639 766 637 768 635 768 633 769 632 769 631 770 630 770 629 771 628 771 627 772 626 772 625 773 624 773 623 774 622 774 620 775 619 775 618 776 617 776 616 777 615 777 613 778 612 778 610 779 609 779 608 780 607 780 605 781 604 781 602 782 601 782 599 783 598 783 596 784 595 784 593 785 592 785 590 786 589 786 587 787 586 787 583 788 582 788 579 789 578 789 575 790 574 790 571 791 570 791 567 792 566 792 562 793 561 793 557 794 556 794 550 795 549 795 543 796 542 796 534 797 533 797 520 798 519 798 494 797 493 797 479 796 478 796 471 795 470 795 463 794 462 794 457 793 456 793 452 792 451 792 447 791 446 791 443 790 442 790 438 789 437 789 434 788 433 788 431 787 430 787 427 786 426 786 424 785 423 785 421 784 420 784 418 783 417 783 415 782 414 782 412 781 411 781 409 780 408 780 407 779 406 779 404 778 403 778 401 777 400 777 399 776 398 776 396 775 395 775 394 774 393 774 392 773 391 773 390 772 389 772 387 771 386 771 385 770 384 770 383 769 382 769 381 768 380 768 379 767 378 767 377 766 376 766 375 764 373 764 372 763 371 763 370 762 369 762 368 761 367 761 366 759 364 759 363 758 362 758 361 756 359 756 358 755 357 755 356 753 354 753 353 751 351 751 350 749 348 749 347 747 345 747 344 745 342 745 341 742 338 742 337 739 334 739 333 735 329 735 328 730 323 730 322 723 315 723 314 704 295 703 295 695 287 694 287 690 283 689 283 686 280 685 280 682 277 681 277 679 275 678 275 676 273 675 273 672 270 671 270 669 268 668 268 667 267 666 267 664 265 663 265 661 263 660 263 659 262 658 262 656 260 655 260 654 259 653 259 652 258 651 258 650 257 649 257 647 255 646 255 645 254 644 254 643 253 642 253 641 252 640 252 639 251 638 251 637 250 636 250 635 249 634 249 633 248 632 248 631 247 629 247 628 246 627 246 626 245 625 245 624 244 623 244 622 243 620 243 619 242 618 242 617 241 615 241 614 240 612 240 611 239 610 239 609 238 607 238 606 237 604 237 603 236 601 236 600 235 598 235 597 234 594 234 593 233 591 233 590 232 587 232 586 231 583 231 582 230 579 230 578 229 575 229 574 228 570 228 569 227 565 227 564 226 559 226 558 225 552 225 551 224 544 224 543 223 531 223 530 222 Z M 521 570 522 569 523 569 524 570 524 572 525 573 525 576 526 577 526 579 527 580 527 583 528 584 528 586 529 587 529 590 530 591 530 594 531 595 531 597 532 598 532 601 533 602 533 604 534 605 534 607 535 608 535 611 536 612 536 614 537 615 537 617 538 618 538 621 539 622 539 624 540 625 540 627 541 628 541 631 542 632 542 634 543 635 543 638 544 639 544 641 545 642 545 644 546 645 546 648 547 649 547 651 548 652 548 654 549 655 549 658 550 659 550 661 551 662 551 664 552 665 552 667 553 668 553 671 554 672 554 674 555 675 555 677 556 678 556 680 557 681 557 684 558 685 558 687 559 688 559 690 560 691 560 694 561 695 561 697 562 698 562 700 563 701 563 704 564 705 564 707 565 708 565 710 566 711 566 714 567 715 567 717 568 718 568 721 569 722 569 724 570 725 570 728 571 729 571 731 572 732 572 735 573 736 573 738 574 739 574 742 575 743 575 745 576 746 576 748 577 749 577 752 578 753 578 755 579 756 579 758 580 759 580 762 581 763 580 764 579 764 578 765 575 765 574 766 571 766 570 767 566 767 565 768 562 768 561 769 556 769 555 770 550 770 549 771 543 771 542 772 533 772 532 773 516 773 515 774 504 774 503 773 489 773 488 772 480 772 479 771 473 771 472 770 467 770 466 769 462 769 461 768 457 768 456 767 453 767 452 766 449 766 448 765 445 765 443 763 444 762 444 761 445 760 445 757 446 756 446 755 447 754 447 751 448 750 448 748 449 747 449 745 450 744 450 741 451 740 451 738 452 737 452 734 453 733 453 731 454 730 454 727 455 726 455 724 456 723 456 720 457 719 457 717 458 716 458 714 459 713 459 710 460 709 460 707 461 706 461 704 462 703 462 700 463 699 463 697 464 696 464 694 465 693 465 690 466 689 466 687 467 686 467 684 468 683 468 680 469 679 469 677 470 676 470 673 471 672 471 670 472 669 472 666 473 665 473 663 474 662 474 660 475 659 475 656 476 655 476 653 477 652 477 650 478 649 478 646 479 645 479 643 480 642 480 640 481 639 481 636 482 635 482 633 483 632 483 629 484 628 484 626 485 625 485 623 486 622 486 619 487 618 487 616 488 615 488 612 489 611 489 609 490 608 490 606 491 605 491 602 492 601 492 599 493 598 493 595 494 594 494 592 495 591 495 588 496 587 496 585 497 584 497 582 498 581 498 578 499 577 499 575 500 574 500 572 501 571 517 571 518 570 Z M 558 552 560 552 566 558 567 558 574 565 575 565 582 572 583 572 591 580 592 580 600 588 601 588 609 596 610 596 618 604 619 604 628 613 629 613 637 621 638 621 639 622 639 623 640 623 646 629 647 629 655 637 656 637 665 646 666 646 674 654 675 654 684 663 685 663 693 671 694 671 703 680 704 680 709 685 708 686 708 687 688 707 687 707 681 713 680 713 677 716 676 716 672 720 671 720 669 722 668 722 665 725 664 725 662 727 661 727 659 729 658 729 656 731 655 731 653 733 652 733 650 735 649 735 648 736 647 736 645 738 644 738 643 739 642 739 641 740 640 740 638 742 637 742 636 743 635 743 634 744 633 744 632 745 631 745 630 746 629 746 628 747 627 747 626 748 625 748 624 749 622 749 621 750 620 750 619 751 618 751 617 752 615 752 614 753 612 753 611 754 610 754 609 755 607 755 606 756 605 756 604 757 602 757 601 758 599 758 598 759 595 759 594 758 594 756 593 755 593 752 592 751 592 749 591 748 591 746 590 745 590 742 589 741 589 739 588 738 588 735 587 734 587 732 586 731 586 729 585 728 585 725 584 724 584 722 583 721 583 719 582 718 582 715 581 714 581 712 580 711 580 708 579 707 579 705 578 704 578 702 577 701 577 698 576 697 576 695 575 694 575 691 574 690 574 688 573 687 573 685 572 684 572 681 571 680 571 678 570 677 570 675 569 674 569 671 568 670 568 668 567 667 567 665 566 664 566 661 565 660 565 658 564 657 564 655 563 654 563 651 562 650 562 648 561 647 561 645 560 644 560 642 559 641 559 638 558 637 558 635 557 634 557 631 556 630 556 628 555 627 555 625 554 624 554 621 553 620 553 618 552 617 552 615 551 614 551 611 550 610 550 608 549 607 549 604 548 603 548 601 547 600 547 597 546 596 546 594 545 593 545 590 544 589 544 587 543 586 543 584 542 583 542 580 541 579 541 577 540 576 540 574 539 573 539 570 538 569 538 567 537 566 538 565 539 565 540 564 541 564 542 563 543 563 545 561 546 561 547 560 548 560 550 558 551 558 553 556 554 556 Z M 464 552 465 552 468 555 469 555 472 558 473 558 475 560 476 560 477 561 478 561 479 562 480 562 481 563 482 563 483 564 484 564 486 566 486 570 485 571 485 574 484 575 484 578 483 579 483 581 482 582 482 584 481 585 481 588 480 589 480 591 479 592 479 595 478 596 478 598 477 599 477 602 476 603 476 605 475 606 475 608 474 609 474 612 473 613 473 615 472 616 472 619 471 620 471 622 470 623 470 626 469 627 469 629 468 630 468 633 467 634 467 636 466 637 466 639 465 640 465 643 464 644 464 646 463 647 463 649 462 650 462 652 461 653 461 656 460 657 460 659 459 660 459 662 458 663 458 666 457 667 457 669 456 670 456 672 455 673 455 675 454 676 454 679 453 680 453 682 452 683 452 685 451 686 451 689 450 690 450 692 449 693 449 695 448 696 448 699 447 700 447 702 446 703 446 706 445 707 445 709 444 710 444 713 443 714 443 716 442 717 442 719 441 720 441 723 440 724 440 726 439 727 439 729 438 730 438 733 437 734 437 736 436 737 436 739 435 740 435 743 434 744 434 746 433 747 433 749 432 750 432 752 431 753 431 755 430 756 430 759 429 760 428 760 427 759 425 759 424 758 422 758 421 757 419 757 418 756 417 756 416 755 414 755 413 754 412 754 411 753 409 753 408 752 407 752 406 751 405 751 404 750 403 750 402 749 401 749 400 748 399 748 398 747 397 747 396 746 394 746 393 745 392 745 391 744 390 744 388 742 387 742 386 741 385 741 384 740 383 740 381 738 380 738 379 737 378 737 376 735 375 735 374 734 373 734 371 732 370 732 368 730 367 730 365 728 364 728 362 726 361 726 358 723 357 723 354 720 353 720 350 717 349 717 345 713 344 713 338 707 337 707 317 687 317 685 322 680 323 680 331 672 332 672 343 661 344 661 353 652 354 652 364 642 365 642 375 632 376 632 385 623 386 623 396 613 397 613 406 604 407 604 417 594 418 594 427 585 428 585 438 575 439 575 449 565 450 565 457 558 458 558 Z M 575 521 576 520 581 520 582 521 589 521 590 522 596 522 597 523 603 523 604 524 610 524 611 525 618 525 619 526 626 526 627 527 633 527 634 528 640 528 641 529 647 529 648 530 654 530 655 531 661 531 662 532 668 532 669 533 675 533 676 534 683 534 684 535 690 535 691 536 697 536 698 537 704 537 705 538 712 538 713 539 719 539 720 540 725 540 726 541 733 541 734 542 740 542 741 543 747 543 748 544 754 544 755 545 762 545 763 546 771 546 772 547 774 547 775 548 775 550 774 551 774 555 773 556 773 560 772 561 772 565 771 566 771 569 770 570 770 573 769 574 769 578 768 579 768 581 767 582 767 585 766 586 766 588 765 589 765 591 764 592 764 594 763 595 763 597 762 598 762 599 761 600 761 602 760 603 760 605 759 606 759 607 758 608 758 610 757 611 757 612 756 613 756 614 755 615 755 616 754 617 754 619 753 620 753 621 752 622 752 623 751 624 751 625 750 626 750 627 749 628 749 629 748 630 748 631 746 633 746 634 745 635 745 636 744 637 744 638 742 640 742 641 741 642 741 643 739 645 739 646 738 647 738 648 736 650 736 651 734 653 734 654 732 656 732 657 730 659 730 660 727 663 727 664 725 666 725 667 721 671 720 670 721 671 721 672 720 673 718 673 714 669 713 669 706 662 705 662 698 655 697 655 689 647 688 647 679 638 678 638 669 629 668 629 660 621 659 621 652 614 651 614 643 606 642 606 635 599 634 599 625 590 624 590 616 582 615 582 606 573 605 573 597 565 596 565 588 557 587 557 579 549 578 549 572 543 571 543 569 541 569 539 570 538 570 537 571 536 571 535 572 534 572 533 573 532 573 531 574 530 574 527 575 526 Z M 441 521 442 520 448 520 449 521 449 523 450 524 450 526 451 527 451 529 452 530 452 531 453 532 453 533 454 534 454 535 456 537 456 538 457 539 453 543 452 543 446 549 445 549 436 558 435 558 426 567 425 567 415 577 414 577 403 588 402 588 393 597 392 597 383 606 382 606 373 615 372 615 364 623 363 623 354 632 353 632 343 642 342 642 334 650 333 650 324 659 323 659 314 668 313 668 307 674 306 674 302 670 302 669 299 666 299 665 297 663 297 662 294 659 294 658 292 656 292 655 290 653 290 652 288 650 288 649 286 647 286 646 285 645 285 644 283 642 283 641 282 640 282 639 280 637 280 636 279 635 279 634 278 633 278 632 277 631 277 630 276 629 276 628 275 627 275 626 274 625 274 624 273 623 273 622 272 621 272 620 271 619 271 618 270 617 270 616 269 615 269 614 268 613 268 611 267 610 267 609 266 608 266 606 265 605 265 604 264 603 264 601 263 600 263 599 262 598 262 596 261 595 261 593 260 592 260 590 259 589 259 587 258 586 258 583 257 582 257 580 256 579 256 577 255 576 255 573 254 572 254 569 253 568 253 564 252 563 252 559 251 558 251 554 250 553 250 548 251 547 253 547 254 546 260 546 261 545 267 545 268 544 274 544 275 543 282 543 283 542 289 542 290 541 296 541 297 540 304 540 305 539 311 539 312 538 318 538 319 537 325 537 326 536 333 536 334 535 340 535 341 534 348 534 349 533 355 533 356 532 363 532 364 531 369 531 370 530 377 530 378 529 384 529 385 528 391 528 392 527 398 527 399 526 405 526 406 525 412 525 413 524 419 524 420 523 426 523 427 522 433 522 434 521 Z M 505 460 506 459 518 459 519 460 524 460 525 461 527 461 528 462 530 462 531 463 532 463 533 464 534 464 535 465 536 465 537 466 538 466 541 469 542 469 548 475 548 476 551 479 551 480 553 482 553 483 554 484 554 485 555 486 555 487 556 488 556 490 557 491 557 494 558 495 558 500 559 501 559 508 558 509 558 514 557 515 557 518 556 519 556 521 555 522 555 523 554 524 554 525 553 526 553 527 552 528 552 529 550 531 550 532 540 542 539 542 536 545 535 545 534 546 533 546 532 547 531 547 530 548 529 548 528 549 526 549 525 550 522 550 521 551 516 551 515 552 511 552 510 551 504 551 503 550 499 550 498 549 496 549 495 548 494 548 493 547 492 547 491 546 490 546 489 545 488 545 487 544 486 544 482 540 481 540 478 537 478 536 474 532 474 531 473 530 473 529 471 527 471 525 470 524 470 523 469 522 469 520 468 519 468 517 467 516 467 510 466 509 466 501 467 500 467 495 468 494 468 491 469 490 469 488 470 487 470 486 471 485 471 483 472 482 472 481 475 478 475 477 484 468 485 468 487 466 488 466 489 465 490 465 491 464 492 464 493 463 494 463 495 462 497 462 498 461 500 461 501 460 Z M 753 401 754 400 755 400 756 401 756 402 757 403 757 404 758 405 758 406 759 407 759 409 760 410 760 411 761 412 761 414 762 415 762 417 763 418 763 420 764 421 764 422 765 423 765 426 766 427 766 429 767 430 767 432 768 433 768 436 769 437 769 440 770 441 770 444 771 445 771 448 772 449 772 452 773 453 773 457 774 458 774 463 775 464 775 469 776 470 776 477 777 478 777 491 778 492 778 519 777 520 777 532 776 533 775 533 774 532 770 532 769 531 762 531 761 530 755 530 754 529 748 529 747 528 740 528 739 527 733 527 732 526 725 526 724 525 718 525 717 524 711 524 710 523 704 523 703 522 696 522 695 521 689 521 688 520 682 520 681 519 675 519 674 518 669 518 668 517 662 517 661 516 655 516 654 515 647 515 646 514 640 514 639 513 632 513 631 512 625 512 624 511 617 511 616 510 609 510 608 509 602 509 601 508 595 508 594 507 587 507 586 506 582 506 581 505 580 505 578 503 578 500 577 499 577 494 576 493 576 487 577 486 578 486 579 485 580 485 581 484 582 484 583 483 584 483 585 482 586 482 587 481 588 481 589 480 590 480 591 479 593 479 594 478 595 478 596 477 597 477 598 476 599 476 600 475 601 475 602 474 603 474 604 473 605 473 606 472 607 472 608 471 609 471 610 470 611 470 612 469 613 469 614 468 615 468 616 467 617 467 618 466 619 466 620 465 621 465 622 464 623 464 624 463 625 463 626 462 627 462 628 461 630 461 631 460 632 460 633 459 634 459 635 458 636 458 637 457 638 457 639 456 640 456 641 455 642 455 643 454 644 454 645 453 646 453 647 452 648 452 649 451 650 451 651 450 652 450 653 449 654 449 655 448 656 448 657 447 658 447 659 446 660 446 661 445 662 445 663 444 664 444 665 443 667 443 668 442 669 442 670 441 671 441 672 440 673 440 674 439 675 439 676 438 677 438 678 437 679 437 680 436 681 436 682 435 683 435 684 434 685 434 686 433 687 433 688 432 689 432 690 431 691 431 692 430 693 430 694 429 695 429 696 428 697 428 698 427 700 427 701 426 702 426 703 425 704 425 705 424 706 424 707 423 708 423 709 422 710 422 711 421 712 421 713 420 714 420 715 419 716 419 717 418 718 418 719 417 720 417 721 416 722 416 723 415 724 415 725 414 727 414 728 413 729 413 730 412 731 412 732 411 733 411 734 410 735 410 736 409 737 409 738 408 739 408 740 407 741 407 742 406 743 406 744 405 745 405 746 404 747 404 748 403 749 403 750 402 751 402 752 401 Z M 268 401 269 400 271 400 272 401 273 401 274 402 275 402 276 403 277 403 278 404 279 404 280 405 281 405 282 406 283 406 284 407 285 407 286 408 287 408 288 409 289 409 290 410 291 410 292 411 293 411 294 412 295 412 296 413 297 413 298 414 299 414 300 415 302 415 304 417 306 417 307 418 308 418 309 419 310 419 311 420 312 420 313 421 314 421 315 422 316 422 317 423 318 423 319 424 320 424 321 425 322 425 323 426 324 426 325 427 326 427 327 428 328 428 329 429 330 429 331 430 332 430 333 431 334 431 335 432 336 432 337 433 338 433 339 434 340 434 341 435 342 435 343 436 344 436 345 437 346 437 347 438 348 438 349 439 350 439 351 440 352 440 353 441 354 441 355 442 356 442 357 443 358 443 359 444 361 444 363 446 365 446 366 447 367 447 368 448 369 448 370 449 371 449 372 450 373 450 374 451 375 451 376 452 377 452 378 453 379 453 380 454 381 454 382 455 383 455 384 456 385 456 386 457 387 457 388 458 389 458 390 459 391 459 392 460 393 460 394 461 395 461 396 462 397 462 398 463 399 463 400 464 401 464 402 465 403 465 404 466 405 466 406 467 407 467 408 468 409 468 410 469 411 469 412 470 413 470 414 471 415 471 416 472 417 472 418 473 419 473 420 474 421 474 422 475 423 475 424 476 425 476 426 477 428 477 429 478 430 478 431 479 432 479 433 480 434 480 435 481 436 481 437 482 438 482 439 483 440 483 441 484 442 484 443 485 444 485 445 486 446 486 449 489 449 491 448 492 448 501 447 502 447 504 446 505 444 505 443 506 437 506 436 507 430 507 429 508 422 508 421 509 415 509 414 510 408 510 407 511 401 511 400 512 394 512 393 513 386 513 385 514 379 514 378 515 372 515 371 516 365 516 364 517 357 517 356 518 350 518 349 519 343 519 342 520 336 520 335 521 329 521 328 522 322 522 321 523 315 523 314 524 308 524 307 525 300 525 299 526 293 526 292 527 285 527 284 528 278 528 277 529 271 529 270 530 263 530 262 531 256 531 255 532 250 532 249 533 248 532 248 529 247 528 247 513 246 512 246 500 247 499 247 483 248 482 248 474 249 473 249 467 250 466 250 461 251 460 251 455 252 454 252 451 253 450 253 446 254 445 254 442 255 441 255 438 256 437 256 434 257 433 257 431 258 430 258 428 259 427 259 425 260 424 260 422 261 421 261 419 262 418 262 416 263 415 263 414 264 413 264 411 265 410 265 409 266 408 266 406 267 405 267 404 268 403 Z M 662 289 663 289 664 290 665 290 666 291 667 291 670 294 671 294 674 297 675 297 679 301 680 301 685 306 686 306 695 315 696 315 706 325 706 326 714 334 714 335 719 340 719 341 723 345 723 346 726 349 726 350 729 353 729 354 731 356 731 357 734 360 734 361 735 362 735 363 737 365 737 366 739 368 739 369 740 370 740 371 742 373 742 374 743 375 743 376 744 377 744 378 746 380 746 381 747 382 747 383 748 384 748 385 749 386 747 388 746 388 745 389 744 389 743 390 742 390 741 391 739 391 738 392 737 392 736 393 735 393 734 394 733 394 732 395 731 395 730 396 729 396 728 397 727 397 726 398 725 398 724 399 723 399 722 400 721 400 720 401 719 401 718 402 717 402 716 403 715 403 714 404 712 404 711 405 710 405 709 406 708 406 707 407 706 407 705 408 704 408 703 409 702 409 701 410 700 410 699 411 698 411 697 412 696 412 695 413 694 413 693 414 692 414 691 415 689 415 688 416 687 416 686 417 685 417 684 418 683 418 682 419 681 419 680 420 679 420 678 421 677 421 676 422 675 422 674 423 673 423 672 424 671 424 670 425 669 425 668 426 667 426 666 427 665 427 664 428 663 428 662 429 661 429 660 430 659 430 658 431 656 431 655 432 654 432 653 433 652 433 651 434 650 434 649 435 648 435 647 436 646 436 645 437 644 437 643 438 642 438 641 439 640 439 639 440 638 440 637 441 636 441 635 442 634 442 633 443 632 443 631 444 630 444 629 445 628 445 627 446 626 446 625 447 624 447 623 448 621 448 620 449 619 449 618 450 617 450 616 451 615 451 614 452 613 452 612 453 611 453 610 454 609 454 608 455 607 455 606 456 605 456 604 457 603 457 602 458 601 458 600 459 599 459 598 460 597 460 596 461 595 461 594 462 593 462 592 463 591 463 590 464 589 464 588 465 587 465 586 466 585 466 584 467 583 467 582 468 581 468 580 469 579 469 578 470 577 470 576 471 575 471 574 472 572 472 571 473 570 473 569 472 569 471 567 469 567 468 565 466 565 465 556 456 555 456 553 454 553 451 555 449 555 448 556 447 556 446 558 444 558 443 560 441 560 440 561 439 561 438 563 436 563 435 565 433 565 432 567 430 567 429 570 426 570 425 572 423 572 422 574 420 574 419 576 417 576 416 578 414 578 413 580 411 580 410 582 408 582 407 585 404 585 403 587 401 587 400 589 398 589 397 591 395 591 394 593 392 593 391 595 389 595 388 597 386 597 385 599 383 599 382 601 380 601 379 604 376 604 375 606 373 606 372 608 370 608 369 610 367 610 366 612 364 612 363 614 361 614 360 616 358 616 357 618 355 618 354 620 352 620 351 621 350 621 349 624 346 624 345 626 343 626 342 628 340 628 339 630 337 630 336 632 334 632 333 635 330 635 329 637 327 637 326 639 324 639 323 641 321 641 320 643 318 643 317 645 315 645 314 647 312 647 311 649 309 649 308 651 306 651 305 653 303 653 302 655 300 655 299 657 297 657 296 659 294 659 293 660 292 660 291 Z M 361 289 362 288 365 291 365 292 366 293 366 294 368 296 368 297 370 299 370 300 372 302 372 303 374 305 374 306 376 308 376 309 378 311 378 312 381 315 381 316 383 318 383 319 384 320 384 321 387 324 387 325 389 327 389 328 391 330 391 331 393 333 393 334 396 337 396 338 398 340 398 341 399 342 399 343 401 345 401 346 403 348 403 349 405 351 405 352 407 354 407 355 409 357 409 358 410 359 410 360 413 363 413 364 415 366 415 367 417 369 417 370 419 372 419 373 422 376 422 377 424 379 424 380 426 382 426 383 429 386 429 387 431 389 431 390 433 392 433 393 435 395 435 396 438 399 438 400 440 402 440 403 442 405 442 406 444 408 444 409 446 411 446 412 448 414 448 415 450 417 450 418 452 420 452 421 455 424 455 425 457 427 457 428 459 430 459 431 461 433 461 434 463 436 463 437 466 440 466 441 468 443 468 444 470 446 470 447 472 449 472 450 473 451 473 452 463 462 463 463 461 465 461 466 459 468 459 469 457 471 457 472 455 474 453 474 452 473 451 473 450 472 449 472 448 471 447 471 446 470 445 470 444 469 443 469 442 468 441 468 440 467 439 467 438 466 437 466 436 465 435 465 434 464 433 464 432 463 431 463 430 462 429 462 428 461 427 461 426 460 425 460 424 459 423 459 422 458 421 458 420 457 419 457 418 456 417 456 416 455 414 455 412 453 411 453 410 452 409 452 408 451 407 451 406 450 405 450 404 449 403 449 402 448 400 448 399 447 398 447 397 446 396 446 395 445 394 445 393 444 392 444 391 443 390 443 389 442 388 442 387 441 386 441 385 440 384 440 383 439 382 439 381 438 380 438 379 437 378 437 377 436 376 436 375 435 374 435 373 434 372 434 371 433 370 433 369 432 368 432 367 431 366 431 365 430 364 430 363 429 362 429 361 428 360 428 359 427 358 427 357 426 356 426 355 425 354 425 353 424 352 424 351 423 349 423 348 422 347 422 345 420 344 420 343 419 341 419 339 417 337 417 336 416 335 416 334 415 333 415 332 414 331 414 330 413 329 413 328 412 327 412 326 411 325 411 324 410 323 410 322 409 321 409 320 408 319 408 318 407 317 407 316 406 315 406 314 405 313 405 312 404 311 404 310 403 309 403 308 402 307 402 306 401 305 401 304 400 303 400 302 399 301 399 300 398 299 398 298 397 297 397 296 396 295 396 294 395 293 395 292 394 291 394 290 393 289 393 288 392 287 392 286 391 285 391 284 390 283 390 282 389 281 389 280 388 279 388 278 387 277 387 276 386 276 385 277 384 277 383 278 382 278 381 279 380 279 379 280 378 280 377 282 375 282 374 283 373 283 372 284 371 284 370 286 368 286 367 288 365 288 364 290 362 290 361 292 359 292 358 294 356 294 355 296 353 296 352 299 349 299 348 302 345 302 344 306 340 306 339 311 334 311 333 320 324 320 323 332 311 333 311 339 305 340 305 345 300 346 300 350 296 351 296 354 293 355 293 358 290 359 290 360 289 Z M 519 243 520 242 533 242 534 243 544 243 545 244 552 244 553 245 558 245 559 246 564 246 565 247 569 247 570 248 573 248 574 249 577 249 578 250 581 250 582 251 584 251 585 252 588 252 589 253 591 253 592 254 594 254 595 255 597 255 598 256 600 256 601 257 603 257 604 258 605 258 606 259 608 259 609 260 611 260 612 261 613 261 614 262 615 262 616 263 618 263 619 264 620 264 621 265 622 265 623 266 624 266 625 267 627 267 628 268 629 268 630 269 631 269 632 270 633 270 634 271 635 271 636 272 637 272 638 273 639 273 640 274 641 274 642 275 643 275 645 277 646 277 648 279 649 279 650 280 649 281 649 282 648 283 648 284 646 286 646 287 644 289 644 290 643 291 643 292 641 294 641 295 639 297 639 298 637 300 637 301 635 303 635 304 633 306 633 307 631 309 631 310 629 312 629 313 627 315 627 316 625 318 625 319 622 322 622 323 620 325 620 326 618 328 618 329 616 331 616 332 614 334 614 335 612 337 612 338 610 340 610 341 607 344 607 345 605 347 605 348 603 350 603 351 601 353 601 354 599 356 599 357 597 359 597 360 595 362 595 363 593 365 593 366 591 368 591 369 589 371 589 372 587 374 587 375 585 377 585 378 583 380 583 381 581 383 581 384 579 386 579 387 577 389 577 390 575 392 575 393 573 395 573 396 571 398 571 399 568 402 568 403 566 405 566 406 564 408 564 409 562 411 562 412 560 414 560 415 558 417 558 418 556 420 556 421 554 423 554 424 552 426 552 427 550 429 550 430 548 432 548 433 546 435 546 436 544 438 544 439 543 440 543 441 541 443 541 444 540 445 538 445 537 444 536 444 535 443 533 443 532 442 531 442 530 441 527 441 526 440 523 440 522 439 520 439 519 438 520 437 520 436 519 435 519 406 520 405 520 402 519 401 520 400 519 399 519 398 520 397 519 396 519 395 520 394 520 392 519 391 519 384 520 383 520 244 Z M 488 243 489 242 504 242 505 243 505 438 504 439 501 439 500 440 496 440 495 441 493 441 492 442 490 442 489 443 488 443 486 445 485 444 485 443 483 441 483 440 481 438 481 437 479 435 479 434 477 432 477 431 475 429 475 428 473 426 473 425 470 422 470 421 469 420 469 419 466 416 466 415 464 413 464 412 462 410 462 409 460 407 460 406 458 404 458 403 456 401 456 400 453 397 453 396 451 394 451 393 449 391 449 390 447 388 447 387 444 384 444 383 442 381 442 380 440 378 440 377 438 375 438 374 436 372 436 371 433 368 433 367 431 365 431 364 429 362 429 361 427 359 427 358 424 355 424 354 422 352 422 351 420 349 420 348 418 346 418 345 417 344 417 343 415 341 415 340 413 338 413 337 411 335 411 334 409 332 409 331 407 329 407 328 405 326 405 325 403 323 403 322 401 320 401 319 399 317 399 316 397 314 397 313 395 311 395 310 392 307 392 306 391 305 391 304 389 302 389 301 387 299 387 298 385 296 385 295 383 293 383 292 381 290 381 289 379 287 379 286 377 284 377 283 375 281 375 280 378 277 379 277 381 275 382 275 383 274 384 274 385 273 386 273 387 272 388 272 389 271 390 271 391 270 392 270 393 269 394 269 395 268 396 268 397 267 398 267 399 266 400 266 401 265 402 265 403 264 405 264 406 263 407 263 408 262 409 262 410 261 411 261 412 260 414 260 415 259 416 259 417 258 419 258 420 257 421 257 422 256 424 256 425 255 427 255 428 254 430 254 431 253 434 253 435 252 437 252 438 251 441 251 442 250 445 250 446 249 449 249 450 248 454 248 455 247 459 247 460 246 465 246 466 245 471 245 472 244 478 244 479 243 Z" />
<path d="M 543 221 Z" />
<path d="M 539 221 541 221 Z" />
<path d="M 482 221 484 221 Z" />
<path d="M 758 214 Z" />
<path d="M 582 207 Z" />
<path d="M 739 206 Z" />
<path d="M 459 204 Z" />
<path d="M 554 202 Z" />
<path d="M 470 202 471 202 Z" />
<path d="M 508 199 509 199 Z" />
<path d="M 318 198 Z" />
<path d="M 680 178 Z" />
<path d="M 737 177 Z" />
<path d="M 688 168 Z" />
<path d="M 619 143 620 143 Z" />
<path d="M 407 142 Z" />
<path d="M 357 141 Z" />
<path d="M 379 124 Z" />
<path d="M 438 121 Z" />
<path d="M 410 115 Z" />
<path d="M 494 104 493 105 482 105 481 106 472 106 471 107 463 107 462 108 455 108 454 109 453 109 450 112 450 113 447 116 447 117 441 123 436 123 435 122 433 122 432 121 431 121 430 120 429 120 428 119 427 119 426 118 425 118 424 117 423 117 422 116 413 116 412 117 410 117 409 118 406 118 405 119 402 119 401 120 399 120 398 121 395 121 394 122 392 122 391 123 389 123 388 124 385 124 384 125 382 125 381 126 379 126 375 130 375 131 374 132 374 133 372 135 372 137 370 139 370 140 369 141 369 142 367 144 366 144 365 145 362 145 361 144 358 144 357 143 355 143 354 142 353 142 352 141 350 141 349 140 343 140 342 141 341 141 340 142 339 142 338 143 337 143 336 144 335 144 334 145 332 145 330 147 329 147 328 148 327 148 326 149 325 149 324 150 323 150 322 151 321 151 320 152 319 152 318 153 317 153 316 154 315 154 314 155 313 155 312 156 311 156 309 158 308 158 307 159 306 159 305 160 305 162 304 163 304 165 303 166 303 169 302 170 302 172 301 173 301 175 298 178 297 178 296 179 291 179 290 178 276 178 274 180 273 180 270 183 269 183 265 187 264 187 260 191 259 191 253 197 252 197 246 203 245 203 238 210 238 216 239 217 239 224 238 225 238 226 237 227 236 227 235 228 231 228 230 229 221 229 220 230 218 230 217 231 216 231 214 233 214 234 207 241 207 242 202 247 202 248 197 253 197 254 193 258 193 259 189 263 189 264 188 265 188 284 185 287 184 287 183 288 182 288 181 289 179 289 178 290 175 290 174 291 172 291 171 292 169 292 167 294 167 295 166 296 166 297 165 298 165 299 163 301 163 302 162 303 162 304 161 305 161 306 160 307 160 308 159 309 159 310 158 311 158 312 157 313 157 314 155 316 155 317 154 318 154 319 153 320 153 321 152 322 152 323 151 324 151 325 150 326 150 327 149 328 149 329 148 330 148 331 147 332 147 333 146 334 146 339 147 340 147 342 148 343 148 345 149 346 149 347 150 348 150 350 151 351 151 352 150 353 150 355 148 357 147 357 145 359 144 359 142 361 141 361 140 362 139 362 137 364 136 364 131 369 131 371 130 372 130 374 129 375 129 378 128 379 128 381 127 382 127 384 126 385 126 388 125 389 125 391 124 392 124 395 123 396 123 399 122 400 122 402 121 403 121 406 120 407 120 412 121 413 121 414 122 415 122 416 123 417 123 418 124 419 124 420 125 421 125 422 126 423 126 424 127 425 127 428 126 429 126 430 124 432 124 433 117 440 116 440 116 441 113 444 113 445 112 446 112 449 111 450 111 458 110 459 110 471 109 472 109 490 110 491 110 492 113 495 113 496 117 500 117 501 119 503 119 508 116 511 116 512 114 514 114 515 111 518 111 519 110 520 110 521 108 523 108 536 109 537 109 546 110 547 110 554 111 555 111 560 112 561 112 566 113 567 113 569 115 571 115 572 116 572 119 575 120 575 122 577 123 577 126 580 126 581 127 582 127 584 126 585 126 587 125 588 125 589 124 590 124 591 123 592 123 593 122 594 122 595 121 596 121 598 120 599 120 601 119 602 119 603 120 604 120 606 121 607 121 610 122 611 122 614 123 615 123 618 124 619 124 621 125 622 125 625 126 626 126 628 127 629 127 632 128 633 128 635 129 636 129 638 130 639 130 641 131 642 131 643 134 646 135 646 136 647 137 647 138 648 139 648 140 649 141 649 142 650 143 650 144 651 145 651 147 653 147 654 148 655 148 658 147 659 147 661 146 662 146 664 145 665 145 669 144 670 144 675 145 676 145 677 146 678 146 680 148 682 148 684 149 685 149 686 150 687 150 688 151 689 151 690 152 691 152 692 153 693 153 694 154 695 154 696 155 697 155 698 157 700 157 701 158 702 158 703 159 704 159 705 160 706 160 707 162 709 162 710 163 711 163 712 165 714 165 715 166 715 167 716 168 716 169 717 171 717 172 718 176 718 177 719 179 719 182 722 182 723 183 724 183 737 184 738 184 743 185 744 185 745 186 746 186 747 189 750 189 751 193 755 193 756 196 759 196 760 200 764 200 765 205 770 205 771 208 774 208 775 209 775 211 777 212 777 213 778 214 778 215 779 217 779 218 780 220 780 221 781 223 781 225 783 225 784 223 786 222 786 221 787 220 787 219 788 218 788 216 790 215 790 214 791 213 791 211 793 210 793 208 795 207 795 201 801 200 801 200 802 199 803 198 803 198 804 193 809 193 810 191 812 191 813 190 814 190 815 189 816 189 817 188 818 188 819 187 820 187 822 186 823 186 826 185 827 185 842 186 843 186 845 187 846 187 848 188 849 188 850 189 851 189 852 190 853 190 854 191 855 191 856 192 857 191 858 188 858 187 859 177 859 176 860 167 860 166 861 160 861 159 862 153 862 152 863 149 863 148 864 146 864 145 865 143 865 142 866 141 866 137 870 137 872 138 873 138 874 139 874 141 876 142 876 143 877 146 877 147 878 150 878 151 879 156 879 157 880 162 880 163 881 171 881 172 882 181 882 182 883 192 883 193 884 206 884 207 885 220 885 221 886 236 886 237 887 252 887 253 888 270 888 271 889 291 889 292 890 310 890 311 891 334 891 335 892 362 892 363 893 394 893 395 894 436 894 437 895 591 895 592 894 633 894 634 893 664 893 665 892 689 892 690 891 712 891 713 890 735 890 736 889 753 889 754 888 769 888 770 887 787 887 788 886 802 886 803 885 816 885 817 884 828 884 829 883 840 883 841 882 850 882 851 881 859 881 860 880 865 880 866 879 871 879 872 878 875 878 876 877 879 877 880 876 881 876 882 875 883 875 886 872 886 870 885 869 885 868 884 867 883 867 882 866 881 866 880 865 879 865 878 864 876 864 875 863 871 863 870 862 865 862 864 861 857 861 856 860 845 860 844 859 834 859 833 858 834 857 834 856 836 854 836 853 837 852 837 851 838 850 838 849 839 848 839 847 840 846 840 843 841 842 841 836 842 835 842 833 841 832 841 827 840 826 840 824 839 823 839 821 838 820 838 819 837 818 837 817 835 815 835 814 832 811 832 810 826 804 825 804 821 800 820 800 818 798 817 798 815 796 814 796 812 794 811 794 810 793 809 793 808 792 807 792 806 791 805 791 804 790 803 790 802 789 800 789 799 788 798 788 797 787 798 786 798 785 800 783 801 783 802 782 803 782 804 781 805 781 806 780 807 780 808 779 809 779 810 778 811 778 813 776 814 776 817 773 817 772 820 769 820 768 824 764 824 763 827 760 827 759 831 755 831 754 834 751 834 750 837 747 837 746 841 742 841 741 843 739 843 731 842 730 842 725 841 724 841 723 842 722 842 721 845 718 847 718 848 717 850 717 851 716 853 716 854 715 855 715 856 714 857 714 858 713 859 713 861 711 861 710 862 709 862 708 863 707 863 706 865 704 865 703 866 702 866 701 867 700 867 699 868 698 868 697 869 696 869 695 870 694 870 693 871 692 871 691 872 690 872 689 873 688 873 687 874 686 874 685 875 684 875 683 876 682 876 681 877 680 877 679 878 678 878 677 879 676 879 675 880 674 880 673 881 672 881 669 880 668 880 666 879 665 879 663 878 662 878 661 877 660 877 657 876 656 876 654 877 653 877 652 880 649 881 649 883 647 884 647 886 645 887 645 888 644 889 644 891 642 892 642 895 639 895 638 896 637 896 634 897 633 897 630 898 629 898 626 899 625 899 622 900 621 900 618 901 617 901 614 902 613 902 610 903 609 903 606 904 605 904 602 905 601 905 598 906 597 906 596 905 595 905 594 904 593 904 592 903 591 903 590 902 589 902 588 900 586 900 585 899 584 899 583 898 582 898 579 899 578 899 577 901 575 901 574 913 562 913 553 914 552 914 540 915 539 915 528 916 527 916 519 915 518 915 517 914 516 914 515 907 508 907 507 905 505 905 501 906 500 906 499 907 498 907 497 909 495 909 494 912 491 912 490 913 489 913 488 915 486 915 485 916 484 916 474 915 473 915 466 914 465 914 458 913 457 913 450 912 449 912 442 911 441 911 440 907 436 906 436 902 432 901 432 898 429 898 428 897 427 897 421 898 420 898 418 899 417 899 416 900 415 900 414 901 413 901 411 902 410 902 409 903 408 903 401 902 400 902 397 901 396 901 394 900 393 900 391 899 390 899 387 898 386 898 384 897 383 897 380 896 379 896 377 895 376 895 374 894 373 894 370 893 369 893 367 892 366 892 365 891 364 890 364 888 362 887 362 886 361 884 361 882 359 880 359 878 357 877 357 875 355 875 354 874 353 874 348 875 347 875 339 876 338 876 329 874 327 874 326 873 325 873 324 872 323 872 322 871 321 871 320 870 319 870 318 869 317 869 316 868 315 868 314 867 313 867 312 866 311 866 310 865 309 865 308 864 307 864 306 863 305 863 304 862 303 862 302 861 301 861 300 859 298 859 297 858 296 858 295 855 292 853 292 852 291 849 291 848 290 845 290 844 289 842 289 841 288 840 288 838 286 838 285 837 284 837 276 836 275 836 265 835 264 835 263 832 260 832 259 829 256 829 255 826 252 826 251 823 248 823 247 819 243 819 242 816 239 816 238 811 233 811 232 809 230 808 230 807 229 797 229 796 228 792 228 789 225 789 224 788 223 788 222 787 221 787 219 786 218 786 216 785 215 785 213 784 212 784 210 783 209 783 207 782 206 782 204 781 203 780 203 773 196 772 196 767 191 766 191 763 188 762 188 759 185 758 185 755 182 754 182 752 180 751 180 750 179 731 179 730 178 729 178 727 176 727 175 726 174 726 173 725 172 725 171 724 170 724 169 723 168 723 167 722 166 722 164 721 163 721 162 720 161 720 160 718 158 717 158 715 156 714 156 713 155 712 155 711 154 710 154 709 153 708 153 706 151 705 151 704 150 703 150 702 149 701 149 700 148 699 148 698 147 697 147 696 146 695 146 694 145 693 145 692 144 691 144 690 143 688 143 687 142 686 142 685 141 683 141 682 140 680 140 679 141 678 141 677 142 674 142 673 143 672 143 671 144 669 144 668 145 664 145 663 144 662 144 660 142 660 141 658 139 658 138 656 136 656 135 655 134 655 133 653 131 653 130 651 128 649 128 648 127 646 127 645 126 643 126 642 125 640 125 639 124 637 124 636 123 634 123 633 122 631 122 630 121 628 121 627 120 625 120 624 119 621 119 620 118 617 118 616 117 613 117 612 116 606 116 604 118 603 118 598 123 597 123 596 124 592 124 591 123 590 123 589 122 588 122 583 117 583 116 576 109 573 109 572 108 563 108 562 107 553 107 552 106 539 106 538 105 530 105 525 110 525 111 520 116 517 116 516 115 514 115 512 113 511 113 506 108 505 108 502 105 500 105 499 104 Z M 803 753 804 752 805 753 804 754 Z M 208 741 209 740 212 740 213 741 215 741 216 742 218 742 219 743 223 743 224 744 227 744 228 745 232 745 233 746 237 746 238 747 239 747 241 749 241 750 246 755 246 756 250 760 250 761 249 762 244 762 243 761 238 761 237 760 233 760 232 759 228 759 227 758 225 758 224 757 222 757 221 756 220 756 216 752 216 751 211 746 211 745 208 742 Z M 207 740 208 739 209 740 208 741 Z M 816 707 817 708 817 711 818 712 818 738 817 739 817 740 813 744 813 745 805 753 804 752 804 741 805 740 805 728 806 727 806 719 810 715 810 714 814 710 814 709 Z M 168 677 169 676 171 676 172 677 173 677 174 678 175 678 176 679 178 679 179 680 180 680 181 681 182 681 183 682 185 682 186 683 187 683 188 684 190 684 191 685 192 685 193 686 194 686 195 687 196 687 197 688 198 688 199 689 199 690 200 691 200 692 201 693 201 694 202 695 202 696 203 697 203 698 204 699 204 700 205 701 205 703 204 704 203 704 202 703 198 703 197 702 195 702 194 701 192 701 191 700 189 700 188 699 187 699 186 698 184 698 183 697 182 697 181 696 180 696 179 695 178 695 175 692 175 691 173 689 173 688 172 687 172 686 171 685 171 684 170 683 170 681 169 680 169 679 168 678 Z M 167 676 168 675 169 676 168 677 Z M 850 643 851 644 851 647 852 648 852 651 853 652 853 655 854 656 854 660 855 661 855 666 856 667 856 675 855 676 855 677 854 678 854 679 853 680 853 681 852 682 852 683 851 684 851 685 850 686 850 687 847 690 846 689 846 685 845 684 845 676 844 675 844 667 843 666 843 659 842 658 842 656 843 655 843 654 844 653 844 652 845 651 845 650 847 648 847 647 848 646 848 645 Z M 142 607 143 606 146 609 147 609 149 611 150 611 153 614 154 614 156 616 157 616 160 619 161 619 163 621 164 621 167 624 168 624 169 625 169 626 170 627 170 629 171 630 171 632 172 633 172 635 173 636 173 638 174 639 173 640 172 640 171 639 170 639 169 638 167 638 166 637 165 637 163 635 162 635 161 634 160 634 159 633 158 633 156 631 155 631 154 630 153 630 150 627 149 627 147 625 147 624 146 623 146 622 145 621 145 618 144 617 144 615 143 614 143 611 142 610 Z M 868 576 869 575 870 576 870 577 871 578 871 579 872 580 872 581 873 582 873 583 874 584 874 585 875 586 875 587 876 588 876 589 877 590 877 591 878 592 878 593 879 594 879 595 880 596 880 598 881 599 881 600 882 601 882 606 881 607 881 611 880 612 880 614 879 615 879 618 878 619 878 620 877 621 876 621 875 620 875 618 874 617 874 616 873 615 873 614 872 613 872 611 871 610 871 608 870 607 870 606 869 605 869 603 868 602 868 599 867 598 867 596 866 595 866 593 865 592 865 591 866 590 866 586 867 585 867 581 868 580 Z M 129 535 130 534 150 554 151 554 152 555 152 557 153 558 153 568 154 569 154 571 153 572 152 571 151 571 148 568 147 568 145 566 144 566 140 562 139 562 131 554 131 553 130 552 130 545 129 544 Z M 875 506 876 505 877 506 877 507 879 509 879 510 883 514 883 515 885 517 885 518 887 520 887 521 889 523 889 524 892 527 892 528 893 529 893 530 894 531 894 540 893 541 893 549 892 550 888 546 888 545 885 542 885 541 883 539 883 538 881 536 881 535 880 534 880 533 878 531 878 530 877 529 877 528 876 527 876 526 874 524 874 518 875 517 Z M 131 459 132 458 134 460 134 461 136 463 136 464 138 466 138 467 139 468 139 469 141 471 141 472 143 474 143 475 145 477 145 478 147 480 147 481 149 483 149 484 151 486 151 492 150 493 150 503 149 504 143 498 143 497 138 492 138 491 135 488 135 487 133 485 133 484 131 482 131 481 130 480 130 464 131 463 Z M 869 438 870 437 871 437 876 442 877 442 889 454 890 454 891 455 891 456 893 458 893 464 894 465 894 475 893 476 892 476 888 472 888 471 872 455 872 454 871 453 871 451 870 450 870 439 Z M 147 387 148 386 150 388 150 389 151 390 151 392 152 393 152 394 153 395 153 396 154 397 154 399 155 400 155 401 156 402 156 403 157 404 157 405 158 406 158 408 159 409 159 410 160 411 160 412 161 413 161 419 160 420 160 422 159 423 159 426 158 427 158 430 157 431 156 431 154 429 154 428 152 426 152 425 151 424 151 423 150 422 150 421 148 419 148 417 146 415 146 413 145 412 145 411 144 410 144 409 143 408 143 407 142 406 143 405 143 402 144 401 144 398 145 397 145 394 146 393 146 391 147 390 Z M 850 372 851 371 852 371 853 372 854 372 855 373 856 373 857 374 858 374 859 375 860 375 861 376 862 376 863 377 864 377 866 379 867 379 868 380 869 380 871 382 872 382 873 383 874 383 876 385 876 386 877 387 877 388 878 389 878 391 879 392 879 395 880 396 880 398 881 399 881 401 880 402 879 401 878 401 877 400 876 400 875 399 874 399 872 397 871 397 869 395 868 395 867 394 866 394 864 392 863 392 862 391 861 391 859 389 858 389 853 384 853 382 852 381 852 378 851 377 851 375 850 374 Z M 179 316 180 317 180 322 181 323 181 327 182 328 182 333 183 334 183 338 184 339 184 343 185 344 185 348 186 349 186 352 185 353 185 354 184 355 184 356 183 357 183 358 181 360 181 361 180 362 180 363 178 365 177 364 177 362 176 361 176 360 175 359 175 356 174 355 174 353 173 352 173 350 172 349 172 345 171 344 171 341 170 340 170 336 169 335 169 334 170 333 170 332 171 331 171 330 172 329 172 328 173 327 173 326 174 325 174 324 175 323 175 322 176 321 176 320 177 319 177 318 Z M 816 307 817 306 818 306 819 307 821 307 822 308 824 308 825 309 827 309 828 310 830 310 831 311 832 311 833 312 835 312 836 313 838 313 839 314 840 314 841 315 843 315 846 318 846 319 848 321 848 322 849 323 849 324 850 325 850 326 851 327 851 328 852 329 852 331 853 332 852 333 850 333 849 332 847 332 846 331 845 331 844 330 843 330 842 329 840 329 839 328 838 328 837 327 835 327 834 326 833 326 832 325 830 325 829 324 828 324 827 323 826 323 825 322 824 322 822 320 822 319 821 318 821 317 820 316 820 315 819 314 819 312 818 311 818 310 817 309 817 308 Z M 223 254 224 255 224 256 223 257 224 258 224 289 220 293 220 294 213 301 212 300 212 292 211 291 211 269 213 267 213 266 216 263 216 262 221 257 221 256 Z M 772 250 773 249 774 249 775 250 778 250 779 251 784 251 785 252 789 252 790 253 794 253 795 254 798 254 799 255 801 255 802 256 803 256 804 257 804 258 809 263 809 264 812 267 812 268 814 270 813 271 810 271 809 270 806 270 805 269 801 269 800 268 797 268 796 267 792 267 791 266 787 266 786 265 783 265 778 260 778 259 777 258 777 257 775 255 775 254 774 253 774 252 Z M 743 204 744 203 747 203 748 204 749 204 751 206 752 206 756 210 757 210 762 215 761 216 760 216 759 217 738 217 737 218 731 218 725 212 724 212 719 207 720 206 725 206 726 205 732 205 733 204 Z M 276 203 277 203 278 204 278 206 277 207 277 211 276 212 276 216 275 217 275 220 274 221 274 225 273 226 273 229 272 230 272 234 271 235 271 238 267 242 266 242 265 243 264 243 262 245 261 245 259 247 258 247 257 246 258 245 258 234 259 233 259 227 260 226 260 219 261 218 261 217 271 207 272 207 Z M 493 198 494 197 530 197 531 198 543 198 544 199 552 199 553 200 559 200 560 201 565 201 566 202 571 202 572 203 576 203 577 204 580 204 581 205 585 205 586 206 589 206 590 207 592 207 593 208 596 208 597 209 599 209 600 210 603 210 604 211 606 211 607 212 609 212 610 213 612 213 613 214 615 214 616 215 618 215 619 216 621 216 622 217 623 217 624 218 626 218 627 219 629 219 630 220 631 220 632 221 634 221 635 222 636 222 637 223 638 223 639 224 640 224 641 225 643 225 644 226 645 226 646 227 647 227 648 228 649 228 650 229 651 229 652 230 653 230 654 231 655 231 656 232 657 232 658 233 659 233 660 234 661 234 662 235 663 235 665 237 666 237 667 238 668 238 669 239 670 239 672 241 673 241 674 242 675 242 677 244 678 244 680 246 681 246 682 247 683 247 686 250 687 250 689 252 690 252 693 255 694 255 697 258 698 258 701 261 702 261 706 265 707 265 712 270 713 270 725 282 726 282 732 288 732 289 733 289 734 290 734 291 735 291 736 292 736 293 745 302 745 303 750 308 750 309 755 314 755 315 759 319 759 320 762 323 762 324 765 327 765 328 767 330 767 331 769 333 769 334 771 336 771 337 773 339 773 340 775 342 775 343 776 344 776 345 778 347 778 348 779 349 779 350 780 351 780 352 782 354 782 355 783 356 783 357 784 358 784 359 785 360 785 361 786 362 786 363 787 364 787 365 788 366 788 367 789 368 789 369 790 370 790 371 791 372 791 373 792 374 792 375 793 376 793 377 794 378 794 379 795 380 795 381 796 382 796 383 797 384 797 386 798 387 798 388 799 389 799 391 800 392 800 393 801 394 801 396 802 397 802 398 803 399 803 401 804 402 804 404 805 405 805 407 806 408 806 410 807 411 807 414 808 415 808 417 809 418 809 420 810 421 810 424 811 425 811 428 812 429 812 432 813 433 813 437 814 438 814 441 815 442 815 446 816 447 816 451 817 452 817 458 818 459 818 464 819 465 819 473 820 474 820 483 821 484 821 526 820 527 820 538 819 539 819 547 818 548 818 554 817 555 817 560 816 561 816 566 815 567 815 571 814 572 814 575 813 576 813 580 812 581 812 584 811 585 811 587 810 588 810 591 809 592 809 594 808 595 808 598 807 599 807 601 806 602 806 604 805 605 805 607 804 608 804 609 803 610 803 612 802 613 802 615 801 616 801 617 800 618 800 620 799 621 799 622 798 623 798 625 797 626 797 627 796 628 796 629 795 630 795 632 794 633 794 634 793 635 793 636 792 637 792 638 791 639 791 640 790 641 790 643 789 644 789 645 788 646 788 647 787 648 787 649 786 650 786 651 785 652 785 653 784 654 784 655 783 656 783 657 782 658 782 659 781 660 781 661 779 663 779 664 778 665 778 666 776 668 776 669 775 670 775 671 773 673 773 674 771 676 771 677 769 679 769 680 767 682 767 683 765 685 765 686 762 689 762 690 759 693 759 694 756 697 756 698 752 702 752 703 746 709 746 710 735 721 735 722 724 733 723 733 713 743 712 743 707 748 706 748 702 752 701 752 698 755 697 755 693 759 692 759 690 761 689 761 687 763 686 763 684 765 683 765 681 767 680 767 678 769 677 769 676 770 675 770 673 772 672 772 671 773 670 773 668 775 667 775 665 777 664 777 663 778 662 778 660 780 659 780 656 783 655 783 654 784 654 785 653 786 653 790 654 791 654 792 655 792 657 794 661 794 662 795 669 795 670 794 719 794 720 795 728 795 729 796 734 796 735 797 740 797 741 798 745 798 746 799 749 799 750 800 754 800 755 801 758 801 759 802 763 802 764 803 767 803 768 804 770 804 771 805 774 805 775 806 777 806 778 807 780 807 781 808 783 808 784 809 786 809 787 810 788 810 789 811 791 811 792 812 793 812 794 813 795 813 797 815 798 815 799 816 800 816 803 819 804 819 810 825 810 826 812 828 812 830 813 831 813 839 812 840 812 841 811 842 811 843 804 850 803 850 801 852 800 852 799 853 798 853 797 854 796 854 795 855 793 855 792 856 789 856 788 857 783 857 782 858 768 858 767 859 750 859 749 858 743 858 742 857 739 857 738 856 739 855 742 855 743 854 746 854 747 853 750 853 751 852 755 852 756 851 759 851 760 850 763 850 764 849 768 849 769 848 772 848 773 847 776 847 777 846 780 846 781 845 783 845 784 844 785 844 786 843 787 843 789 841 790 841 790 836 789 835 789 834 788 833 787 833 786 832 785 832 784 831 783 831 782 830 781 830 780 829 778 829 777 828 776 828 775 827 773 827 772 826 770 826 769 825 767 825 766 824 764 824 763 823 761 823 760 822 757 822 756 821 753 821 752 820 750 820 749 819 745 819 744 818 740 818 739 817 735 817 734 816 728 816 727 815 721 815 720 814 711 814 710 813 687 813 686 814 679 814 678 815 674 815 673 816 669 816 668 817 665 817 664 818 662 818 661 819 659 819 658 820 655 820 654 821 653 821 652 822 650 822 649 823 647 823 646 824 644 824 643 825 641 825 640 826 638 826 637 827 634 827 633 828 629 828 628 829 623 829 622 830 614 830 613 831 594 831 593 830 582 830 581 829 575 829 574 828 569 828 568 827 563 827 562 826 557 826 556 825 551 825 550 824 544 824 543 823 534 823 533 822 521 822 520 821 493 821 492 822 480 822 479 823 471 823 470 824 464 824 463 825 457 825 456 826 451 826 450 827 444 827 443 828 436 828 435 829 413 829 412 828 404 828 403 827 398 827 397 826 393 826 392 825 388 825 387 824 384 824 383 823 381 823 380 822 377 822 376 821 374 821 373 820 371 820 370 819 367 819 366 818 364 818 363 817 360 817 359 816 356 816 355 815 351 815 350 814 346 814 345 813 338 813 337 812 304 812 303 813 292 813 291 814 283 814 282 815 276 815 275 816 270 816 269 817 266 817 265 818 262 818 261 819 259 819 258 820 256 820 255 821 253 821 252 822 251 822 250 823 248 823 246 825 245 825 244 826 243 826 241 828 240 828 236 832 236 833 235 834 235 838 237 840 238 840 239 841 240 841 241 842 242 842 243 843 244 843 245 844 247 844 248 845 249 845 250 846 252 846 253 847 254 847 255 848 257 848 258 849 260 849 261 850 263 850 264 851 266 851 267 852 269 852 270 853 273 853 274 854 278 854 279 855 282 855 283 856 286 856 287 857 287 858 286 859 254 859 253 858 248 858 247 857 243 857 242 856 240 856 239 855 237 855 236 854 234 854 233 853 232 853 231 852 230 852 229 851 228 851 227 850 226 850 225 849 224 849 221 846 220 846 218 844 218 843 216 841 216 840 215 839 215 837 214 836 214 825 215 824 215 823 216 822 216 821 219 818 219 817 222 814 223 814 226 811 227 811 229 809 230 809 231 808 232 808 234 806 235 806 236 805 238 805 239 804 240 804 241 803 242 803 243 802 245 802 246 801 248 801 249 800 251 800 252 799 254 799 255 798 258 798 259 797 262 797 263 796 267 796 268 795 272 795 273 794 277 794 278 793 286 793 287 792 300 792 301 791 320 791 321 792 335 792 336 793 343 793 344 794 350 794 351 795 355 795 356 796 360 796 361 797 364 797 365 798 367 798 368 799 370 799 371 800 374 800 375 801 376 801 377 802 379 802 380 803 383 803 384 804 386 804 387 805 389 805 390 806 393 806 394 807 397 807 398 808 401 808 402 809 407 809 408 810 419 810 421 808 422 808 422 806 419 803 418 803 416 801 415 801 414 800 412 800 411 799 410 799 409 798 407 798 406 797 404 797 403 796 401 796 400 795 399 795 398 794 396 794 395 793 394 793 393 792 391 792 390 791 389 791 388 790 387 790 386 789 385 789 384 788 382 788 381 787 380 787 379 786 378 786 377 785 376 785 375 784 374 784 373 783 372 783 371 782 370 782 369 781 368 781 367 780 366 780 364 778 363 778 362 777 361 777 360 776 359 776 358 775 357 775 355 773 354 773 353 772 352 772 350 770 349 770 348 769 347 769 345 767 344 767 342 765 341 765 339 763 338 763 335 760 334 760 332 758 331 758 328 755 327 755 324 752 323 752 319 748 318 748 313 743 312 743 304 735 303 735 286 718 286 717 277 708 277 707 272 702 272 701 268 697 268 696 265 693 265 692 262 689 262 688 260 686 260 685 257 682 257 681 256 680 256 679 253 676 253 675 252 674 252 673 250 671 250 670 248 668 248 667 247 666 247 665 245 663 245 662 244 661 244 660 243 659 243 658 242 657 242 656 240 654 240 653 239 652 239 651 238 650 238 649 237 648 237 647 236 646 236 644 235 643 235 642 234 641 234 640 233 639 233 638 232 637 232 635 231 634 231 633 230 632 230 631 229 630 229 628 228 627 228 626 227 625 227 623 226 622 226 621 225 620 225 618 224 617 224 616 223 615 223 613 222 612 222 611 221 610 221 608 220 607 220 605 219 604 219 602 218 601 218 599 217 598 217 596 216 595 216 592 215 591 215 589 214 588 214 586 213 585 213 582 212 581 212 578 211 577 211 574 210 573 210 569 209 568 209 563 208 562 208 557 207 556 207 549 206 548 206 538 205 537 205 525 204 524 204 485 205 484 205 474 206 473 206 465 207 464 207 458 208 457 208 452 209 451 209 447 210 446 210 442 211 441 211 437 212 436 212 433 213 432 213 430 214 429 214 426 215 425 215 422 216 421 216 419 217 418 217 416 218 415 218 412 219 411 219 409 220 408 220 406 221 405 221 403 222 402 222 400 223 399 223 398 224 397 224 395 225 394 225 393 226 392 226 390 227 389 227 388 228 387 228 385 229 384 229 383 230 382 230 381 231 380 231 379 232 378 232 377 233 376 233 374 235 372 235 370 236 369 236 368 237 367 237 366 239 364 239 363 240 362 240 361 241 360 241 359 242 358 242 357 244 355 244 354 245 353 245 352 246 351 246 350 248 348 248 347 249 346 249 345 251 343 251 342 253 340 253 339 254 338 254 337 256 335 256 334 258 332 258 331 261 328 261 327 263 325 263 324 266 321 266 320 269 317 269 316 273 312 273 311 277 307 277 306 285 298 285 297 307 275 308 275 315 268 316 268 321 263 322 263 326 259 327 259 330 256 331 256 333 254 334 254 336 252 337 252 340 249 341 249 343 247 344 247 345 246 346 246 348 244 349 244 351 242 352 242 354 240 355 240 356 239 357 239 358 238 359 238 361 236 362 236 363 235 364 235 365 234 366 234 367 233 368 233 369 232 370 232 371 231 372 231 373 230 374 230 375 229 376 229 377 228 378 228 379 227 380 227 381 226 382 226 383 225 384 225 385 224 387 224 388 223 389 223 390 222 391 222 392 221 394 221 395 220 396 220 397 219 399 219 400 218 401 218 402 217 404 217 405 216 407 216 408 215 409 215 410 214 412 214 413 213 415 213 416 212 418 212 419 211 421 211 422 210 424 210 425 209 428 209 429 208 432 208 433 207 435 207 436 206 440 206 441 205 444 205 445 204 448 204 449 203 453 203 454 202 458 202 459 201 464 201 465 200 472 200 473 199 481 199 482 198 Z M 681 166 682 165 688 165 689 166 690 166 691 167 692 167 693 168 694 168 695 169 696 169 698 171 699 171 701 173 701 174 700 175 699 175 698 176 695 176 694 177 691 177 690 178 688 178 687 179 684 179 683 180 681 180 680 181 678 181 677 182 675 182 674 183 672 183 671 182 670 182 669 181 668 181 667 180 666 180 664 178 663 178 662 177 661 177 660 176 659 176 657 174 658 173 660 173 661 172 663 172 664 171 666 171 667 170 669 170 670 169 671 169 672 168 674 168 675 167 677 167 678 166 Z M 341 165 342 164 343 164 344 165 343 166 343 167 342 168 342 170 341 171 341 172 340 173 340 174 339 175 339 176 338 177 338 179 337 180 337 181 336 182 336 183 335 184 335 185 334 186 334 187 333 188 333 190 332 191 332 192 331 193 331 194 330 195 330 196 328 198 326 198 325 199 324 199 323 200 321 200 320 201 319 201 318 202 317 202 316 203 315 203 314 202 315 201 315 199 316 198 316 196 317 195 317 193 318 192 318 190 319 189 319 187 320 186 320 184 321 183 321 182 322 181 322 179 323 178 323 177 324 176 324 175 325 174 325 173 326 172 327 172 328 171 329 171 331 169 332 169 333 168 334 168 335 167 336 167 337 166 338 166 339 165 Z M 616 141 617 140 618 140 619 141 624 141 625 142 628 142 629 143 631 143 632 144 634 144 635 145 635 146 633 148 632 148 631 149 630 149 629 150 627 150 626 151 625 151 624 152 623 152 622 153 620 153 619 154 618 154 617 155 616 155 615 156 614 156 613 157 611 157 610 158 609 158 608 159 606 159 605 160 604 159 603 159 602 158 600 158 599 157 598 157 597 156 596 156 595 155 593 155 592 154 591 154 590 153 591 152 592 152 593 151 594 151 595 150 596 150 597 149 598 149 599 148 600 148 601 147 602 147 603 146 604 146 605 145 607 145 608 144 609 144 610 143 611 143 612 142 613 142 614 141 Z M 411 139 412 138 413 139 413 140 412 141 412 142 411 143 411 144 409 146 409 147 407 149 407 150 405 152 405 153 403 155 403 156 402 157 402 158 400 160 400 161 398 163 398 164 394 168 391 168 390 169 383 169 382 170 381 170 380 169 380 168 381 167 381 166 382 165 382 164 383 163 383 162 385 160 385 159 386 158 386 157 387 156 387 155 389 153 389 152 391 150 391 149 393 147 393 146 396 143 397 143 398 142 400 142 401 141 403 141 404 140 407 140 408 139 Z M 544 127 547 127 548 128 559 128 560 129 563 129 564 130 563 131 562 131 559 134 558 134 555 137 554 137 550 141 549 141 546 144 545 144 542 147 541 147 539 149 538 149 537 150 535 150 534 149 530 149 529 148 525 148 524 147 523 147 522 146 525 143 526 143 534 135 535 135 540 130 541 130 Z M 471 127 489 127 490 128 473 145 472 145 465 152 454 152 453 151 451 151 450 150 451 149 451 148 460 139 460 138 Z" />
</g>
</svg>