<svg height="1024" width="1024" xmlns="http://www.w3.org/2000/svg">
<g fill="black" fill-rule="evenodd">
<path d="M 545 762 Z" />
<path d="M 583 697 Z" />
<path d="M 533 386 Z" />
<path d="M 644 359 Z" />
<path d="M 657 354 Z" />
<path d="M 593 351 Z" />
<path d="M 588 350 Z" />
<path d="M 282 346 Z" />
<path d="M 269 344 Z" />
<path d="M 382 317 Z" />
<path d="M 345 311 Z" />
<path d="M 303 304 Z" />
<path d="M 184 297 Z" />
<path d="M 203 263 202 264 201 264 200 265 199 265 198 266 198 267 197 268 197 269 196 270 196 272 195 273 195 275 194 276 194 277 193 278 193 280 192 281 192 283 191 284 191 285 190 286 190 288 189 289 189 291 188 292 188 294 187 295 187 296 186 297 186 299 185 300 185 302 184 303 184 304 183 305 183 307 182 308 182 310 181 311 181 312 180 313 180 315 179 316 179 318 178 319 178 320 177 321 177 323 176 324 176 325 175 326 175 328 174 329 174 331 173 332 173 333 172 334 172 336 171 337 171 338 170 339 170 341 169 342 169 344 168 345 168 346 167 347 167 349 166 350 166 351 165 352 165 354 164 355 164 357 163 358 163 359 162 360 162 362 161 363 161 364 160 365 160 366 159 367 159 369 158 370 158 377 160 379 160 380 161 380 163 382 164 382 165 383 166 383 167 384 169 384 170 385 172 385 173 386 175 386 176 387 177 387 178 388 180 388 181 389 183 389 184 390 186 390 187 391 188 391 189 392 191 392 192 393 194 393 195 394 196 394 197 395 199 395 200 396 205 396 206 395 207 395 208 394 209 394 211 392 211 391 212 390 212 389 213 388 213 387 214 386 214 385 215 384 215 382 217 380 221 384 221 385 233 397 233 398 242 407 242 408 251 417 251 418 260 427 260 428 267 435 267 436 276 445 276 446 283 453 283 454 290 461 290 462 298 470 298 471 306 479 306 480 313 487 313 488 319 494 319 495 327 503 327 504 333 510 333 511 340 518 340 519 347 526 347 527 354 534 354 535 361 542 361 543 368 550 368 551 375 558 375 559 381 565 381 566 388 573 388 574 396 582 396 583 402 589 402 590 409 597 409 598 416 605 416 606 423 613 423 614 430 621 430 622 436 628 436 629 443 636 443 637 449 643 449 644 456 651 456 652 462 658 462 659 468 665 468 666 475 673 475 674 481 680 481 681 487 687 487 688 493 694 493 695 498 700 498 701 500 703 500 705 499 706 499 709 498 710 498 727 499 728 499 731 500 732 500 733 501 734 501 736 502 737 502 738 503 739 503 740 505 742 505 743 509 747 509 748 511 750 512 750 515 753 516 753 517 754 518 754 520 756 521 756 522 757 524 757 525 758 527 758 528 759 531 759 532 760 546 760 547 759 551 759 552 758 554 758 555 757 556 757 557 756 558 756 559 755 560 755 561 754 562 754 564 752 565 752 574 743 574 742 576 740 576 739 577 738 577 737 578 736 578 735 579 734 863 734 864 735 865 735 869 739 870 739 871 740 872 740 873 741 874 741 875 742 878 742 879 743 890 743 891 742 894 742 895 741 896 741 897 740 898 740 899 739 900 739 901 738 902 738 905 735 906 735 910 731 910 730 912 728 912 727 914 725 902 725 901 724 886 724 885 725 879 725 878 724 876 724 875 723 874 723 871 720 871 719 870 718 870 716 869 715 869 712 870 711 870 709 875 704 877 704 878 703 908 703 909 702 915 702 915 700 914 699 914 698 913 697 913 696 911 694 911 693 908 690 907 690 904 687 903 687 902 686 901 686 900 685 898 685 897 684 895 684 891 680 891 679 888 676 888 675 885 672 885 671 883 669 883 668 881 666 881 665 878 662 878 661 876 659 876 658 874 656 874 655 872 653 872 652 870 650 870 649 869 648 869 647 867 645 867 644 864 641 864 640 862 638 862 637 860 635 860 634 858 632 858 631 856 629 856 628 854 626 854 625 852 623 852 622 850 620 850 619 848 617 848 616 846 614 846 613 843 610 843 609 841 607 841 606 839 604 839 603 837 601 837 600 834 597 834 596 832 594 832 593 830 591 830 590 828 588 828 587 826 585 826 584 824 582 824 581 822 579 822 578 820 576 820 575 817 572 817 571 815 569 815 568 813 566 813 565 811 563 811 562 809 560 809 559 807 557 807 556 805 554 805 553 803 551 803 550 801 548 801 547 799 545 799 544 797 542 797 541 795 539 795 538 793 536 793 535 791 533 791 532 789 530 789 529 787 527 787 526 785 524 785 523 783 521 783 520 781 518 781 517 779 515 779 514 777 512 777 511 774 508 774 507 772 505 772 504 770 502 770 501 768 499 768 498 766 496 766 495 764 493 764 492 762 490 762 489 760 487 760 486 758 484 758 483 756 481 756 480 754 478 754 477 751 474 751 473 749 471 749 470 747 468 747 467 745 465 745 464 742 461 742 460 741 459 741 458 738 455 738 454 736 452 736 451 734 449 734 448 732 446 732 445 730 443 730 442 728 440 728 439 726 437 726 436 724 434 724 433 722 431 722 430 720 428 720 427 717 424 717 423 716 422 716 421 714 419 714 418 712 416 712 415 710 413 710 412 708 410 708 409 706 407 706 406 703 403 703 402 702 401 702 400 700 398 700 397 697 394 697 393 696 392 696 391 694 389 694 388 693 387 693 385 694 384 694 382 695 381 695 380 696 379 696 377 697 376 697 375 698 374 698 372 699 371 699 369 700 368 700 367 701 366 701 364 702 363 702 362 703 361 703 359 704 358 704 356 705 355 705 354 706 353 706 351 707 350 707 349 708 348 708 346 709 345 709 343 710 342 710 341 711 340 711 338 712 337 712 335 713 334 713 333 714 332 714 327 713 326 713 325 712 324 712 323 711 322 710 322 709 321 708 321 707 320 706 320 705 319 703 319 702 318 700 318 699 317 697 317 696 316 694 316 693 315 691 315 690 314 688 314 687 313 686 313 685 312 680 312 679 313 678 313 677 314 676 314 674 316 674 317 673 318 673 320 672 321 672 323 671 324 671 325 670 326 670 328 669 329 669 330 668 331 668 333 667 334 667 335 666 336 666 338 665 339 665 341 664 342 664 343 663 344 663 346 662 347 662 348 661 349 661 351 660 352 660 354 659 355 659 356 658 357 658 359 657 360 657 361 655 363 653 363 652 362 646 362 645 361 640 361 639 360 634 360 633 359 627 359 626 358 621 358 620 357 615 357 614 356 609 356 608 355 602 355 601 354 596 354 595 353 590 353 589 352 583 352 582 351 577 351 576 350 571 350 570 349 565 349 564 348 558 348 557 347 552 347 551 346 545 346 544 345 539 345 538 344 533 344 532 343 526 343 525 342 520 342 519 341 514 341 513 340 507 340 506 339 501 339 500 338 494 338 493 337 488 337 487 336 482 336 481 335 475 335 474 334 469 334 468 333 463 333 462 332 457 332 456 331 451 331 450 330 445 330 444 329 439 329 438 330 437 330 434 333 433 333 431 335 430 335 428 337 427 337 425 339 426 339 431 344 431 345 439 353 439 354 434 359 434 360 428 366 428 367 432 367 433 368 437 368 438 369 443 369 444 370 449 370 450 371 455 371 456 372 460 372 461 373 466 373 467 374 472 374 473 375 478 375 479 376 484 376 485 377 490 377 491 378 497 378 498 379 503 379 504 380 510 380 511 381 517 381 518 382 523 382 524 383 531 383 532 384 537 384 538 385 544 385 545 386 550 386 551 387 557 387 558 388 563 388 564 389 569 389 570 390 575 390 576 391 581 391 582 392 587 392 588 393 593 393 594 394 600 394 601 395 606 395 607 396 612 396 613 397 619 397 620 398 626 398 627 399 632 399 633 400 639 400 641 402 641 404 640 405 640 406 639 407 639 409 638 410 638 411 637 412 637 414 636 415 636 416 635 417 635 419 634 420 634 422 633 423 633 424 632 425 632 427 631 428 631 430 630 431 630 432 629 433 629 435 628 436 628 437 627 438 627 440 626 441 626 443 625 444 625 445 624 446 624 448 623 449 623 451 622 452 622 453 621 454 621 456 620 457 620 458 619 459 619 461 618 462 618 464 617 465 617 466 616 467 616 469 615 470 615 471 614 472 614 474 613 475 613 477 612 478 612 479 611 480 611 482 610 483 610 485 609 486 609 487 608 488 608 490 607 491 607 492 606 493 606 495 605 496 605 498 604 499 604 500 603 501 603 503 602 504 602 506 601 507 601 508 600 509 600 511 599 512 599 513 598 514 598 516 597 517 597 519 596 520 596 521 595 522 595 524 594 525 594 526 593 527 593 529 592 530 592 532 591 533 591 534 590 535 590 537 589 538 589 539 588 540 588 542 587 543 587 545 586 546 586 547 585 548 585 550 584 551 584 552 583 553 583 555 582 556 582 558 581 559 581 560 580 561 580 563 579 564 579 565 578 566 578 568 577 569 577 571 576 572 576 573 575 574 575 576 574 577 574 578 573 579 573 581 572 582 572 583 571 584 571 586 570 587 570 589 569 590 569 591 568 592 568 594 567 595 567 596 566 597 566 599 565 600 565 601 564 602 564 604 563 605 563 606 562 607 562 609 561 610 561 611 560 612 560 614 559 615 559 616 558 617 558 619 557 620 557 621 556 622 556 624 555 625 555 626 554 627 554 629 553 630 553 631 552 632 552 634 551 635 551 636 550 637 550 639 549 640 549 641 548 642 548 644 547 645 547 646 546 647 546 649 545 650 545 651 544 652 544 654 543 655 543 656 542 657 542 659 541 660 541 661 540 662 540 664 539 665 539 666 538 667 538 669 537 670 537 671 536 672 536 674 534 676 533 676 531 674 531 673 525 667 525 666 519 660 519 659 512 652 512 651 505 644 505 643 497 635 497 634 489 626 489 625 482 618 482 617 475 610 475 609 468 602 468 601 460 593 460 592 453 585 453 584 446 577 446 576 438 568 438 567 432 561 432 560 424 552 424 551 418 545 418 544 411 537 411 536 403 528 403 527 396 520 396 519 388 511 388 510 381 503 381 502 374 495 374 494 366 486 366 485 358 477 358 476 352 470 352 469 345 462 345 461 337 453 337 452 329 444 329 443 322 436 322 435 315 428 315 427 307 419 307 418 300 411 300 410 292 402 292 401 284 393 284 392 276 384 276 383 269 376 269 375 262 368 262 367 255 360 255 359 248 352 248 351 240 343 240 342 235 337 236 336 239 336 240 337 245 337 246 338 250 338 251 339 256 339 257 340 261 340 262 341 267 341 268 342 274 342 275 343 279 343 280 344 286 344 287 345 292 345 293 346 299 346 300 347 306 347 307 348 312 348 313 349 319 349 320 350 325 350 326 351 332 351 333 352 338 352 339 353 345 353 346 354 351 354 352 355 357 355 358 356 363 356 364 357 369 357 370 358 376 358 377 359 381 359 382 360 387 360 388 361 394 361 395 362 400 362 401 363 406 363 407 364 410 364 411 363 411 362 412 361 412 360 413 359 413 358 414 357 414 356 415 355 414 355 412 353 411 353 410 352 409 352 408 351 407 351 405 349 404 349 403 348 402 348 400 346 399 346 398 345 397 345 394 342 395 341 395 340 397 338 397 337 398 336 398 335 399 334 399 333 401 331 401 330 402 329 402 328 403 327 403 326 405 324 405 323 403 323 402 322 397 322 396 321 391 321 390 320 385 320 384 319 378 319 377 318 372 318 371 317 366 317 365 316 360 316 359 315 353 315 352 314 347 314 346 313 341 313 340 312 335 312 334 311 329 311 328 310 323 310 322 309 317 309 316 308 311 308 310 307 305 307 304 306 299 306 298 305 293 305 292 304 288 304 287 303 282 303 281 302 276 302 275 301 269 301 268 300 264 300 263 299 258 299 257 298 253 298 252 297 251 297 250 296 251 295 251 293 252 292 252 291 253 290 253 285 252 284 252 283 251 282 251 281 250 280 249 280 247 278 246 278 245 277 243 277 242 276 241 276 240 275 238 275 237 274 236 274 235 273 233 273 232 272 231 272 230 271 228 271 227 270 226 270 225 269 223 269 222 268 220 268 219 267 217 267 216 266 214 266 213 265 212 265 211 264 209 264 208 263 Z M 534 697 535 696 545 696 546 697 548 697 549 698 550 698 551 699 552 699 558 705 558 706 559 707 559 708 560 709 560 710 561 711 561 715 562 716 562 719 561 720 561 724 560 725 560 726 559 727 559 728 557 730 557 731 555 733 554 733 551 736 550 736 549 737 547 737 546 738 535 738 534 737 532 737 531 736 530 736 528 734 527 734 523 730 523 729 522 728 522 727 521 726 521 725 520 724 520 720 519 719 519 716 520 715 520 712 521 711 521 709 522 708 522 707 523 706 523 705 529 699 530 699 532 697 Z M 675 429 676 428 679 431 679 432 681 434 681 435 683 437 683 438 686 441 686 442 688 444 688 445 690 447 690 448 693 451 693 452 695 454 695 455 697 457 697 458 699 460 699 461 701 463 701 464 703 466 703 467 705 469 705 470 707 472 707 473 709 475 709 476 711 478 711 479 714 482 714 483 716 485 716 486 718 488 718 489 720 491 720 492 722 494 722 495 724 497 724 498 726 500 726 501 728 503 728 504 730 506 730 507 732 509 732 510 734 512 734 513 736 515 736 516 738 518 738 519 740 521 740 522 742 524 742 525 744 527 744 528 746 530 746 531 748 533 748 534 750 536 750 537 752 539 752 540 754 542 754 543 756 545 756 546 758 548 758 549 760 551 760 552 763 555 763 556 765 558 765 559 767 561 767 562 769 564 769 565 771 567 771 568 773 570 773 571 775 573 775 574 777 576 777 577 779 579 779 580 781 582 781 583 783 585 783 586 785 588 785 589 787 591 787 592 789 594 789 595 791 597 791 598 793 600 793 601 796 604 796 605 798 607 798 608 800 610 800 611 802 613 802 614 804 616 804 617 806 619 806 620 808 622 808 623 810 625 810 626 813 629 813 630 815 632 815 633 817 635 817 636 819 638 819 639 821 641 821 642 823 644 823 645 825 647 825 648 827 650 827 651 829 653 829 654 831 656 831 657 833 659 833 660 835 662 835 663 836 664 836 665 838 667 838 668 840 670 840 671 842 673 842 674 844 676 844 677 846 679 846 680 848 682 848 683 849 684 849 685 851 687 851 688 853 690 853 691 855 693 854 694 844 694 843 695 806 695 805 696 760 696 759 697 713 697 712 698 650 698 649 699 580 699 578 697 578 696 577 695 577 694 575 692 575 691 574 690 575 689 575 687 576 686 576 685 577 684 577 682 578 681 578 680 579 679 579 677 580 676 580 674 581 673 581 672 582 671 582 669 583 668 583 666 584 665 584 664 585 663 585 661 586 660 586 659 587 658 587 656 588 655 588 654 589 653 589 651 590 650 590 648 591 647 591 646 592 645 592 643 593 642 593 640 594 639 594 638 595 637 595 635 596 634 596 633 597 632 597 630 598 629 598 627 599 626 599 625 600 624 600 622 601 621 601 620 602 619 602 617 603 616 603 614 604 613 604 612 605 611 605 609 606 608 606 607 607 606 607 604 608 603 608 601 609 600 609 599 610 598 610 596 611 595 611 594 612 593 612 591 613 590 613 589 614 588 614 586 615 585 615 584 616 583 616 581 617 580 617 578 618 577 618 576 619 575 619 573 620 572 620 570 621 569 621 568 622 567 622 565 623 564 623 563 624 562 624 560 625 559 625 558 626 557 626 555 627 554 627 552 628 551 628 550 629 549 629 547 630 546 630 545 631 544 631 542 632 541 632 540 633 539 633 537 634 536 634 534 635 533 635 532 636 531 636 529 637 528 637 527 638 526 638 524 639 523 639 521 640 520 640 519 641 518 641 516 642 515 642 514 643 513 643 511 644 510 644 509 645 508 645 506 646 505 646 503 647 502 647 501 648 500 648 498 649 497 649 496 650 495 650 493 651 492 651 490 652 489 652 488 653 487 653 485 654 484 654 483 655 482 655 480 656 479 656 478 657 477 657 475 658 474 658 472 659 471 659 470 660 469 660 467 661 466 661 465 662 464 662 462 663 461 663 459 664 458 664 457 665 456 665 454 666 453 666 452 667 451 667 449 668 448 668 446 669 445 669 444 670 443 670 441 671 440 671 439 672 438 672 436 673 435 673 433 674 432 674 431 675 430 Z" />
</g>
</svg>