<svg height="1024" width="1024" xmlns="http://www.w3.org/2000/svg">
<g fill="black" fill-rule="evenodd">
<path d="M 403 836 Z" />
<path d="M 338 716 Z" />
<path d="M 530 559 Z" />
<path d="M 245 478 Z" />
<path d="M 747 434 746 435 742 435 741 436 740 436 739 437 738 437 732 443 732 444 731 445 731 446 730 447 730 452 729 453 729 454 730 455 730 458 731 459 731 461 732 462 732 463 738 469 739 469 740 470 741 470 742 471 744 471 745 472 752 472 753 471 755 471 756 470 757 470 758 469 759 469 764 464 764 463 765 462 765 461 766 460 766 458 767 457 767 449 766 448 766 446 765 445 765 444 764 443 764 442 760 438 759 438 758 437 757 437 756 436 755 436 754 435 750 435 749 434 Z" />
<path d="M 527 392 526 393 513 393 512 394 507 394 506 395 503 395 502 396 500 396 499 397 497 397 496 398 495 398 494 399 493 399 492 400 490 400 490 401 491 401 492 402 493 402 495 404 496 404 497 405 498 405 499 406 500 406 502 408 503 408 504 409 505 409 507 411 508 411 509 412 510 412 512 414 513 414 514 415 515 415 517 417 518 417 519 418 520 418 522 420 523 420 525 422 526 422 527 423 528 423 530 425 531 425 533 427 534 427 535 428 536 428 538 430 539 430 541 432 542 432 544 434 545 434 547 436 548 436 550 438 551 438 553 440 554 440 556 442 557 442 559 444 560 444 562 446 563 446 567 450 568 450 574 456 574 457 579 462 579 463 581 465 581 466 583 468 583 469 584 470 584 471 585 472 585 473 586 474 586 475 587 476 587 477 588 478 588 480 589 481 589 483 590 484 590 486 591 487 591 491 592 492 592 499 593 500 593 509 592 510 592 516 591 517 591 520 590 521 590 524 589 525 589 527 588 528 588 530 587 531 587 532 586 533 586 534 585 535 585 536 584 537 584 538 582 540 582 541 580 543 580 544 577 547 577 548 569 556 568 556 565 559 564 559 562 561 561 561 560 562 559 562 558 563 557 563 556 564 555 564 554 565 553 565 552 566 550 566 549 567 547 567 546 568 544 568 543 569 538 569 537 570 523 570 522 569 517 569 516 568 513 568 512 567 510 567 509 566 507 566 506 565 505 565 504 564 502 564 501 563 500 563 499 562 498 562 496 560 495 560 494 559 492 559 492 560 491 561 491 563 490 564 490 565 489 566 489 567 488 568 488 569 487 570 487 571 486 572 486 573 485 574 485 575 484 576 484 577 483 578 483 579 482 580 482 581 481 582 481 583 480 584 480 585 478 587 478 588 477 589 477 590 476 591 476 592 474 594 474 595 473 596 473 597 471 599 471 600 469 602 469 603 467 605 467 606 465 608 465 609 463 611 463 612 461 614 461 615 458 618 458 619 455 622 455 623 452 626 452 627 448 631 448 632 444 636 444 637 437 644 437 645 426 656 425 656 424 657 420 657 418 655 417 655 416 654 416 653 414 651 414 650 412 648 412 647 410 645 410 644 409 643 408 643 407 642 405 642 404 643 394 643 393 644 390 644 389 645 389 646 388 647 388 648 387 649 387 654 386 655 386 658 385 659 385 660 384 661 384 662 382 664 381 664 378 667 377 667 376 668 375 668 374 669 373 669 372 670 369 670 368 669 366 669 365 668 362 668 361 667 359 667 358 666 351 666 341 676 341 677 339 679 339 683 340 684 340 685 341 686 341 687 342 688 342 689 344 691 344 692 345 693 345 694 346 695 346 699 345 700 345 702 344 703 344 705 343 706 343 708 342 709 342 711 341 712 341 715 340 716 340 717 339 718 338 718 337 719 335 719 334 720 330 720 329 721 327 721 325 723 325 724 324 725 324 727 323 728 323 729 321 731 319 731 318 732 315 732 314 733 311 733 310 734 308 734 307 735 305 735 304 736 302 736 301 737 300 737 299 738 297 738 296 739 295 739 294 740 293 740 292 741 290 741 289 742 288 742 287 743 285 743 284 744 283 744 282 745 280 745 279 746 277 746 276 747 275 747 270 752 270 753 269 754 269 755 268 756 268 758 267 759 267 765 268 766 268 769 269 770 269 771 270 772 270 773 271 774 271 775 279 783 279 784 292 797 292 798 304 810 304 811 315 822 315 823 336 844 337 844 341 848 342 848 344 850 345 850 347 852 348 852 350 854 351 854 352 855 353 855 355 857 356 857 357 858 358 858 360 860 361 860 362 861 363 861 364 862 366 862 367 863 368 863 369 864 370 864 371 865 372 865 373 866 375 866 376 867 377 867 378 868 380 868 381 869 383 869 384 870 386 870 387 871 389 871 390 872 393 872 394 873 397 873 398 874 403 874 404 875 420 875 421 874 424 874 425 873 427 873 429 871 430 871 431 870 432 870 438 864 438 863 439 862 439 861 440 860 440 858 441 857 441 854 442 853 442 848 443 847 443 840 444 839 444 833 445 832 445 823 446 822 446 816 448 814 450 814 451 813 455 813 456 814 457 814 459 816 460 816 461 817 462 817 464 819 470 819 471 818 472 818 476 814 477 814 481 810 482 810 482 809 484 807 484 806 485 805 485 801 484 800 484 788 485 787 485 786 487 784 487 783 489 781 489 780 490 779 490 778 492 776 492 775 494 773 495 773 496 772 497 772 498 771 499 771 500 770 501 770 502 769 505 769 506 768 507 768 510 765 510 762 511 761 511 756 512 755 512 749 511 748 511 747 508 744 507 744 504 741 504 740 502 738 502 736 501 735 501 732 500 731 500 723 499 722 499 716 500 715 500 714 501 713 501 712 503 710 503 709 506 706 506 705 507 704 507 701 506 700 506 699 505 698 505 697 504 696 504 695 501 692 501 691 499 689 499 688 497 686 487 686 486 685 485 685 484 684 484 683 483 682 483 678 484 677 484 676 488 672 488 671 494 665 494 664 501 657 501 656 508 649 508 648 521 635 521 634 534 621 534 620 559 595 559 594 583 570 583 569 589 563 589 562 593 558 593 557 595 555 595 554 597 552 597 551 598 550 598 549 599 548 599 547 600 546 600 545 601 544 601 543 602 542 602 541 603 540 603 539 604 538 604 537 605 536 605 534 606 533 606 532 607 531 607 529 608 528 608 525 609 524 609 522 610 521 610 517 611 516 611 512 612 511 612 504 613 503 613 480 612 479 612 471 611 470 611 467 610 466 610 463 609 462 609 460 608 459 608 457 607 456 607 454 606 453 606 452 605 451 605 449 604 448 604 447 603 446 603 445 602 444 602 443 601 442 601 441 600 440 600 439 599 438 599 437 597 435 597 434 596 433 596 432 594 430 594 429 591 426 591 425 587 421 587 420 577 410 576 410 573 407 572 407 570 405 569 405 567 403 566 403 565 402 564 402 563 401 562 401 560 399 558 399 557 398 556 398 555 397 553 397 552 396 550 396 549 395 546 395 545 394 541 394 540 393 531 393 530 392 529 393 528 393 Z M 384 765 385 764 395 764 396 765 399 765 400 766 402 766 403 767 404 767 405 768 407 768 408 769 409 769 410 770 412 770 413 771 415 771 416 772 419 772 420 773 420 778 421 779 421 791 420 792 410 792 409 791 406 791 405 790 403 790 402 789 400 789 399 788 398 788 397 787 396 787 395 786 394 786 392 784 391 784 389 782 388 782 379 773 379 772 377 770 377 769 375 767 375 766 376 765 Z M 313 762 323 762 324 763 332 763 333 764 339 764 340 765 341 765 343 767 343 768 345 770 345 773 344 774 344 776 343 777 343 778 342 779 342 780 341 781 341 782 340 783 340 784 339 785 339 787 338 788 338 791 339 792 339 793 346 800 346 801 349 804 350 804 351 805 356 805 357 804 359 804 360 803 362 803 363 802 367 802 368 803 370 803 372 805 373 805 375 807 376 807 378 809 379 809 380 810 381 810 384 813 385 813 387 815 388 815 391 818 391 819 392 820 392 821 393 822 393 824 394 825 394 827 395 828 395 829 396 830 396 832 397 833 399 833 400 834 411 834 412 833 415 833 416 834 416 838 417 839 416 840 416 843 413 846 411 846 410 847 403 847 402 846 397 846 396 845 393 845 392 844 390 844 389 843 387 843 386 842 384 842 383 841 382 841 381 840 380 840 379 839 378 839 377 838 376 838 375 837 374 837 373 836 372 836 371 835 370 835 368 833 367 833 365 831 364 831 359 826 358 826 341 809 341 808 328 795 328 794 319 785 319 784 311 776 311 775 308 772 308 768 309 767 309 766 Z M 415 724 416 723 425 723 426 724 427 724 428 725 429 725 434 730 434 731 435 732 435 733 436 734 436 742 435 743 435 745 434 746 434 747 429 752 428 752 426 754 424 754 423 755 415 755 414 754 413 754 412 753 411 753 406 748 406 747 405 746 405 744 404 743 404 736 405 735 405 733 406 732 406 731 412 725 413 725 414 724 Z M 464 709 466 711 466 712 468 714 468 715 469 716 469 717 470 718 470 719 471 720 471 723 472 724 472 726 473 727 473 732 474 733 474 744 473 745 473 750 472 751 472 754 471 755 471 757 470 758 470 759 469 760 469 762 468 763 468 764 466 766 466 767 464 769 464 770 461 773 461 774 458 777 457 777 452 782 451 782 449 784 448 783 448 774 449 773 449 759 450 758 450 751 451 750 451 744 452 743 452 736 453 735 453 730 454 729 454 726 455 725 455 724 456 723 456 722 457 721 457 720 458 719 458 718 459 717 459 716 460 715 460 714 461 713 461 712 Z M 414 686 415 685 417 685 418 686 418 687 416 689 416 690 414 692 414 693 413 694 413 695 411 697 411 698 410 699 410 700 409 701 409 702 408 703 408 704 407 705 407 706 395 718 395 719 392 722 392 723 391 724 391 725 389 727 389 728 387 730 384 730 383 731 376 731 375 732 369 732 368 731 368 727 369 726 369 723 370 722 370 720 371 719 371 717 372 716 372 715 373 714 373 713 374 712 374 711 376 709 376 708 380 704 380 703 383 700 384 700 388 696 389 696 391 694 392 694 393 693 394 693 396 691 397 691 398 690 400 690 401 689 402 689 403 688 405 688 406 687 409 687 410 686 Z" />
<path d="M 737 311 736 312 735 312 734 313 733 313 731 315 731 316 730 317 730 318 729 319 729 330 730 331 730 346 731 347 731 363 732 364 732 375 733 376 733 387 734 388 734 402 735 403 735 413 736 414 736 416 738 418 739 418 740 419 741 419 742 420 747 420 748 421 749 420 754 420 755 419 756 419 757 418 758 418 760 416 760 415 761 414 761 408 762 407 762 397 763 396 763 385 764 384 764 372 765 371 765 361 766 360 766 348 767 347 767 336 768 335 768 318 767 317 767 316 765 314 765 313 764 313 763 312 762 312 761 311 Z" />
<path d="M 443 265 442 266 438 266 437 267 435 267 434 268 433 268 426 275 426 276 425 277 425 278 424 279 424 280 423 281 423 294 424 295 424 297 425 298 425 299 432 306 433 306 435 308 437 308 438 309 440 309 441 310 450 310 451 309 453 309 454 308 455 308 458 305 459 305 460 304 460 303 463 300 463 299 464 298 464 297 465 296 465 295 466 294 466 281 465 280 465 279 464 278 464 277 463 276 463 275 460 272 460 271 459 271 457 269 456 269 454 267 452 267 451 266 447 266 446 265 Z" />
<path d="M 740 253 739 254 730 254 729 255 724 255 723 256 719 256 718 257 715 257 714 258 711 258 710 259 707 259 706 260 704 260 703 261 702 261 701 262 699 262 698 263 697 263 696 264 694 264 693 265 692 265 691 266 690 266 689 267 688 267 687 268 686 268 685 269 684 269 683 270 682 270 681 271 680 271 678 273 677 273 676 274 675 274 673 276 672 276 670 278 669 278 666 281 665 281 660 286 659 286 644 301 644 302 640 306 640 307 637 310 637 311 635 313 635 314 633 316 633 317 631 319 631 320 630 321 630 322 629 323 629 324 628 325 628 326 627 327 627 328 626 329 626 330 625 331 625 332 624 333 624 334 623 335 623 336 622 337 622 339 621 340 621 341 620 342 620 344 619 345 619 347 618 348 618 351 617 352 617 354 616 355 616 359 615 360 615 364 614 365 614 370 613 371 613 380 612 381 612 400 613 401 613 409 614 410 614 415 615 416 615 420 616 421 616 424 617 425 617 428 618 429 618 431 619 432 619 434 620 435 620 437 621 438 621 440 622 441 622 442 623 443 623 445 624 446 624 447 625 448 625 449 626 450 626 451 627 452 627 453 628 454 628 455 629 456 629 457 630 458 630 459 632 461 632 462 633 463 633 464 635 466 635 467 637 469 637 470 640 473 640 474 644 478 644 479 660 495 661 495 665 499 666 499 669 502 670 502 672 504 673 504 675 506 676 506 678 508 679 508 680 509 681 509 683 511 684 511 685 512 686 512 687 513 688 513 689 514 690 514 691 515 692 515 693 516 695 516 696 517 697 517 698 518 700 518 701 519 703 519 704 520 706 520 707 521 709 521 710 522 713 522 714 523 717 523 718 524 721 524 722 525 727 525 728 526 737 526 738 527 758 527 759 526 767 526 768 525 774 525 775 524 778 524 779 523 782 523 783 522 786 522 787 521 789 521 790 520 792 520 793 519 795 519 796 518 798 518 799 517 800 517 801 516 803 516 804 515 805 515 806 514 807 514 808 513 809 513 810 512 811 512 812 511 813 511 814 510 815 510 817 508 818 508 819 507 820 507 822 505 823 505 825 503 826 503 828 501 829 501 832 498 833 498 838 493 839 493 851 481 851 480 856 475 856 474 859 471 859 470 861 468 861 467 863 465 863 464 865 462 865 461 867 459 867 458 868 457 868 456 869 455 869 454 870 453 870 452 871 451 871 450 872 449 872 448 873 447 873 446 874 445 874 443 875 442 875 441 876 440 876 439 877 438 877 436 878 435 878 433 879 432 879 430 880 429 880 426 881 425 881 422 882 421 882 418 883 417 883 412 884 411 884 405 885 404 885 375 884 374 884 368 883 367 883 362 882 361 882 358 881 357 881 354 880 353 880 351 879 350 879 348 878 347 878 345 877 344 877 342 876 341 876 339 875 338 875 337 874 336 874 335 873 334 873 333 872 332 872 330 871 329 871 328 870 327 870 326 868 324 868 323 867 322 867 321 866 320 866 319 864 317 864 316 862 314 862 313 860 311 860 310 857 307 857 306 854 303 854 302 837 285 836 285 832 281 831 281 829 279 828 279 825 276 824 276 823 275 822 275 820 273 819 273 817 271 816 271 815 270 814 270 813 269 812 269 811 268 810 268 809 267 808 267 807 266 806 266 805 265 803 265 802 264 801 264 800 263 799 263 798 262 796 262 795 261 793 261 792 260 790 260 789 259 787 259 786 258 783 258 782 257 779 257 778 256 774 256 773 255 767 255 766 254 758 254 757 253 Z M 738 278 739 277 759 277 760 278 766 278 767 279 772 279 773 280 777 280 778 281 780 281 781 282 784 282 785 283 786 283 787 284 789 284 790 285 792 285 793 286 794 286 795 287 796 287 797 288 798 288 799 289 800 289 801 290 802 290 803 291 804 291 806 293 807 293 808 294 809 294 811 296 812 296 814 298 815 298 819 302 820 302 825 307 826 307 831 312 831 313 837 319 837 320 840 323 840 324 842 326 842 327 844 329 844 330 846 332 846 333 847 334 847 335 848 336 848 337 850 339 850 341 851 342 851 343 852 344 852 345 853 346 853 347 854 348 854 350 855 351 855 352 856 353 856 355 857 356 857 358 858 359 858 362 859 363 859 367 860 368 860 372 861 373 861 380 862 381 862 399 861 400 861 407 860 408 860 412 859 413 859 416 858 417 858 420 857 421 857 423 856 424 856 426 855 427 855 429 854 430 854 432 853 433 853 434 852 435 852 436 851 437 851 438 850 439 850 440 849 441 849 442 848 443 848 444 847 445 847 446 845 448 845 449 844 450 844 451 842 453 842 454 839 457 839 458 835 462 835 463 821 477 820 477 816 481 815 481 813 483 812 483 810 485 809 485 807 487 806 487 805 488 804 488 802 490 801 490 800 491 799 491 798 492 797 492 796 493 795 493 794 494 792 494 791 495 790 495 789 496 787 496 786 497 785 497 784 498 782 498 781 499 778 499 777 500 774 500 773 501 770 501 769 502 764 502 763 503 750 503 749 504 741 504 740 503 732 503 731 502 726 502 725 501 722 501 721 500 718 500 717 499 715 499 714 498 712 498 711 497 710 497 709 496 707 496 706 495 705 495 704 494 702 494 701 493 700 493 699 492 698 492 697 491 696 491 694 489 693 489 692 488 691 488 689 486 688 486 687 485 686 485 683 482 682 482 679 479 678 479 671 472 670 472 665 467 665 466 660 461 660 460 656 456 656 455 654 453 654 452 652 450 652 449 651 448 651 447 650 446 650 445 648 443 648 442 647 441 647 440 646 439 646 438 645 437 645 435 644 434 644 433 643 432 643 430 642 429 642 427 641 426 641 424 640 423 640 421 639 420 639 417 638 416 638 413 637 412 637 407 636 406 636 396 635 395 635 384 636 383 636 375 637 374 637 369 638 368 638 365 639 364 639 361 640 360 640 357 641 356 641 354 642 353 642 351 643 350 643 349 644 348 644 346 645 345 645 344 646 343 646 342 647 341 647 340 648 339 648 338 649 337 649 336 650 335 650 334 651 333 651 332 653 330 653 329 655 327 655 326 657 324 657 323 661 319 661 318 677 302 678 302 681 299 682 299 685 296 686 296 688 294 689 294 690 293 691 293 693 291 694 291 695 290 696 290 697 289 698 289 699 288 700 288 701 287 702 287 703 286 705 286 706 285 707 285 708 284 710 284 711 283 713 283 714 282 716 282 717 281 720 281 721 280 724 280 725 279 730 279 731 278 Z" />
<path d="M 377 168 376 169 372 169 371 170 369 170 368 171 367 171 366 172 365 172 364 173 363 173 360 176 359 176 356 179 356 180 353 183 353 184 352 185 352 186 351 187 351 188 350 189 350 191 349 192 349 195 348 196 348 206 349 207 349 210 350 211 350 212 351 213 351 215 353 217 353 218 354 219 354 220 371 237 372 237 381 246 382 246 389 253 390 253 395 258 392 261 391 261 389 263 388 263 387 264 386 264 384 266 383 266 381 268 380 268 378 270 377 270 375 272 374 272 373 273 372 273 370 275 369 275 368 276 367 276 365 278 364 278 363 279 362 279 360 281 359 281 357 283 356 283 355 284 354 284 352 286 351 286 350 287 349 287 347 289 346 289 344 291 343 291 341 293 340 293 338 295 337 295 335 297 334 297 332 299 331 299 329 301 328 301 326 303 325 303 323 305 322 305 320 307 319 307 317 309 316 309 314 311 313 311 312 312 311 312 308 315 307 315 306 316 305 316 303 318 302 318 299 321 298 321 296 323 295 323 293 325 292 325 290 327 289 327 287 329 286 329 283 332 282 332 280 334 279 334 277 336 276 336 273 339 272 339 267 344 266 344 255 355 255 356 252 359 252 360 250 362 250 363 248 365 248 366 246 368 246 369 245 370 245 372 244 373 244 374 243 375 243 376 242 377 242 379 241 380 241 382 240 383 240 385 239 386 239 390 238 391 238 398 237 399 237 405 238 406 238 413 239 414 239 417 240 418 240 421 241 422 241 423 242 424 242 426 243 427 243 428 244 429 244 430 245 431 245 432 247 434 247 435 249 437 249 438 252 441 252 442 254 444 254 449 253 450 253 454 252 455 252 459 251 460 251 463 250 464 250 468 249 469 249 472 248 473 248 477 247 478 247 479 246 480 234 480 233 479 233 477 234 476 234 474 235 473 235 470 236 469 236 466 235 466 234 465 233 465 232 464 231 464 230 463 229 463 228 462 227 462 226 461 225 461 224 460 223 460 222 459 221 459 220 458 219 458 218 457 217 457 216 456 215 456 214 455 212 455 211 454 210 454 209 453 208 453 207 452 206 452 205 451 203 451 202 450 200 450 199 449 196 449 195 450 193 450 190 453 189 453 189 454 187 456 187 457 186 458 186 459 185 460 185 461 184 462 184 463 183 464 183 465 182 466 182 467 181 468 181 470 180 471 180 472 179 473 179 474 178 475 178 476 177 477 177 478 175 480 175 482 174 483 174 484 173 485 173 493 174 494 174 495 175 496 175 497 176 498 177 498 178 499 179 499 180 500 181 500 182 501 183 501 184 502 185 502 186 503 187 503 188 504 190 504 191 505 192 505 193 506 194 506 195 507 196 507 197 508 198 508 199 509 200 509 201 510 202 510 203 511 205 511 206 512 207 512 208 513 215 513 216 512 217 512 221 508 221 507 222 506 223 507 224 507 225 508 227 508 228 509 229 509 230 510 231 510 232 511 234 511 235 512 236 512 237 513 238 513 239 514 241 514 242 515 243 515 244 516 246 516 247 517 248 517 249 518 251 518 252 519 253 519 254 520 256 520 257 521 261 521 262 522 266 522 267 521 270 521 271 520 273 520 274 519 275 519 277 517 278 517 279 516 279 515 281 513 281 512 282 511 282 510 283 509 283 508 284 507 284 506 285 505 285 504 286 503 286 502 287 501 287 499 288 498 288 497 289 496 289 494 290 493 290 492 292 490 292 489 297 484 298 484 299 483 300 483 301 482 309 482 310 483 312 483 313 484 315 484 316 485 317 485 318 486 321 486 322 487 323 487 324 488 326 488 327 489 329 489 330 490 332 490 333 491 334 491 335 492 337 492 338 493 340 493 341 494 343 494 344 495 345 495 346 496 348 496 349 497 351 497 352 498 353 498 354 499 356 499 357 500 359 500 360 501 361 501 362 502 364 502 365 503 366 503 367 504 369 504 370 505 371 505 372 506 374 506 375 507 376 507 377 508 379 508 380 509 382 509 383 510 384 510 385 511 387 511 388 512 389 512 390 513 392 513 393 514 394 514 395 515 397 515 398 516 399 516 400 517 402 517 403 518 405 518 406 519 407 519 409 521 409 522 408 523 408 524 406 526 406 527 405 528 405 529 403 531 403 532 401 534 401 535 400 536 400 537 398 539 398 541 397 542 397 543 396 544 396 549 395 550 395 552 396 553 396 558 397 559 397 560 398 561 398 562 399 563 399 564 401 566 401 567 406 572 407 572 409 574 410 574 411 575 412 575 413 576 414 576 415 577 417 577 418 578 422 578 423 579 428 579 429 578 432 578 433 577 434 577 435 576 436 576 437 575 438 575 446 567 446 566 448 564 448 563 450 561 450 560 451 559 451 558 453 556 453 555 455 553 455 552 456 551 456 550 458 548 458 547 459 546 459 545 461 543 461 542 462 541 462 540 463 539 463 538 465 536 465 535 466 534 466 533 467 532 467 531 468 530 468 529 469 528 470 528 472 530 473 530 476 533 477 533 479 535 480 535 482 537 483 537 484 538 485 538 487 540 488 540 490 542 491 542 493 544 494 544 495 545 496 545 498 547 499 547 500 548 501 548 502 549 503 549 504 550 505 550 506 551 507 551 508 552 510 552 511 553 512 553 513 554 515 554 516 555 519 555 520 556 525 556 526 557 533 557 534 556 540 556 541 555 543 555 544 554 546 554 547 553 548 553 549 552 551 552 552 551 553 551 555 549 556 549 559 546 560 546 568 538 568 537 570 535 570 534 572 532 572 531 573 530 573 529 574 528 574 527 575 526 575 524 576 523 576 521 577 520 577 518 578 517 578 513 579 512 579 496 578 495 578 491 577 490 577 488 576 487 576 485 575 484 575 482 574 481 574 480 573 479 573 478 572 477 572 476 570 474 570 473 568 471 568 470 562 464 562 463 558 459 557 459 554 456 553 456 551 454 550 454 548 452 547 452 545 450 544 450 543 449 542 449 540 447 539 447 537 445 536 445 534 443 533 443 532 442 531 442 529 440 528 440 526 438 525 438 524 437 523 437 521 435 520 435 519 434 518 434 516 432 515 432 514 431 513 431 511 429 510 429 509 428 508 428 507 427 506 427 504 425 503 425 501 423 500 423 499 422 498 422 497 421 496 421 494 419 493 419 492 418 491 418 489 416 488 416 487 415 486 415 485 414 484 414 483 413 482 413 481 412 480 412 479 411 478 411 476 409 475 409 474 408 473 408 472 407 471 407 470 406 469 406 468 405 467 405 466 404 465 404 463 402 462 402 461 401 460 401 459 400 458 400 457 399 456 399 455 398 454 398 453 397 452 397 451 396 449 396 448 395 447 395 446 394 445 394 444 393 443 393 442 392 441 392 440 391 439 391 438 390 437 390 436 389 435 389 434 388 433 388 432 387 430 387 429 386 428 386 427 385 426 385 425 384 424 384 423 383 422 383 421 382 420 382 419 381 417 381 416 380 415 380 414 379 413 379 412 378 410 378 409 377 408 377 407 376 406 376 405 375 403 375 402 374 401 374 400 373 398 373 397 372 396 372 395 371 393 371 392 370 391 370 390 369 389 369 388 368 386 368 385 367 384 367 383 366 382 366 381 365 380 365 379 364 377 364 376 363 375 363 374 362 373 362 371 360 371 358 372 357 372 355 373 354 373 353 374 352 374 351 376 349 376 348 381 343 382 343 384 341 385 341 386 340 387 340 388 339 390 339 391 338 395 338 396 337 398 337 399 338 402 338 403 339 406 339 407 340 410 340 411 341 415 341 416 342 421 342 422 343 427 343 428 344 435 344 436 345 447 345 448 344 454 344 455 343 458 343 459 342 461 342 462 341 464 341 465 340 466 340 467 339 468 339 469 338 470 338 471 337 472 337 474 335 475 335 481 329 482 329 483 328 483 327 491 319 491 318 492 317 492 316 494 314 494 313 495 312 495 311 496 310 496 308 497 307 497 306 498 305 498 302 499 301 499 298 500 297 500 278 499 277 499 273 498 272 498 270 497 269 497 268 496 267 496 265 495 264 495 263 494 262 494 261 492 259 492 258 491 257 491 256 487 252 487 251 482 246 481 246 478 243 477 243 475 241 474 241 472 239 471 239 470 238 469 238 467 236 466 236 464 234 463 234 459 230 458 230 454 226 453 226 446 219 445 219 436 210 435 210 420 195 419 195 408 184 408 183 399 174 398 174 396 172 395 172 394 171 393 171 392 170 390 170 389 169 386 169 385 168 Z M 354 455 356 455 357 456 359 456 360 457 361 457 362 458 364 458 365 459 366 459 367 460 368 460 369 461 371 461 372 462 373 462 374 463 375 463 376 464 377 464 378 465 379 465 380 466 381 466 382 467 383 467 384 468 385 468 386 469 387 469 388 470 389 470 390 471 392 471 393 472 394 472 395 473 396 473 397 474 398 474 399 475 400 475 401 476 402 476 403 477 404 477 405 478 406 478 408 480 409 480 410 481 411 481 412 482 413 482 414 483 415 483 416 484 417 484 418 485 419 485 420 486 421 486 423 488 424 488 425 489 426 489 427 490 428 490 429 491 430 491 431 492 432 492 433 493 434 493 435 494 436 494 437 495 438 495 439 496 438 497 438 498 437 499 437 500 436 501 436 502 435 503 435 504 434 505 434 506 433 507 433 508 432 509 431 509 430 508 429 508 428 507 427 507 426 506 425 506 424 505 422 505 421 504 420 504 419 503 418 503 417 502 415 502 414 501 413 501 412 500 411 500 410 499 408 499 407 498 406 498 405 497 404 497 403 496 401 496 400 495 399 495 398 494 396 494 395 493 394 493 393 492 392 492 391 491 389 491 388 490 387 490 386 489 385 489 384 488 382 488 381 487 380 487 379 486 377 486 376 485 375 485 374 484 372 484 371 483 370 483 369 482 367 482 366 481 365 481 364 480 363 480 362 479 361 479 360 478 358 478 357 477 356 477 355 476 354 476 353 475 351 475 350 474 349 474 348 473 346 473 345 472 343 472 342 471 341 471 340 470 338 470 337 469 336 469 335 468 333 468 332 467 332 466 333 465 336 465 337 464 339 464 340 463 341 463 342 462 343 462 344 461 346 461 348 459 349 459 351 457 352 457 Z M 438 248 439 247 450 247 451 248 454 248 455 249 457 249 458 250 460 250 461 251 462 251 464 253 465 253 466 254 467 254 471 258 472 258 475 261 475 262 478 265 478 266 480 268 480 269 481 270 481 271 482 272 482 274 483 275 483 278 484 279 484 294 483 295 483 298 482 299 482 301 481 302 481 303 480 304 480 305 479 306 479 307 478 308 478 309 476 311 476 312 468 320 467 320 464 323 463 323 462 324 460 324 459 325 458 325 457 326 455 326 454 327 449 327 448 328 441 328 440 327 436 327 435 326 433 326 432 325 430 325 429 324 428 324 427 323 426 323 425 322 424 322 422 320 421 320 419 318 418 318 414 314 414 313 411 310 411 309 410 308 410 307 409 306 409 305 408 304 408 303 407 302 407 300 406 299 406 296 405 295 405 280 406 279 406 276 407 275 407 273 408 272 408 271 409 270 409 269 410 268 410 267 411 266 411 265 414 262 414 261 418 257 419 257 422 254 423 254 425 252 426 252 427 251 428 251 429 250 431 250 432 249 434 249 435 248 Z M 377 189 378 188 383 188 384 189 385 189 386 190 387 190 392 195 392 196 393 197 393 205 392 206 392 207 391 208 391 209 388 212 387 212 385 214 376 214 375 213 374 213 368 207 368 197 369 196 369 195 374 190 375 190 376 189 Z" />
<path d="M 175 163 Z" />
<path d="M 202 125 201 126 199 126 198 127 196 127 194 129 193 129 192 130 191 130 183 138 183 139 182 140 182 141 180 143 180 145 179 146 179 148 178 149 178 151 177 152 177 164 178 165 178 168 179 169 179 171 180 172 180 173 181 174 181 175 183 177 183 178 190 185 191 185 193 187 194 187 195 188 197 188 198 189 200 189 201 190 204 190 205 191 215 191 216 190 219 190 220 189 221 189 222 188 224 188 225 187 227 187 228 186 232 186 233 185 244 185 245 186 249 186 250 187 253 187 254 188 256 188 257 189 258 189 259 190 261 190 263 192 264 192 266 194 267 194 275 202 276 202 279 205 280 205 281 206 282 206 283 207 284 207 285 208 286 208 287 209 290 209 291 210 300 210 301 209 305 209 306 208 309 208 310 207 312 207 313 206 316 206 317 205 328 205 329 206 332 206 333 207 335 207 336 208 338 208 338 206 337 205 337 196 338 195 338 190 339 189 339 187 340 186 340 184 341 183 341 182 342 181 342 180 344 178 344 177 347 174 347 173 348 172 349 172 349 171 347 171 346 170 343 170 342 169 341 169 340 168 339 168 338 167 337 167 336 166 335 166 334 165 333 165 329 161 328 161 318 151 317 151 315 149 314 149 313 148 312 148 311 147 310 147 309 146 307 146 306 145 304 145 303 144 290 144 289 145 287 145 286 146 284 146 283 147 281 147 280 148 278 148 277 149 274 149 273 150 262 150 261 149 257 149 256 148 254 148 253 147 251 147 250 146 249 146 248 145 247 145 246 144 245 144 243 142 242 142 240 140 239 140 232 133 231 133 228 130 227 130 225 128 224 128 223 127 221 127 220 126 218 126 217 125 Z M 294 164 295 163 299 163 300 164 302 164 303 165 304 165 305 166 306 166 308 168 308 169 310 171 310 173 311 174 311 180 310 181 310 183 304 189 303 189 302 190 300 190 299 191 295 191 294 190 292 190 291 189 290 189 284 183 284 181 283 180 283 174 284 173 284 171 290 165 291 165 292 164 Z M 205 146 206 145 214 145 215 146 216 146 218 148 219 148 220 149 220 150 222 152 222 153 223 154 223 160 222 161 222 163 221 164 221 165 217 169 216 169 215 170 213 170 212 171 208 171 207 170 205 170 204 169 203 169 202 168 201 168 200 167 200 166 198 164 198 163 197 162 197 154 198 153 198 152 199 151 199 150 201 148 202 148 204 146 Z" />
</g>
</svg>