<svg height="1024" width="1024" xmlns="http://www.w3.org/2000/svg">
<g fill="black" fill-rule="evenodd">
<path d="M 457 507 Z" />
<path d="M 457 505 Z" />
<path d="M 747 434 746 435 742 435 741 436 740 436 739 437 738 437 732 443 732 444 731 445 731 446 730 447 730 452 729 453 729 454 730 455 730 458 731 459 731 461 732 462 732 463 738 469 739 469 740 470 741 470 742 471 745 471 746 472 750 472 751 471 754 471 755 470 756 470 757 469 758 469 759 468 760 468 763 465 763 464 765 462 765 461 766 460 766 458 767 457 767 449 766 448 766 446 765 445 765 444 764 443 764 442 760 438 759 438 758 437 757 437 756 436 755 436 754 435 750 435 749 434 Z" />
<path d="M 469 422 Z" />
<path d="M 737 311 736 312 735 312 734 313 733 313 731 315 731 316 730 317 730 318 729 319 729 327 730 328 730 347 731 348 731 364 732 365 732 376 733 377 733 389 734 390 734 404 735 405 735 413 736 414 736 416 739 419 741 419 742 420 746 420 747 421 750 421 751 420 754 420 755 419 756 419 757 418 758 418 759 417 759 416 761 414 761 408 762 407 762 397 763 396 763 385 764 384 764 373 765 372 765 361 766 360 766 348 767 347 767 333 768 332 768 318 767 317 767 316 763 312 761 312 760 311 Z" />
<path d="M 113 283 112 284 110 284 109 285 108 285 106 287 105 287 102 290 102 291 101 292 101 293 100 294 100 337 101 338 101 339 102 340 102 341 105 344 106 344 108 346 109 346 110 347 112 347 113 348 295 348 296 347 297 347 300 344 300 343 301 342 301 340 302 339 302 338 303 337 318 337 319 338 329 338 330 339 333 339 334 340 337 340 338 341 339 341 340 342 342 342 343 343 344 343 345 344 346 344 348 346 349 346 351 348 352 348 358 354 359 354 367 362 367 363 368 363 382 377 383 377 387 381 388 381 391 384 392 384 394 386 395 386 396 387 397 387 398 388 399 388 401 390 402 390 403 391 405 391 406 392 407 392 408 393 409 393 410 394 412 394 413 395 415 395 416 396 419 396 420 397 424 397 425 398 433 398 434 399 447 399 448 400 448 432 449 433 449 434 450 435 450 436 455 441 455 442 458 445 458 446 459 447 459 508 458 509 451 509 450 510 448 510 444 514 444 515 443 516 443 651 442 652 442 653 440 655 439 655 438 656 437 656 436 657 435 657 434 658 433 658 431 660 430 660 427 663 426 663 417 672 417 673 414 676 414 677 411 680 411 681 410 682 410 683 408 685 408 686 407 687 407 688 406 689 406 690 405 691 405 693 404 694 404 695 403 696 403 698 402 699 402 701 401 702 401 705 400 706 400 711 399 712 399 768 400 769 438 769 438 756 439 755 439 717 440 716 440 713 441 712 441 711 442 710 442 709 443 708 443 707 446 704 446 703 451 698 452 698 455 695 456 695 457 694 458 694 459 693 460 693 461 692 463 692 464 691 469 691 470 690 505 690 506 691 510 691 511 692 514 692 515 693 516 693 517 694 518 694 520 696 521 696 523 698 524 698 529 703 529 704 531 706 531 707 533 709 533 710 534 711 534 712 535 713 535 715 536 716 536 719 537 720 537 768 538 769 576 769 576 709 575 708 575 704 574 703 574 701 573 700 573 698 572 697 572 695 571 694 571 693 570 692 570 690 569 689 569 688 568 687 568 686 567 685 567 684 565 682 565 681 564 680 564 679 561 676 561 675 555 669 555 668 552 665 551 665 546 660 545 660 543 658 542 658 541 657 540 657 539 656 538 656 537 655 536 655 535 654 534 654 533 653 533 517 532 516 532 515 531 514 531 513 529 511 528 511 527 510 525 510 524 509 519 509 518 510 516 508 516 451 517 450 517 448 518 447 518 446 520 444 520 443 522 441 522 440 524 438 524 437 526 435 526 434 527 433 527 432 528 431 528 405 529 404 529 400 530 399 533 399 534 398 537 398 538 397 541 397 542 396 544 396 545 395 547 395 548 394 549 394 550 393 552 393 553 392 554 392 555 391 556 391 558 389 559 389 560 388 561 388 563 386 564 386 566 384 567 384 571 380 572 380 583 369 584 369 602 351 602 350 603 349 603 347 604 346 604 344 605 343 605 340 606 339 606 338 607 337 607 335 608 334 608 332 609 331 609 330 610 329 610 328 611 327 611 325 612 324 612 323 613 322 613 321 614 320 614 319 615 318 615 317 617 315 617 314 618 313 618 312 620 310 620 309 622 307 622 306 625 303 625 302 628 299 628 298 631 295 631 294 630 295 619 295 618 296 614 296 613 297 609 297 608 298 606 298 605 299 603 299 602 300 600 300 599 301 598 301 597 302 596 302 595 303 594 303 593 304 592 304 591 305 590 305 589 306 588 306 586 308 585 308 582 311 581 311 574 318 573 318 551 340 550 340 545 345 544 345 542 347 541 347 539 349 538 349 537 350 536 350 535 351 533 351 532 352 530 352 529 353 525 353 524 354 474 354 474 355 473 356 473 357 472 358 472 359 471 360 471 361 470 362 470 363 469 364 469 365 468 366 468 367 467 368 467 369 466 370 466 371 465 372 465 373 464 374 464 375 463 376 463 377 464 378 465 378 466 379 468 379 469 380 470 380 471 381 472 381 473 382 474 382 475 383 476 383 477 384 478 384 479 385 480 385 481 386 482 386 483 387 484 387 485 388 486 388 487 389 488 389 489 390 488 391 488 392 487 393 487 394 486 395 486 396 484 398 484 399 483 400 483 401 482 402 482 403 481 404 481 405 480 406 480 407 479 408 479 409 478 410 478 411 476 413 476 414 475 415 475 416 474 417 474 418 473 419 473 420 472 421 472 422 470 424 470 425 469 426 469 427 468 428 468 429 467 430 466 429 466 425 467 424 467 415 468 414 468 407 469 406 469 399 470 398 468 396 467 396 466 395 465 395 464 394 463 394 462 393 460 393 459 392 458 392 457 391 456 391 455 390 454 390 453 389 452 389 451 388 450 388 449 387 448 387 447 386 446 386 445 385 444 385 442 383 443 382 443 381 445 379 445 378 446 377 446 376 447 375 447 374 448 373 448 372 449 371 449 370 450 369 450 368 451 367 451 366 452 365 452 364 453 363 453 362 454 361 454 360 456 358 456 357 457 356 457 355 458 354 432 354 431 353 428 353 427 352 426 352 425 351 424 351 423 350 422 350 421 349 420 349 418 347 417 347 413 343 412 343 406 337 405 337 400 332 399 332 394 327 393 327 388 322 387 322 383 318 382 318 379 315 378 315 375 312 374 312 371 309 370 309 369 308 368 308 366 306 365 306 364 305 363 305 362 304 361 304 360 303 359 303 358 302 357 302 356 301 355 301 354 300 353 300 352 299 350 299 349 298 347 298 346 297 344 297 343 296 340 296 339 295 334 295 333 294 327 294 326 293 302 293 301 292 301 289 300 288 300 287 297 284 296 284 295 283 Z" />
<path d="M 740 253 739 254 730 254 729 255 724 255 723 256 719 256 718 257 715 257 714 258 710 258 709 259 707 259 706 260 704 260 703 261 701 261 700 262 699 262 698 263 696 263 695 264 694 264 693 265 692 265 691 266 690 266 689 267 688 267 687 268 686 268 685 269 684 269 682 271 681 271 680 272 679 272 678 273 677 273 675 275 674 275 672 277 671 277 668 280 667 280 664 283 663 283 653 293 652 293 651 294 651 295 642 304 642 305 639 308 639 309 636 312 636 313 634 315 634 316 632 318 632 319 631 320 631 321 629 323 629 324 628 325 628 326 627 327 627 328 626 329 626 330 625 331 625 332 624 333 624 334 623 335 623 337 622 338 622 340 621 341 621 342 620 343 620 345 619 346 619 348 618 349 618 351 617 352 617 355 616 356 616 359 615 360 615 364 614 365 614 371 613 372 613 383 612 384 612 397 613 398 613 409 614 410 614 415 615 416 615 420 616 421 616 424 617 425 617 428 618 429 618 431 619 432 619 434 620 435 620 437 621 438 621 440 622 441 622 442 623 443 623 444 624 445 624 447 625 448 625 449 626 450 626 451 627 452 627 453 628 454 628 455 629 456 629 457 630 458 630 459 632 461 632 462 634 464 634 465 636 467 636 468 639 471 639 472 642 475 642 476 650 484 650 485 651 485 654 488 654 489 655 489 664 498 665 498 668 501 669 501 672 504 673 504 675 506 676 506 677 507 678 507 680 509 681 509 682 510 683 510 685 512 686 512 687 513 688 513 689 514 690 514 691 515 692 515 693 516 695 516 696 517 697 517 698 518 700 518 701 519 702 519 703 520 705 520 706 521 708 521 709 522 712 522 713 523 716 523 717 524 721 524 722 525 726 525 727 526 734 526 735 527 743 527 744 528 758 528 759 527 768 527 769 526 774 526 775 525 778 525 779 524 782 524 783 523 786 523 787 522 789 522 790 521 792 521 793 520 794 520 795 519 797 519 798 518 799 518 800 517 802 517 803 516 804 516 805 515 806 515 807 514 808 514 809 513 810 513 811 512 812 512 813 511 814 511 816 509 817 509 818 508 819 508 821 506 822 506 824 504 825 504 827 502 828 502 831 499 832 499 837 494 838 494 849 483 849 482 855 476 855 475 859 471 859 470 861 468 861 467 863 465 863 464 865 462 865 461 866 460 866 459 868 457 868 456 869 455 869 454 870 453 870 452 871 451 871 450 872 449 872 447 873 446 873 445 874 444 874 443 875 442 875 441 876 440 876 438 877 437 877 435 878 434 878 432 879 431 879 429 880 428 880 426 881 425 881 422 882 421 882 418 883 417 883 412 884 411 884 398 885 397 885 383 884 382 884 370 883 369 883 364 882 363 882 359 881 358 881 355 880 354 880 351 879 350 879 348 878 347 878 346 877 345 877 343 876 342 876 340 875 339 875 337 874 336 874 335 873 334 873 333 872 332 872 331 871 330 871 329 870 328 870 327 869 326 869 325 868 324 868 323 867 322 867 321 865 319 865 318 864 317 864 316 862 314 862 313 860 311 860 310 857 307 857 306 854 303 854 302 836 284 835 284 832 281 831 281 828 278 827 278 825 276 824 276 823 275 822 275 820 273 819 273 817 271 816 271 815 270 814 270 813 269 812 269 811 268 810 268 809 267 808 267 807 266 806 266 805 265 803 265 802 264 801 264 800 263 799 263 798 262 796 262 795 261 793 261 792 260 790 260 789 259 787 259 786 258 784 258 783 257 779 257 778 256 774 256 773 255 767 255 766 254 758 254 757 253 Z M 739 278 740 277 759 277 760 278 766 278 767 279 772 279 773 280 776 280 777 281 780 281 781 282 783 282 784 283 786 283 787 284 789 284 790 285 792 285 793 286 794 286 795 287 796 287 797 288 798 288 799 289 800 289 801 290 802 290 803 291 804 291 805 292 806 292 808 294 809 294 811 296 812 296 814 298 815 298 818 301 819 301 824 306 825 306 832 313 832 314 837 319 837 320 840 323 840 324 843 327 843 328 844 329 844 330 846 332 846 333 847 334 847 335 849 337 849 338 850 339 850 340 851 341 851 342 852 343 852 345 853 346 853 347 854 348 854 350 855 351 855 352 856 353 856 355 857 356 857 358 858 359 858 362 859 363 859 367 860 368 860 372 861 373 861 380 862 381 862 399 861 400 861 407 860 408 860 412 859 413 859 417 858 418 858 420 857 421 857 424 856 425 856 427 855 428 855 429 854 430 854 432 853 433 853 434 852 435 852 436 851 437 851 439 850 440 850 441 848 443 848 444 847 445 847 446 846 447 846 448 844 450 844 451 842 453 842 454 840 456 840 457 837 460 837 461 827 471 827 472 826 473 825 473 820 478 819 478 816 481 815 481 812 484 811 484 809 486 808 486 807 487 806 487 804 489 803 489 802 490 801 490 800 491 799 491 798 492 797 492 796 493 795 493 794 494 793 494 792 495 790 495 789 496 788 496 787 497 785 497 784 498 782 498 781 499 779 499 778 500 775 500 774 501 770 501 769 502 764 502 763 503 747 503 746 504 745 504 744 503 733 503 732 502 727 502 726 501 722 501 721 500 719 500 718 499 716 499 715 498 713 498 712 497 710 497 709 496 707 496 706 495 705 495 704 494 703 494 702 493 701 493 700 492 699 492 698 491 697 491 696 490 695 490 694 489 693 489 692 488 691 488 689 486 688 486 686 484 685 484 683 482 682 482 679 479 678 479 669 470 668 470 667 469 667 468 660 461 660 460 657 457 657 456 654 453 654 452 653 451 653 450 651 448 651 447 650 446 650 445 648 443 648 442 647 441 647 440 646 439 646 438 645 437 645 435 644 434 644 433 643 432 643 430 642 429 642 427 641 426 641 424 640 423 640 421 639 420 639 417 638 416 638 413 637 412 637 407 636 406 636 396 635 395 635 384 636 383 636 375 637 374 637 369 638 368 638 365 639 364 639 361 640 360 640 357 641 356 641 354 642 353 642 351 643 350 643 349 644 348 644 346 645 345 645 344 646 343 646 342 647 341 647 340 648 339 648 338 649 337 649 336 650 335 650 334 652 332 652 331 653 330 653 329 655 327 655 326 658 323 658 322 662 318 662 317 676 303 677 303 681 299 682 299 684 297 685 297 687 295 688 295 690 293 691 293 692 292 693 292 695 290 696 290 697 289 698 289 699 288 700 288 701 287 702 287 703 286 705 286 706 285 707 285 708 284 710 284 711 283 713 283 714 282 717 282 718 281 720 281 721 280 725 280 726 279 731 279 732 278 Z" />
</g>
</svg>