<svg height="1024" width="1024" xmlns="http://www.w3.org/2000/svg">
<g fill="black" fill-rule="evenodd">
<path d="M 525 749 Z" />
<path d="M 583 627 Z" />
<path d="M 535 627 Z" />
<path d="M 711 614 Z" />
<path d="M 754 598 Z" />
<path d="M 758 591 Z" />
<path d="M 767 544 Z" />
<path d="M 744 544 745 544 Z" />
<path d="M 703 544 Z" />
<path d="M 643 544 Z" />
<path d="M 597 544 Z" />
<path d="M 738 409 737 410 734 410 733 411 732 411 729 414 728 414 727 415 727 416 725 418 725 419 724 420 724 421 723 422 723 425 722 426 722 431 723 432 723 435 724 436 724 437 725 438 725 439 731 445 732 445 733 446 734 446 735 447 738 447 739 448 744 448 745 447 748 447 749 446 750 446 751 445 752 445 753 444 754 444 757 441 757 440 759 438 759 437 760 436 760 434 761 433 761 424 760 423 760 422 759 421 759 419 757 417 757 416 754 413 753 413 751 411 750 411 749 410 747 410 746 409 Z" />
<path d="M 880 408 Z" />
<path d="M 735 395 Z" />
<path d="M 730 281 729 282 728 282 727 283 726 283 724 285 724 286 723 287 723 288 722 289 722 312 723 313 723 327 724 328 724 339 725 340 725 350 726 351 726 361 727 362 727 373 728 374 728 385 729 386 729 388 730 389 730 390 732 392 734 392 735 393 748 393 749 392 750 392 751 391 752 391 753 390 753 389 754 388 754 387 755 386 755 382 756 381 756 369 757 368 757 355 758 354 758 343 759 342 759 330 760 329 760 314 761 313 761 298 762 297 762 290 761 289 761 286 759 284 759 283 758 283 757 282 755 282 754 281 Z" />
<path d="M 225 261 224 262 218 262 217 263 214 263 213 264 210 264 209 265 207 265 206 266 204 266 203 267 201 267 200 268 199 268 198 269 197 269 196 270 195 270 194 271 193 271 191 273 190 273 189 274 188 274 185 277 184 277 171 290 171 291 168 294 168 295 166 297 166 298 165 299 165 300 163 302 163 303 162 304 162 305 161 306 161 307 160 308 160 310 159 311 159 312 158 313 158 315 157 316 157 319 156 320 156 323 155 324 155 327 154 328 154 350 155 351 155 355 156 356 156 359 157 360 157 363 158 364 158 365 159 366 159 368 160 369 160 370 161 371 161 372 162 373 162 374 163 375 163 376 164 377 164 378 165 379 165 380 167 382 167 383 170 386 170 387 178 395 178 396 179 396 185 402 186 402 189 405 190 405 193 408 194 408 196 410 197 410 198 411 199 411 201 413 202 413 204 415 205 415 207 417 208 417 211 420 212 420 216 424 217 424 224 431 225 431 245 451 245 452 252 459 252 460 257 465 257 466 262 471 262 472 266 476 266 477 269 480 269 481 272 484 272 485 275 488 275 489 278 492 278 493 280 495 280 496 283 499 283 500 286 503 286 504 289 507 289 508 291 510 291 511 294 514 294 515 296 517 296 518 299 521 299 522 301 524 301 525 304 528 304 529 306 531 306 532 309 535 309 536 311 538 311 539 314 542 314 543 316 545 316 546 318 548 318 549 321 552 321 553 323 555 323 556 326 559 326 560 329 563 329 564 331 566 331 567 334 570 334 571 336 573 336 574 338 576 338 577 341 580 341 581 344 584 344 585 346 587 346 588 349 591 349 592 351 594 351 595 354 598 354 599 356 601 356 602 359 605 359 606 361 608 361 609 363 611 363 612 366 615 366 616 368 618 368 619 370 621 370 622 373 625 373 626 375 628 375 629 377 631 377 632 379 634 379 635 381 637 381 638 383 640 383 641 385 643 385 644 387 646 387 647 388 648 388 649 390 651 390 652 391 653 391 654 392 655 392 656 394 658 394 659 395 660 395 661 396 662 396 663 397 664 397 665 398 666 398 667 399 668 399 669 400 670 400 672 401 673 401 674 402 675 402 676 403 677 403 679 404 680 404 681 405 682 405 683 406 684 406 685 407 686 407 687 409 689 409 690 414 695 414 696 416 698 417 698 421 702 422 702 423 703 424 703 426 705 427 705 428 706 429 706 430 707 432 707 433 708 435 708 436 709 438 709 439 710 444 710 445 711 457 711 458 710 461 710 462 709 465 709 466 708 468 708 469 707 470 707 471 706 472 706 473 705 474 705 475 704 476 704 477 703 478 703 480 701 481 701 492 690 492 689 493 688 493 687 495 685 495 684 496 683 496 681 498 679 523 679 524 680 524 690 525 691 535 691 536 692 537 692 540 695 540 698 541 699 541 730 540 731 539 731 538 732 535 732 534 733 533 733 532 734 531 734 529 736 529 738 528 739 528 742 527 743 527 752 528 753 528 756 529 757 529 759 530 760 530 761 532 763 532 764 536 768 537 768 539 770 540 770 541 771 542 771 543 772 545 772 546 773 549 773 550 774 771 774 772 773 776 773 777 772 779 772 780 771 781 771 782 770 783 770 784 769 785 769 793 761 793 760 794 759 794 758 795 757 795 756 796 755 796 754 797 753 797 751 798 750 798 748 799 747 799 745 800 744 800 742 801 741 801 740 802 739 802 737 803 736 803 734 804 733 804 731 805 730 805 728 806 727 806 725 807 724 807 722 808 721 808 719 809 718 809 717 810 716 810 714 811 713 811 711 812 710 812 708 813 707 813 705 814 704 814 702 815 701 815 699 816 698 816 697 817 696 817 694 818 693 818 691 819 690 819 688 820 687 820 685 821 684 821 683 822 682 822 680 823 679 823 677 824 676 824 674 825 673 825 671 826 670 826 668 827 667 827 653 826 652 826 649 825 648 825 646 824 645 824 643 823 642 823 640 822 639 822 637 821 636 821 634 820 633 820 632 819 631 819 629 818 628 818 626 817 625 817 624 816 623 816 621 815 620 815 618 814 617 814 615 813 614 813 613 812 612 812 610 811 609 811 607 810 606 810 604 809 603 809 602 808 601 808 599 807 598 807 596 806 595 806 593 805 592 805 591 804 590 804 588 803 587 803 585 802 584 802 583 801 582 801 580 800 579 800 577 799 576 799 574 798 573 798 571 797 570 797 569 796 568 796 567 795 566 795 565 794 564 794 563 793 562 793 561 790 558 790 557 788 555 787 555 783 551 782 551 781 550 780 550 779 549 777 549 776 548 774 548 773 547 545 547 544 548 542 548 541 549 540 549 539 550 538 550 536 552 535 552 534 553 534 554 531 557 531 558 530 559 530 560 529 561 529 562 528 563 528 567 527 568 527 576 528 577 528 581 529 582 529 583 532 586 533 586 534 587 536 587 537 588 539 588 541 590 541 624 540 625 540 627 539 628 538 628 537 629 527 629 526 630 524 630 524 641 523 642 497 642 496 641 496 639 495 638 495 637 493 635 493 634 491 632 491 631 484 624 484 623 477 616 477 615 473 611 473 610 469 606 469 605 466 602 466 601 463 598 463 597 461 595 461 594 458 591 458 590 456 588 456 587 454 585 454 584 451 581 451 580 449 578 449 577 448 576 448 575 445 572 445 571 443 569 443 568 442 567 442 566 440 564 440 563 438 561 438 560 436 558 436 557 434 555 434 554 433 553 433 552 431 550 431 549 429 547 429 546 427 544 427 543 426 542 426 541 424 539 424 538 422 536 422 535 421 534 421 533 419 531 419 530 417 528 417 527 415 525 415 524 413 522 413 521 412 520 412 519 410 517 410 516 408 514 408 513 406 511 406 510 404 508 404 507 402 505 402 504 399 501 399 500 397 498 397 497 395 495 395 494 393 492 393 491 391 489 391 488 389 486 389 485 387 483 387 482 385 480 385 479 383 477 383 476 381 474 381 473 379 471 379 470 377 468 377 467 375 465 375 464 373 462 373 461 371 459 371 458 369 456 369 455 368 454 368 453 366 451 366 450 364 448 364 447 363 446 363 445 361 443 361 442 359 440 359 439 358 438 358 437 356 435 356 434 354 432 354 431 353 430 353 429 352 428 352 427 350 425 350 424 349 423 349 422 348 421 348 420 346 418 346 417 345 416 345 415 344 414 344 413 343 412 343 411 342 410 342 409 341 408 341 407 340 406 340 405 339 404 339 403 338 402 338 401 337 400 337 399 336 398 336 397 335 396 335 395 334 394 334 393 333 392 333 391 332 390 332 389 331 388 331 387 330 386 330 385 329 384 329 382 328 381 328 380 327 379 327 378 326 377 326 375 325 374 325 373 324 372 324 370 323 369 323 368 322 367 322 365 321 364 321 363 320 362 320 360 319 359 319 356 318 355 318 353 317 352 317 349 316 348 316 345 315 344 315 340 314 339 314 336 313 335 313 332 312 331 312 327 311 326 311 324 310 323 310 321 309 320 309 317 308 316 308 315 307 314 307 312 306 311 306 310 305 309 305 308 304 307 304 306 303 305 303 304 302 303 302 302 301 301 301 300 299 298 299 297 297 295 297 294 294 291 294 290 282 278 281 278 278 275 277 275 275 273 274 273 273 272 272 272 270 270 269 270 268 269 266 269 265 268 264 268 263 267 262 267 261 266 259 266 258 265 256 265 255 264 253 264 252 263 248 263 247 262 241 262 240 261 Z M 583 691 584 690 709 690 710 691 711 691 713 693 713 727 714 728 714 731 713 732 581 732 580 731 580 719 579 718 580 717 579 716 579 695 580 694 580 693 582 691 Z M 446 642 447 641 453 641 454 642 457 642 458 643 459 643 461 645 462 645 467 650 467 651 469 653 469 655 470 656 470 667 469 668 469 669 468 670 468 671 467 672 467 673 463 677 462 677 460 679 459 679 458 680 457 680 456 681 453 681 452 682 449 682 448 681 444 681 443 680 442 680 441 679 440 679 436 675 435 675 434 674 434 673 432 671 432 670 431 669 431 667 430 666 430 656 431 655 431 654 432 653 432 652 433 651 433 650 439 644 440 644 441 643 442 643 443 642 Z M 752 589 753 588 756 588 757 589 761 589 766 594 766 595 767 596 767 597 768 598 768 600 769 601 769 602 770 603 770 605 771 606 771 608 772 609 772 611 773 612 773 614 774 615 774 618 775 619 775 621 776 622 776 624 777 625 777 627 778 628 778 630 779 631 779 633 780 634 780 636 781 637 781 638 782 639 782 642 783 643 783 644 784 645 784 648 785 649 785 650 786 651 786 654 787 655 787 664 786 665 786 667 785 668 785 670 784 671 784 673 783 674 783 676 782 677 782 679 781 680 781 682 780 683 780 685 779 686 779 688 778 689 778 691 777 692 777 694 776 695 776 697 775 698 775 700 774 701 774 703 773 704 773 706 772 707 772 709 771 710 771 712 770 713 770 715 769 716 769 718 768 719 768 721 767 722 767 723 766 724 766 725 765 726 765 727 764 728 764 729 762 731 761 731 760 732 753 732 752 731 Z M 579 589 580 588 590 588 591 589 592 588 595 588 596 589 597 588 598 588 599 589 602 589 603 588 604 588 605 589 606 589 607 588 609 588 610 589 611 588 612 589 613 589 614 588 617 588 618 589 620 589 621 588 626 588 627 589 628 589 629 588 630 588 631 589 633 589 634 588 636 588 637 589 638 588 639 589 648 589 649 588 650 588 651 589 653 589 654 588 658 588 659 589 660 588 661 589 662 589 663 588 664 589 665 588 666 588 667 589 668 588 671 588 672 589 677 589 678 588 681 588 682 589 683 589 684 588 685 589 689 589 690 588 691 589 692 588 693 589 704 589 705 588 707 588 708 589 710 589 711 588 712 588 713 589 713 626 710 629 709 629 708 630 584 630 583 629 582 629 580 627 580 626 579 625 Z M 225 307 226 306 239 306 240 307 243 307 244 308 245 308 246 309 248 309 250 311 251 311 254 314 255 314 257 316 257 317 261 321 261 322 262 323 262 324 263 325 263 326 264 327 264 329 265 330 265 334 266 335 266 344 265 345 265 349 264 350 264 352 263 353 263 354 262 355 262 356 260 358 260 359 251 368 250 368 249 369 248 369 247 370 246 370 245 371 243 371 242 372 237 372 236 373 228 373 227 372 224 372 223 371 221 371 220 370 218 370 217 369 216 369 215 368 214 368 209 363 208 363 207 362 207 361 204 358 204 357 203 356 203 355 202 354 202 353 201 352 201 350 200 349 200 347 199 346 199 333 200 332 200 329 201 328 201 327 202 326 202 324 204 322 204 321 206 319 206 318 211 313 212 313 214 311 215 311 217 309 218 309 219 308 221 308 222 307 Z" />
<path d="M 733 221 732 222 723 222 722 223 716 223 715 224 711 224 710 225 707 225 706 226 703 226 702 227 700 227 699 228 696 228 695 229 694 229 693 230 691 230 690 231 688 231 687 232 686 232 685 233 684 233 683 234 681 234 680 235 679 235 678 236 677 236 676 237 675 237 674 238 673 238 671 240 670 240 669 241 668 241 666 243 665 243 663 245 662 245 660 247 659 247 656 250 655 250 652 253 651 253 632 272 632 273 628 277 628 278 626 280 626 281 623 284 623 285 622 286 622 287 620 289 620 290 619 291 619 292 617 294 617 295 616 296 616 297 615 298 615 299 614 300 614 301 613 302 613 303 612 304 612 305 611 306 611 308 610 309 610 310 609 311 609 313 608 314 608 316 607 317 607 318 606 319 606 321 605 322 605 325 604 326 604 329 603 330 603 332 602 333 602 337 601 338 601 344 600 345 600 353 599 354 599 374 600 375 600 384 601 385 601 391 602 392 602 395 603 396 603 399 604 400 604 403 605 404 605 406 606 407 606 409 607 410 607 412 608 413 608 415 609 416 609 418 610 419 610 420 611 421 611 422 612 423 612 425 613 426 613 427 614 428 614 429 615 430 615 431 616 432 616 433 618 435 618 436 619 437 619 438 621 440 621 441 622 442 622 443 624 445 624 446 627 449 627 450 630 453 630 454 634 458 634 459 645 470 646 470 652 476 653 476 657 480 658 480 660 482 661 482 663 484 664 484 666 486 667 486 668 487 669 487 671 489 672 489 673 490 674 490 675 491 676 491 677 492 678 492 679 493 680 493 681 494 682 494 683 495 684 495 685 496 686 496 687 497 689 497 690 498 691 498 692 499 694 499 695 500 697 500 698 501 700 501 701 502 703 502 704 503 707 503 708 504 711 504 712 505 716 505 717 506 722 506 723 507 734 507 735 508 750 508 751 507 760 507 761 506 767 506 768 505 772 505 773 504 776 504 777 503 780 503 781 502 783 502 784 501 786 501 787 500 789 500 790 499 792 499 793 498 794 498 795 497 797 497 798 496 799 496 800 495 801 495 802 494 803 494 804 493 805 493 806 492 807 492 808 491 809 491 810 490 811 490 812 489 813 489 815 487 816 487 817 486 818 486 820 484 821 484 823 482 824 482 827 479 828 479 831 476 832 476 839 469 840 469 848 461 848 460 853 455 853 454 857 450 857 449 860 446 860 445 862 443 862 442 863 441 863 440 865 438 865 437 867 435 867 434 868 433 868 432 869 431 869 430 870 429 870 428 871 427 871 426 872 425 872 423 873 422 873 421 874 420 874 419 875 418 875 416 876 415 876 413 877 412 877 410 878 409 878 407 879 406 879 404 880 403 880 400 881 399 881 396 882 395 882 391 883 390 883 385 884 384 884 374 885 373 885 353 884 352 884 344 883 343 883 337 882 336 882 333 881 332 881 328 880 327 880 325 879 324 879 321 878 320 878 318 877 317 877 315 876 314 876 313 875 312 875 310 874 309 874 308 873 307 873 306 872 305 872 304 871 303 871 301 870 300 870 299 869 298 869 297 867 295 867 294 866 293 866 292 865 291 865 290 863 288 863 287 861 285 861 284 859 282 859 281 856 278 856 277 852 273 852 272 834 254 833 254 829 250 828 250 825 247 824 247 822 245 821 245 819 243 818 243 817 242 816 242 814 240 813 240 812 239 811 239 810 238 809 238 808 237 807 237 806 236 805 236 804 235 803 235 802 234 801 234 800 233 798 233 797 232 796 232 795 231 793 231 792 230 791 230 790 229 788 229 787 228 784 228 783 227 781 227 780 226 777 226 776 225 773 225 772 224 768 224 767 223 762 223 761 222 752 222 751 221 Z M 730 247 731 246 752 246 753 247 760 247 761 248 766 248 767 249 771 249 772 250 774 250 775 251 778 251 779 252 781 252 782 253 784 253 785 254 786 254 787 255 789 255 790 256 791 256 792 257 793 257 794 258 795 258 796 259 797 259 798 260 799 260 800 261 801 261 802 262 803 262 805 264 806 264 807 265 808 265 811 268 812 268 814 270 815 270 820 275 821 275 832 286 832 287 837 292 837 293 839 295 839 296 841 298 841 299 843 301 843 302 845 304 845 305 846 306 846 307 847 308 847 309 848 310 848 311 849 312 849 313 850 314 850 315 851 316 851 317 852 318 852 320 853 321 853 322 854 323 854 325 855 326 855 328 856 329 856 332 857 333 857 335 858 336 858 340 859 341 859 346 860 347 860 355 861 356 861 373 860 374 860 381 859 382 859 387 858 388 858 391 857 392 857 395 856 396 856 399 855 400 855 402 854 403 854 405 853 406 853 407 852 408 852 410 851 411 851 412 850 413 850 414 849 415 849 416 848 417 848 418 847 419 847 420 846 421 846 422 845 423 845 424 844 425 844 426 842 428 842 429 840 431 840 432 838 434 838 435 834 439 834 440 818 456 817 456 813 460 812 460 810 462 809 462 806 465 805 465 804 466 803 466 802 467 801 467 799 469 798 469 797 470 796 470 795 471 794 471 793 472 792 472 791 473 789 473 788 474 787 474 786 475 784 475 783 476 781 476 780 477 778 477 777 478 775 478 774 479 771 479 770 480 767 480 766 481 761 481 760 482 752 482 751 483 734 483 733 482 725 482 724 481 720 481 719 480 714 480 713 479 711 479 710 478 707 478 706 477 704 477 703 476 701 476 700 475 699 475 698 474 696 474 695 473 694 473 693 472 692 472 691 471 690 471 689 470 688 470 687 469 686 469 685 468 684 468 683 467 682 467 680 465 679 465 678 464 677 464 675 462 674 462 672 460 671 460 667 456 666 456 659 449 658 449 657 448 657 447 649 439 649 438 646 435 646 434 644 432 644 431 642 429 642 428 640 426 640 425 639 424 639 423 638 422 638 421 636 419 636 417 635 416 635 415 634 414 634 413 633 412 633 411 632 410 632 408 631 407 631 406 630 405 630 403 629 402 629 400 628 399 628 397 627 396 627 393 626 392 626 389 625 388 625 383 624 382 624 373 623 372 623 359 624 358 624 348 625 347 625 342 626 341 626 338 627 337 627 333 628 332 628 330 629 329 629 327 630 326 630 324 631 323 631 321 632 320 632 319 633 318 633 316 634 315 634 314 635 313 635 312 636 311 636 310 637 309 637 308 638 307 638 306 640 304 640 303 641 302 641 301 643 299 643 298 645 296 645 295 648 292 648 291 653 286 653 285 663 275 664 275 668 271 669 271 672 268 673 268 676 265 677 265 678 264 679 264 681 262 682 262 683 261 684 261 685 260 686 260 687 259 688 259 689 258 690 258 691 257 692 257 693 256 694 256 695 255 697 255 698 254 699 254 700 253 702 253 703 252 705 252 706 251 708 251 709 250 712 250 713 249 716 249 717 248 722 248 723 247 Z" />
</g>
</svg>