<svg height="1024" width="1024" xmlns="http://www.w3.org/2000/svg">
<g fill="black" fill-rule="evenodd">
<path d="M 551 581 549 583 548 583 547 584 546 584 545 585 544 585 543 586 542 586 541 587 540 587 538 589 537 589 536 590 535 590 534 591 533 591 532 592 531 592 530 593 529 593 528 594 527 594 526 595 525 595 523 597 522 597 521 598 520 598 519 599 518 599 517 600 516 600 515 601 514 601 513 602 512 602 511 603 510 603 509 604 508 604 506 606 505 606 504 607 503 607 502 608 501 608 500 609 499 609 498 610 497 610 496 611 495 611 495 613 496 614 496 617 497 618 497 622 498 623 498 627 499 628 499 634 498 635 498 636 497 637 497 638 485 650 485 651 482 654 482 655 481 656 481 657 480 658 480 659 479 660 479 661 478 662 478 663 477 664 477 665 476 666 476 667 474 669 474 670 473 671 473 672 470 675 470 676 471 676 472 675 475 675 476 674 480 674 481 673 483 673 484 672 487 672 488 671 491 671 492 670 494 670 495 669 497 669 498 668 500 668 501 667 503 667 504 666 505 666 506 665 508 665 509 664 511 664 512 663 514 663 515 662 516 662 517 661 519 661 520 660 521 660 522 659 524 659 525 658 526 658 527 657 528 657 529 656 530 656 531 655 533 655 534 654 533 653 532 653 527 648 526 648 523 645 523 644 522 643 523 642 523 641 524 640 524 639 525 638 525 636 526 635 526 634 527 633 527 632 528 631 528 630 529 629 529 628 530 627 530 626 531 625 531 624 532 623 532 621 533 620 533 619 534 618 534 617 535 616 535 615 536 614 536 613 537 612 537 611 538 610 538 609 539 608 539 607 540 606 540 605 541 604 541 603 542 602 542 601 543 600 543 599 544 598 544 597 545 596 545 595 546 594 546 593 547 592 547 590 548 589 548 588 549 587 549 586 550 585 550 584 551 583 551 582 552 581 Z" />
<path d="M 444 497 443 498 442 498 441 499 440 499 439 500 438 500 437 501 435 501 434 502 433 502 432 503 430 503 429 504 428 504 427 505 426 505 425 506 423 506 422 507 420 507 419 508 417 508 416 509 414 509 413 510 411 510 410 511 408 511 407 512 404 512 403 513 401 513 400 514 397 514 396 515 393 515 392 516 388 516 387 517 383 517 382 518 377 518 377 520 378 521 378 524 379 525 379 527 380 528 380 531 381 532 381 535 382 536 382 539 383 540 383 542 384 543 384 546 385 547 385 550 386 551 386 553 387 554 387 557 388 558 388 561 389 562 389 564 390 565 390 568 391 569 391 572 392 573 392 575 393 576 393 579 394 580 394 583 395 584 395 587 396 588 396 590 397 591 397 594 398 595 398 598 399 599 399 601 400 602 400 605 401 606 401 608 402 609 402 612 403 613 403 616 404 617 404 620 405 621 405 623 406 624 406 627 407 628 407 630 408 631 408 634 409 635 409 638 410 639 410 641 411 642 411 645 412 646 412 648 413 649 413 652 414 653 414 656 415 657 415 659 416 660 416 663 417 664 417 667 418 668 418 670 419 671 419 674 420 675 420 677 421 678 421 681 422 682 422 684 423 685 423 688 424 689 424 692 425 693 425 695 426 696 426 699 427 700 427 703 428 704 428 706 429 707 429 710 430 711 430 713 431 714 431 717 432 718 432 721 433 722 433 724 434 725 434 728 435 729 435 732 436 733 436 736 437 737 437 739 438 740 438 743 439 744 439 747 440 748 440 750 441 751 441 754 442 755 442 758 443 759 443 761 444 762 444 765 445 766 445 769 446 770 446 772 447 773 447 776 448 777 448 780 449 781 449 783 450 784 450 787 451 788 451 791 452 792 452 794 453 795 453 798 454 799 454 802 455 803 455 805 456 806 456 809 457 810 457 813 458 814 458 815 459 816 460 816 461 817 463 817 464 818 518 818 519 817 521 817 522 816 523 816 527 812 527 811 528 810 528 808 529 807 529 802 528 801 528 799 527 798 527 795 526 794 526 791 525 790 525 788 524 787 524 784 523 783 523 780 522 779 522 776 521 775 521 773 520 772 520 769 519 768 519 765 518 764 518 761 517 760 517 758 516 757 516 754 515 753 515 750 514 749 514 747 513 746 513 743 512 742 512 739 511 738 511 736 510 735 510 732 509 731 509 728 508 727 508 724 507 723 507 721 506 720 506 717 505 716 505 713 504 712 504 709 503 708 503 706 502 705 502 702 501 701 501 698 500 697 500 694 499 693 499 691 498 690 498 687 497 686 497 684 493 684 492 685 489 685 488 686 485 686 484 687 481 687 480 688 477 688 476 689 474 689 473 690 471 690 470 691 468 691 467 692 465 692 464 693 462 693 461 694 459 694 458 695 456 695 455 696 453 696 452 697 451 697 450 698 448 698 447 699 445 699 444 700 443 700 442 699 442 698 443 697 443 696 445 694 445 693 446 692 446 691 447 690 447 689 449 687 449 686 450 685 450 684 451 683 451 682 452 681 452 680 453 679 453 678 455 676 455 675 456 674 456 673 457 672 457 671 458 670 458 669 459 668 459 667 461 665 461 664 462 663 462 662 463 661 463 660 464 659 464 658 466 656 466 655 467 654 467 653 469 651 469 650 470 649 470 648 472 646 472 645 477 640 477 639 480 636 480 635 482 633 482 632 483 631 483 630 484 629 484 625 483 624 483 622 482 621 482 619 481 618 481 615 480 614 480 613 479 612 479 610 478 609 478 607 477 606 477 604 476 603 476 601 475 600 475 597 474 596 474 594 473 593 473 591 472 590 472 587 471 586 471 584 470 583 470 580 469 579 469 576 468 575 468 573 467 572 467 569 466 568 466 565 465 564 465 562 464 561 464 558 463 557 463 555 462 554 462 551 461 550 461 547 460 546 460 544 459 543 459 540 458 539 458 536 457 535 457 533 456 532 456 529 455 528 455 526 454 525 454 522 453 521 453 518 452 517 452 515 451 514 451 511 450 510 450 508 449 507 449 505 448 504 448 501 447 500 447 498 446 497 Z" />
<path d="M 735 394 734 395 732 395 731 396 730 396 728 398 727 398 725 400 725 401 724 402 724 403 723 404 723 405 722 406 722 421 723 422 723 423 724 424 724 425 730 431 731 431 732 432 733 432 734 433 748 433 749 432 751 432 753 430 754 430 757 427 757 426 759 424 759 422 760 421 760 417 761 416 761 411 760 410 760 405 759 404 759 403 758 402 758 401 754 397 753 397 752 396 751 396 750 395 749 395 748 394 Z" />
<path d="M 196 297 195 298 191 298 190 299 188 299 187 300 185 300 184 301 182 301 181 302 180 302 179 303 178 303 176 305 175 305 174 306 173 306 171 308 170 308 156 322 156 323 153 326 153 327 152 328 152 329 150 331 150 332 149 333 149 334 148 335 148 336 147 337 147 339 146 340 146 341 145 342 145 344 144 345 144 348 143 349 143 352 142 353 142 357 141 358 141 382 142 383 142 387 143 388 143 391 144 392 144 394 145 395 145 396 146 397 146 399 148 401 148 402 149 403 149 404 150 405 150 406 153 409 153 410 161 418 162 418 165 421 166 421 168 423 169 423 171 425 172 425 173 426 174 426 176 428 177 428 178 429 179 429 180 430 181 430 182 431 183 431 184 432 185 432 186 433 187 433 188 434 189 434 190 435 191 435 192 436 193 436 194 437 196 437 197 438 198 438 199 439 200 439 201 440 202 440 203 441 204 441 205 442 206 442 207 443 208 443 209 444 210 444 211 445 213 445 214 446 215 446 216 447 217 447 218 448 219 448 220 449 221 449 222 450 223 450 224 451 225 451 226 452 227 452 228 453 229 453 230 454 232 454 233 455 234 455 235 456 236 456 237 457 238 457 239 458 240 458 241 459 242 459 243 460 244 460 245 461 246 461 247 462 248 462 249 463 250 463 251 464 252 464 253 465 254 465 255 466 256 466 257 467 258 467 259 468 260 468 261 469 262 469 263 470 264 470 266 472 267 472 268 473 269 473 270 474 271 474 272 475 273 475 274 476 275 476 276 477 277 477 279 479 280 479 281 480 282 480 283 481 284 481 285 482 286 482 288 484 289 484 290 485 291 485 292 486 293 486 294 487 295 487 296 488 297 488 299 490 300 490 301 491 303 491 304 492 305 492 306 493 307 493 308 494 309 494 310 495 312 495 313 496 315 496 316 497 318 497 319 498 321 498 322 499 325 499 326 500 329 500 330 501 333 501 334 502 340 502 341 503 348 503 349 504 373 504 374 503 380 503 381 502 386 502 387 501 390 501 391 500 394 500 395 499 398 499 399 498 402 498 403 497 405 497 406 496 408 496 409 495 411 495 412 494 414 494 415 493 416 493 417 492 419 492 420 491 421 491 422 490 424 490 425 489 426 489 427 488 428 488 429 487 431 487 432 486 433 486 434 485 435 485 436 484 437 484 438 483 439 483 440 482 441 482 442 481 443 481 444 480 446 480 447 479 448 479 449 478 450 478 451 477 452 477 453 476 454 476 455 475 456 475 457 474 458 474 459 473 460 473 461 472 463 472 464 471 465 471 466 470 467 470 468 469 470 469 471 468 472 468 473 467 475 467 476 466 477 466 478 465 480 465 481 464 482 464 483 463 485 463 486 462 488 462 489 461 490 461 491 460 493 460 494 459 496 459 497 458 499 458 500 457 502 457 503 456 505 456 506 455 509 455 510 454 513 454 514 453 516 453 517 452 520 452 521 451 525 451 526 450 530 450 531 449 534 449 535 448 540 448 541 447 545 447 546 446 551 446 552 445 557 445 558 444 564 444 565 443 571 443 572 442 578 442 579 441 587 441 588 440 595 440 596 439 597 439 597 437 596 436 596 435 594 433 594 432 593 431 593 430 592 429 592 428 590 426 590 425 589 424 589 423 588 422 588 421 587 420 587 419 586 418 586 416 585 415 585 414 584 413 584 412 583 411 583 409 582 408 582 407 581 406 581 404 580 403 580 401 579 400 579 398 578 397 578 395 577 394 577 391 576 390 576 388 575 387 575 384 574 383 574 379 573 378 573 374 572 373 572 366 571 365 571 357 570 356 570 351 569 350 548 350 547 349 508 349 507 348 482 348 481 347 466 347 465 346 451 346 450 345 441 345 440 344 431 344 430 343 422 343 421 342 415 342 414 341 409 341 408 340 403 340 402 339 397 339 396 338 392 338 391 337 387 337 386 336 383 336 382 335 378 335 377 334 374 334 373 333 370 333 369 332 366 332 365 331 362 331 361 330 358 330 357 329 354 329 353 328 350 328 349 327 346 327 345 326 343 326 342 325 339 325 338 324 335 324 334 323 331 323 330 322 327 322 326 321 324 321 323 320 320 320 319 319 316 319 315 318 312 318 311 317 309 317 308 316 305 316 304 315 301 315 300 314 297 314 296 313 292 313 291 312 288 312 287 311 284 311 283 310 280 310 279 309 276 309 275 308 271 308 270 307 267 307 266 306 262 306 261 305 258 305 257 304 253 304 252 303 248 303 247 302 243 302 242 301 238 301 237 300 232 300 231 299 226 299 225 298 219 298 218 297 Z" />
<path d="M 732 265 731 266 729 266 727 268 726 268 725 269 725 270 723 272 723 273 722 274 722 288 723 289 723 302 724 303 724 315 725 316 725 329 726 330 726 342 727 343 727 356 728 357 728 370 729 371 729 373 730 374 730 375 731 376 732 376 733 377 750 377 753 374 753 373 754 372 754 363 755 362 755 349 756 348 756 336 757 335 757 322 758 321 758 308 759 307 759 296 760 295 760 281 761 280 761 277 760 276 760 273 759 272 759 271 755 267 754 267 753 266 752 266 751 265 Z" />
<path d="M 726 205 725 206 719 206 718 207 713 207 712 208 709 208 708 209 705 209 704 210 701 210 700 211 698 211 697 212 694 212 693 213 692 213 691 214 689 214 688 215 686 215 685 216 684 216 683 217 682 217 681 218 680 218 679 219 677 219 676 220 675 220 674 221 673 221 671 223 670 223 669 224 668 224 667 225 666 225 664 227 663 227 662 228 661 228 659 230 658 230 656 232 655 232 652 235 651 235 647 239 646 239 628 257 628 258 624 262 624 263 621 266 621 267 619 269 619 270 617 272 617 273 616 274 616 275 614 277 614 278 613 279 613 280 612 281 612 282 611 283 611 284 610 285 610 286 609 287 609 288 608 289 608 290 607 291 607 292 606 293 606 295 605 296 605 297 604 298 604 300 603 301 603 303 602 304 602 306 601 307 601 310 600 311 600 314 599 315 599 318 598 319 598 324 597 325 597 331 596 332 596 348 595 349 596 350 596 366 597 367 597 374 598 375 598 379 599 380 599 384 600 385 600 387 601 388 601 391 602 392 602 394 603 395 603 397 604 398 604 400 605 401 605 403 606 404 606 405 607 406 607 408 608 409 608 410 609 411 609 412 610 413 610 414 611 415 611 416 612 417 612 418 613 419 613 420 614 421 614 422 616 424 616 425 617 426 617 427 619 429 619 430 621 432 621 433 623 435 623 436 627 440 627 441 633 447 633 448 642 457 643 457 649 463 650 463 654 467 655 467 657 469 658 469 660 471 661 471 663 473 664 473 666 475 667 475 668 476 669 476 671 478 672 478 673 479 674 479 675 480 676 480 677 481 678 481 679 482 680 482 681 483 682 483 683 484 685 484 686 485 687 485 688 486 690 486 691 487 692 487 693 488 695 488 696 489 698 489 699 490 702 490 703 491 706 491 707 492 710 492 711 493 715 493 716 494 721 494 722 495 730 495 731 496 753 496 754 495 762 495 763 494 768 494 769 493 773 493 774 492 777 492 778 491 781 491 782 490 784 490 785 489 787 489 788 488 790 488 791 487 793 487 794 486 795 486 796 485 798 485 799 484 800 484 801 483 802 483 803 482 805 482 806 481 807 481 809 479 810 479 811 478 812 478 813 477 814 477 815 476 816 476 818 474 819 474 821 472 822 472 824 470 825 470 828 467 829 467 832 464 833 464 839 458 840 458 847 451 847 450 854 443 854 442 858 438 858 437 860 435 860 434 862 432 862 431 864 429 864 428 866 426 866 425 867 424 867 423 868 422 868 421 869 420 869 419 870 418 870 417 871 416 871 415 872 414 872 413 873 412 873 411 874 410 874 408 875 407 875 406 876 405 876 404 877 403 877 401 878 400 878 398 879 397 879 395 880 394 880 391 881 390 881 387 882 386 882 383 883 382 883 378 884 377 884 372 885 371 885 362 886 361 886 338 885 337 885 329 884 328 884 323 883 322 883 318 882 317 882 313 881 312 881 310 880 309 880 306 879 305 879 303 878 302 878 300 877 299 877 297 876 296 876 295 875 294 875 292 874 291 874 290 873 289 873 288 872 287 872 286 871 285 871 284 870 283 870 282 869 281 869 280 868 279 868 278 867 277 867 276 865 274 865 273 864 272 864 271 862 269 862 268 860 266 860 265 857 262 857 261 854 258 854 257 847 250 847 249 844 246 843 246 834 237 833 237 829 233 828 233 825 230 824 230 822 228 821 228 820 227 819 227 817 225 816 225 815 224 814 224 812 222 811 222 810 221 809 221 808 220 807 220 806 219 805 219 804 218 803 218 802 217 801 217 800 216 798 216 797 215 796 215 795 214 793 214 792 213 790 213 789 212 787 212 786 211 784 211 783 210 780 210 779 209 776 209 775 208 772 208 771 207 766 207 765 206 759 206 758 205 Z M 726 231 727 230 756 230 757 231 763 231 764 232 768 232 769 233 772 233 773 234 775 234 776 235 779 235 780 236 781 236 782 237 784 237 785 238 787 238 788 239 789 239 790 240 791 240 792 241 793 241 794 242 795 242 796 243 797 243 798 244 799 244 800 245 801 245 802 246 803 246 805 248 806 248 807 249 808 249 811 252 812 252 814 254 815 254 820 259 821 259 832 270 832 271 837 276 837 277 840 280 840 281 842 283 842 284 844 286 844 287 845 288 845 289 846 290 846 291 848 293 848 294 849 295 849 296 850 297 850 299 851 300 851 301 852 302 852 303 853 304 853 306 854 307 854 308 855 309 855 311 856 312 856 314 857 315 857 318 858 319 858 322 859 323 859 328 860 329 860 335 861 336 861 364 860 365 860 371 859 372 859 376 858 377 858 380 857 381 857 384 856 385 856 387 855 388 855 390 854 391 854 393 853 394 853 395 852 396 852 398 851 399 851 400 850 401 850 402 849 403 849 404 848 405 848 406 847 407 847 408 846 409 846 410 845 411 845 412 843 414 843 415 842 416 842 417 840 419 840 420 837 423 837 424 833 428 833 429 822 440 821 440 817 444 816 444 813 447 812 447 809 450 808 450 807 451 806 451 804 453 803 453 802 454 801 454 800 455 799 455 797 457 796 457 795 458 794 458 793 459 792 459 791 460 789 460 788 461 787 461 786 462 784 462 783 463 782 463 781 464 779 464 778 465 776 465 775 466 773 466 772 467 769 467 768 468 765 468 764 469 759 469 758 470 750 470 749 471 734 471 733 470 726 470 725 469 720 469 719 468 716 468 715 467 712 467 711 466 708 466 707 465 705 465 704 464 702 464 701 463 699 463 698 462 697 462 696 461 694 461 693 460 692 460 691 459 690 459 689 458 688 458 687 457 686 457 685 456 684 456 682 454 681 454 680 453 679 453 677 451 676 451 674 449 673 449 671 447 670 447 666 443 665 443 659 437 658 437 649 428 649 427 644 422 644 421 641 418 641 417 640 416 640 415 638 413 638 412 636 410 636 409 635 408 635 407 634 406 634 405 633 404 633 403 632 402 632 401 631 400 631 399 630 398 630 396 629 395 629 394 628 393 628 391 627 390 627 388 626 387 626 385 625 384 625 381 624 380 624 377 623 376 623 373 622 372 622 368 621 367 621 359 620 358 620 341 621 340 621 332 622 331 622 326 623 325 623 322 624 321 624 318 625 317 625 314 626 313 626 311 627 310 627 309 628 308 628 306 629 305 629 303 630 302 630 301 631 300 631 299 632 298 632 297 633 296 633 295 634 294 634 293 636 291 636 290 637 289 637 288 639 286 639 285 641 283 641 282 643 280 643 279 648 274 648 273 660 261 661 261 666 256 667 256 670 253 671 253 673 251 674 251 676 249 677 249 679 247 680 247 681 246 682 246 684 244 685 244 686 243 687 243 688 242 689 242 690 241 691 241 692 240 694 240 695 239 696 239 697 238 699 238 700 237 701 237 702 236 704 236 705 235 707 235 708 234 711 234 712 233 715 233 716 232 720 232 721 231 Z" />
</g>
</svg>