<svg height="1024" width="1024" xmlns="http://www.w3.org/2000/svg">
<g fill="black" fill-rule="evenodd">
<path d="M 820 420 819 421 818 421 817 422 816 422 812 426 812 427 811 428 811 429 810 430 810 432 809 433 809 437 810 438 810 441 811 442 811 443 813 445 813 446 814 447 815 447 817 449 818 449 819 450 820 450 821 451 829 451 830 450 832 450 834 448 835 448 838 445 838 444 840 442 840 440 841 439 841 432 840 431 840 429 839 428 839 427 834 422 833 422 832 421 831 421 830 420 Z" />
<path d="M 408 326 407 327 405 327 404 328 402 328 400 330 399 330 392 337 392 338 391 339 391 340 390 341 390 343 389 344 389 355 390 356 390 358 391 359 391 360 392 361 392 362 399 369 400 369 401 370 402 370 403 371 404 371 405 372 408 372 409 373 416 373 417 372 420 372 421 371 422 371 423 370 424 370 425 369 426 369 432 363 432 362 433 361 433 360 434 359 434 358 435 357 435 355 436 354 436 346 435 345 435 342 434 341 434 340 433 339 433 338 432 337 432 336 426 330 425 330 424 329 423 329 422 328 421 328 420 327 417 327 416 326 Z" />
<path d="M 818 316 817 317 816 317 815 318 814 318 813 319 812 319 811 320 811 321 809 323 809 324 808 325 808 329 807 330 807 335 808 336 808 352 809 353 809 368 810 369 810 382 811 383 811 395 812 396 812 401 813 402 813 403 815 405 815 406 817 408 818 408 819 409 820 409 821 410 830 410 831 409 832 409 836 405 836 404 837 403 837 400 838 399 838 390 839 389 839 379 840 378 840 367 841 366 841 355 842 354 842 345 843 344 843 332 844 331 844 329 843 328 843 326 842 325 842 324 841 323 841 322 838 319 837 319 835 317 833 317 832 316 Z" />
<path d="M 819 236 818 237 816 237 815 238 814 238 813 239 812 239 809 242 808 242 808 243 805 246 805 247 803 249 803 250 802 251 802 252 801 253 801 254 800 255 800 256 798 258 798 259 797 260 797 261 796 262 796 263 794 265 794 266 793 267 793 268 792 269 792 270 791 271 791 272 789 274 789 275 788 276 788 277 787 278 787 279 785 281 785 282 784 283 784 284 783 285 783 286 781 288 781 289 780 290 780 291 779 292 779 293 778 294 778 295 776 297 776 298 775 299 775 300 774 301 774 302 772 304 772 305 771 306 771 307 770 308 770 309 769 310 769 311 767 313 767 314 766 315 766 316 765 317 765 318 763 320 763 321 762 322 762 323 761 324 761 325 760 326 760 327 758 329 758 330 757 331 757 332 756 333 756 334 755 335 755 336 753 338 753 339 752 340 752 341 751 342 751 343 749 345 749 346 748 347 748 348 747 349 747 350 745 352 745 353 744 354 744 355 743 356 743 357 741 359 741 360 740 361 740 362 739 363 739 364 738 365 738 366 736 368 736 369 735 370 735 371 734 372 734 373 733 374 733 375 731 377 731 378 730 379 730 380 729 381 729 382 728 383 728 384 726 386 726 387 725 388 725 389 724 390 724 391 723 392 723 393 721 395 721 396 720 397 720 398 719 399 719 400 717 402 717 403 716 404 716 405 715 406 715 407 713 409 713 410 712 411 712 412 711 413 711 414 710 415 710 416 708 418 708 419 707 420 707 421 706 422 706 423 704 425 704 426 703 427 703 428 702 429 702 430 701 431 701 432 699 434 699 435 698 436 698 437 697 438 697 439 695 441 695 442 694 443 694 444 693 445 693 446 692 447 692 450 691 451 691 463 692 464 692 466 693 467 693 469 694 470 694 471 696 473 696 474 703 481 704 481 706 483 707 483 708 484 710 484 711 485 713 485 714 486 933 486 934 485 937 485 938 484 940 484 941 483 942 483 944 481 945 481 948 478 949 478 950 477 950 476 953 473 953 472 954 471 954 470 955 469 955 468 956 467 956 465 957 464 957 460 958 459 958 455 957 454 957 449 956 448 956 446 955 445 955 444 954 443 954 442 953 441 953 440 952 439 952 438 951 437 951 436 949 434 949 433 948 432 948 431 947 430 947 429 946 428 946 427 944 425 944 424 943 423 943 422 942 421 942 420 940 418 940 417 939 416 939 415 938 414 938 413 937 412 937 411 935 409 935 408 934 407 934 406 933 405 933 404 932 403 932 402 930 400 930 399 929 398 929 397 928 396 928 395 926 393 926 392 925 391 925 390 924 389 924 388 923 387 923 386 921 384 921 383 920 382 920 381 919 380 919 379 918 378 918 377 916 375 916 374 915 373 915 372 914 371 914 370 912 368 912 367 911 366 911 365 910 364 910 363 909 362 909 361 907 359 907 358 906 357 906 356 905 355 905 354 904 353 904 352 902 350 902 349 901 348 901 347 900 346 900 345 898 343 898 342 897 341 897 340 896 339 896 338 895 337 895 336 893 334 893 333 892 332 892 331 891 330 891 329 890 328 890 327 888 325 888 324 887 323 887 322 886 321 886 320 885 319 885 318 883 316 883 315 882 314 882 313 881 312 881 311 880 310 880 309 878 307 878 306 877 305 877 304 876 303 876 302 875 301 875 300 873 298 873 297 872 296 872 295 871 294 871 293 869 291 869 290 868 289 868 288 867 287 867 286 866 285 866 284 864 282 864 281 863 280 863 279 862 278 862 277 861 276 861 275 859 273 859 272 858 271 858 270 857 269 857 268 855 266 855 265 854 264 854 263 853 262 853 261 852 260 852 259 850 257 850 256 849 255 849 254 848 253 848 252 847 251 847 250 845 248 845 247 838 240 837 240 836 239 835 239 834 238 833 238 832 237 829 237 828 236 Z M 823 263 825 263 827 265 827 266 828 267 828 268 829 269 829 270 831 272 831 273 832 274 832 275 834 277 834 278 835 279 835 280 836 281 836 282 838 284 838 285 839 286 839 287 840 288 840 289 841 290 841 291 843 293 843 294 844 295 844 296 845 297 845 298 847 300 847 301 848 302 848 303 849 304 849 305 851 307 851 308 852 309 852 310 853 311 853 312 855 314 855 315 856 316 856 317 857 318 857 319 858 320 858 321 860 323 860 324 861 325 861 326 862 327 862 328 864 330 864 331 865 332 865 333 866 334 866 335 867 336 867 337 869 339 869 340 870 341 870 342 871 343 871 344 873 346 873 347 874 348 874 349 875 350 875 351 877 353 877 354 878 355 878 356 879 357 879 358 881 360 881 361 882 362 882 363 883 364 883 365 885 367 885 368 886 369 886 370 887 371 887 372 889 374 889 375 890 376 890 377 891 378 891 379 892 380 892 381 894 383 894 384 895 385 895 386 896 387 896 388 898 390 898 391 899 392 899 393 900 394 900 395 902 397 902 398 903 399 903 400 904 401 904 402 905 403 905 404 907 406 907 407 908 408 908 409 909 410 909 411 911 413 911 414 912 415 912 416 913 417 913 418 915 420 915 421 916 422 916 423 917 424 917 425 918 426 918 427 920 429 920 430 921 431 921 432 922 433 922 434 924 436 924 437 925 438 925 439 926 440 926 441 927 442 927 443 929 445 929 446 930 447 930 448 931 449 931 450 933 452 933 453 934 454 934 455 935 456 934 457 934 459 931 462 930 462 929 463 927 463 926 464 723 464 722 463 719 463 718 462 717 462 716 461 716 460 714 458 714 455 715 454 715 453 716 452 716 451 717 450 717 449 718 448 718 447 720 445 720 444 721 443 721 442 722 441 722 440 724 438 724 437 725 436 725 435 726 434 726 433 728 431 728 430 729 429 729 428 730 427 730 426 732 424 732 423 733 422 733 421 734 420 734 419 735 418 735 417 737 415 737 414 738 413 738 412 739 411 739 410 741 408 741 407 742 406 742 405 743 404 743 403 744 402 744 401 746 399 746 398 747 397 747 396 748 395 748 394 750 392 750 391 751 390 751 389 752 388 752 387 753 386 753 385 755 383 755 382 756 381 756 380 757 379 757 378 759 376 759 375 760 374 760 373 761 372 761 371 763 369 763 368 764 367 764 366 765 365 765 364 766 363 766 362 768 360 768 359 769 358 769 357 771 355 771 354 772 353 772 352 773 351 773 350 774 349 774 348 776 346 776 345 777 344 777 343 778 342 778 341 780 339 780 338 781 337 781 336 782 335 782 334 784 332 784 331 785 330 785 329 786 328 786 327 787 326 787 325 789 323 789 322 790 321 790 320 791 319 791 318 793 316 793 315 794 314 794 313 795 312 795 311 796 310 796 309 798 307 798 306 799 305 799 304 800 303 800 302 802 300 802 299 803 298 803 297 804 296 804 295 805 294 805 293 807 291 807 290 808 289 808 288 809 287 809 286 810 285 810 284 812 282 812 281 813 280 813 279 814 278 814 277 816 275 816 274 817 273 817 272 818 271 818 270 819 269 819 268 821 266 821 265 Z" />
<path d="M 395 87 394 88 383 88 382 89 375 89 374 90 369 90 368 91 364 91 363 92 359 92 358 93 354 93 353 94 350 94 349 95 346 95 345 96 342 96 341 97 339 97 338 98 336 98 335 99 332 99 331 100 330 100 329 101 327 101 326 102 324 102 323 103 321 103 320 104 319 104 318 105 316 105 315 106 314 106 313 107 311 107 310 108 309 108 308 109 307 109 306 110 304 110 303 111 302 111 301 112 300 112 299 113 298 113 297 114 296 114 295 115 294 115 293 116 292 116 291 117 290 117 289 118 288 118 286 120 285 120 284 121 283 121 281 123 280 123 279 124 278 124 276 126 275 126 273 128 272 128 271 129 270 129 268 131 267 131 264 134 263 134 261 136 260 136 257 139 256 139 252 143 251 143 247 147 246 147 236 157 235 157 234 158 234 159 232 161 231 161 231 162 219 174 219 175 215 179 215 180 211 184 211 185 208 188 208 189 205 192 205 193 203 195 203 196 201 198 201 199 199 201 199 202 197 204 197 205 195 207 195 208 194 209 194 210 192 212 192 213 191 214 191 215 190 216 190 217 189 218 189 219 187 221 187 222 186 223 186 224 185 225 185 226 184 227 184 228 183 229 183 230 182 231 182 233 181 234 181 235 180 236 180 237 179 238 179 239 178 240 178 241 177 242 177 244 176 245 176 246 175 247 175 249 174 250 174 251 173 252 173 254 172 255 172 257 171 258 171 260 170 261 170 263 169 264 169 266 168 267 168 270 167 271 167 273 166 274 166 277 165 278 165 281 164 282 164 285 163 286 163 289 162 290 162 294 161 295 161 300 160 301 160 306 159 307 159 313 158 314 158 324 157 325 157 369 158 370 158 379 159 380 159 386 160 387 160 392 161 393 161 397 162 398 162 402 163 403 163 406 164 407 164 410 165 411 165 414 166 415 166 417 167 418 167 421 168 422 168 424 169 425 169 427 170 428 170 430 171 431 171 432 172 433 172 435 173 436 173 438 174 439 174 440 175 441 175 443 176 444 176 445 177 446 177 447 178 448 178 450 179 451 179 452 180 453 180 454 181 455 181 456 182 457 182 458 183 459 183 460 184 461 184 462 185 463 185 464 186 465 186 466 187 467 187 468 189 470 188 471 184 471 183 472 180 472 179 473 178 473 177 474 176 474 175 475 174 475 167 482 167 483 166 484 166 485 165 486 165 488 164 489 164 493 163 494 163 526 162 527 162 556 161 557 161 585 160 586 160 612 159 613 159 642 158 643 158 672 157 673 157 699 156 700 156 727 155 728 155 755 154 756 154 782 153 783 153 809 152 810 152 818 151 819 133 819 132 820 131 820 130 821 129 821 127 823 127 824 120 831 120 832 112 840 112 841 106 847 106 848 105 849 105 851 104 852 104 913 105 914 105 915 106 916 106 917 110 921 111 921 112 922 114 922 115 923 140 923 141 922 142 922 143 923 144 922 146 922 147 923 148 922 244 922 245 923 246 922 281 922 282 923 283 923 284 922 286 922 287 923 288 922 297 922 298 923 299 922 324 922 325 923 326 922 357 922 358 923 359 922 378 922 379 923 380 922 388 922 389 923 390 922 418 922 419 923 420 922 436 922 437 923 438 922 454 922 455 923 456 922 460 922 461 923 462 922 474 922 475 923 476 922 529 922 530 923 531 923 532 922 538 922 539 923 540 922 545 922 546 923 547 922 549 922 550 923 551 922 553 922 554 923 555 922 570 922 571 923 572 922 578 922 579 923 580 923 581 922 582 922 583 923 584 922 586 922 587 923 588 922 589 922 590 923 591 922 594 922 595 923 596 922 618 922 619 923 620 922 621 923 622 922 628 922 629 923 630 922 636 922 637 923 638 922 642 922 643 923 644 922 650 922 651 923 652 922 673 922 674 923 677 923 678 922 681 922 682 923 685 923 686 922 688 922 689 923 690 922 691 923 710 923 711 922 713 922 714 921 715 921 719 917 719 916 720 915 720 914 721 913 721 852 720 851 720 850 718 848 718 847 715 844 715 843 707 835 707 834 700 827 700 826 695 821 694 821 693 820 692 820 691 819 675 819 674 818 674 813 673 812 673 785 672 784 672 757 671 756 671 728 670 727 670 703 669 702 669 684 670 683 707 683 708 684 707 685 708 686 708 694 707 695 708 696 708 697 707 698 708 699 708 706 707 707 708 708 708 710 709 711 709 712 712 715 714 715 715 716 741 716 742 715 743 715 745 713 746 713 746 712 747 711 747 710 748 709 748 634 747 633 747 631 744 628 743 628 742 627 714 627 713 628 712 628 708 632 708 640 707 641 707 642 708 643 708 659 707 660 669 660 668 659 668 641 667 640 667 615 666 614 666 588 665 587 665 557 664 556 664 531 663 530 663 502 662 501 662 489 661 488 661 486 660 485 660 484 659 483 659 482 652 475 651 475 650 474 649 474 648 473 647 473 646 472 643 472 642 471 639 471 638 470 638 469 639 468 639 467 640 466 640 465 641 464 641 463 642 462 642 461 643 460 643 459 644 458 644 457 645 456 645 455 646 454 646 452 647 451 647 450 648 449 648 448 649 447 649 446 650 445 650 443 651 442 651 441 652 440 652 438 653 437 653 435 654 434 654 432 655 431 655 429 656 428 656 426 657 425 657 423 658 422 658 420 659 419 659 417 660 416 660 413 661 412 661 409 662 408 662 405 663 404 663 401 664 400 664 396 665 395 665 390 666 389 666 384 667 383 667 376 668 375 668 365 669 364 669 330 668 329 668 318 667 317 667 310 666 309 666 303 665 302 665 298 664 297 664 292 663 291 663 288 662 287 662 284 661 283 661 280 660 279 660 276 659 275 659 272 658 271 658 269 657 268 657 266 656 265 656 263 655 262 655 260 654 259 654 257 653 256 653 254 652 253 652 251 651 250 651 249 650 248 650 246 649 245 649 244 648 243 648 241 647 240 647 239 646 238 646 237 645 236 645 234 644 233 644 232 643 231 643 230 642 229 642 228 641 227 641 226 640 225 640 224 639 223 639 222 638 221 638 220 637 219 637 218 635 216 635 215 634 214 634 213 633 212 633 211 631 209 631 208 629 206 629 205 628 204 628 203 626 201 626 200 623 197 623 196 621 194 621 193 618 190 618 189 615 186 615 185 611 181 611 180 606 175 606 174 583 151 582 151 576 145 575 145 571 141 570 141 567 138 566 138 563 135 562 135 560 133 559 133 557 131 556 131 554 129 553 129 551 127 550 127 548 125 547 125 546 124 545 124 544 123 543 123 541 121 540 121 539 120 538 120 537 119 536 119 534 117 533 117 532 116 531 116 530 115 529 115 528 114 527 114 526 113 525 113 524 112 523 112 522 111 520 111 519 110 518 110 517 109 516 109 515 108 514 108 513 107 511 107 510 106 509 106 508 105 506 105 505 104 503 104 502 103 501 103 500 102 498 102 497 101 495 101 494 100 492 100 491 99 489 99 488 98 485 98 484 97 482 97 481 96 478 96 477 95 474 95 473 94 470 94 469 93 466 93 465 92 461 92 460 91 455 91 454 90 448 90 447 89 440 89 439 88 429 88 428 87 Z M 142 843 685 843 686 844 685 845 691 851 692 851 695 854 695 855 696 856 695 857 129 857 128 856 129 855 129 854 135 848 136 848 139 845 140 845 Z M 209 504 210 503 211 504 211 505 215 509 215 510 220 515 220 516 231 527 231 528 232 528 246 542 247 542 251 546 252 546 256 550 257 550 260 553 261 553 264 556 265 556 267 558 268 558 271 561 272 561 273 562 274 562 276 564 277 564 279 566 280 566 281 567 282 567 284 569 285 569 286 570 287 570 289 572 290 572 291 573 292 573 293 574 294 574 295 575 296 575 297 576 298 576 299 577 300 577 301 578 302 578 303 579 304 579 305 580 306 580 307 581 308 581 309 582 311 582 312 583 313 583 314 584 315 584 316 585 318 585 319 586 320 586 321 587 323 587 324 588 326 588 327 589 328 589 329 590 331 590 332 591 334 591 335 592 337 592 338 593 341 593 342 594 344 594 345 595 348 595 349 596 352 596 353 597 356 597 357 598 361 598 362 599 366 599 367 600 371 600 372 601 378 601 379 602 386 602 387 603 396 603 397 604 432 604 433 603 443 603 444 602 451 602 452 601 457 601 458 600 462 600 463 599 467 599 468 598 471 598 472 597 475 597 476 596 479 596 480 595 482 595 483 594 486 594 487 593 489 593 490 592 492 592 493 591 495 591 496 590 498 590 499 589 500 589 501 588 503 588 504 587 505 587 506 586 508 586 509 585 510 585 511 584 513 584 514 583 515 583 516 582 517 582 518 581 519 581 520 580 522 580 523 579 524 579 525 578 526 578 527 577 528 577 529 576 530 576 531 575 532 575 534 573 535 573 536 572 537 572 538 571 539 571 540 570 541 570 543 568 544 568 546 566 547 566 548 565 549 565 551 563 552 563 554 561 555 561 557 559 558 559 560 557 561 557 564 554 565 554 568 551 569 551 572 548 573 548 579 542 580 542 586 536 587 536 587 535 588 534 589 534 600 523 600 522 608 514 608 513 612 509 612 508 616 504 617 505 617 509 616 510 616 534 615 535 615 560 614 561 614 584 613 585 613 610 612 611 612 634 611 635 611 656 610 657 610 683 609 684 609 711 608 712 608 735 607 736 607 762 606 763 606 786 605 787 605 818 604 819 223 819 222 818 222 814 221 813 221 780 220 779 220 755 219 754 219 729 218 728 218 707 217 706 217 683 216 682 216 658 215 657 215 633 214 632 214 611 213 610 213 586 212 585 212 563 211 562 211 537 210 536 210 513 209 512 Z M 403 414 404 413 420 413 422 415 422 418 423 419 423 422 424 423 424 426 425 427 425 430 426 431 426 434 427 435 427 437 428 438 428 441 429 442 429 445 430 446 430 449 431 450 431 453 432 454 432 457 433 458 433 461 434 462 434 464 435 465 435 468 436 469 436 472 437 473 437 476 438 477 438 480 439 481 439 484 440 485 440 487 441 488 441 491 442 492 442 495 443 496 443 499 444 500 444 503 445 504 445 506 446 507 446 510 447 511 447 514 448 515 448 518 449 519 449 522 450 523 450 526 451 527 451 530 452 531 452 533 453 534 453 537 454 538 454 541 455 542 455 545 456 546 456 549 457 550 457 552 456 553 451 553 450 554 445 554 444 555 437 555 436 556 424 556 423 557 404 557 403 556 390 556 389 555 382 555 381 554 375 554 374 553 370 553 369 552 368 552 367 551 367 550 368 549 368 546 369 545 369 543 370 542 370 539 371 538 371 535 372 534 372 532 373 531 373 528 374 527 374 524 375 523 375 521 376 520 376 517 377 516 377 513 378 512 378 509 379 508 379 505 380 504 380 501 381 500 381 497 382 496 382 493 383 492 383 490 384 489 384 486 385 485 385 482 386 481 386 478 387 477 387 474 388 473 388 470 389 469 389 466 390 465 390 462 391 461 391 459 392 458 392 455 393 454 393 451 394 450 394 447 395 446 395 443 396 442 396 439 397 438 397 436 398 435 398 432 399 431 399 428 400 427 400 424 401 423 401 421 402 420 402 417 403 416 Z M 449 403 450 402 451 402 456 407 456 408 479 431 479 432 498 451 498 452 516 470 516 471 533 488 533 489 549 505 543 511 542 511 538 515 537 515 534 518 533 518 530 521 529 521 527 523 526 523 524 525 523 525 522 526 521 526 519 528 518 528 517 529 516 529 514 531 513 531 512 532 511 532 510 533 509 533 508 534 507 534 506 535 505 535 504 536 503 536 502 537 501 537 500 538 499 538 498 539 496 539 495 540 494 540 493 541 492 541 491 542 489 542 488 543 487 543 486 544 484 544 483 545 481 545 480 546 478 546 477 547 476 547 475 548 474 547 474 545 473 544 473 541 472 540 472 538 471 537 471 534 470 533 470 530 469 529 469 526 468 525 468 522 467 521 467 519 466 518 466 515 465 514 465 511 464 510 464 507 463 506 463 503 462 502 462 500 461 499 461 496 460 495 460 492 459 491 459 488 458 487 458 484 457 483 457 480 456 479 456 477 455 476 455 473 454 472 454 469 453 468 453 465 452 464 452 461 451 460 451 457 450 456 450 453 449 452 449 450 448 449 448 446 447 445 447 442 446 441 446 438 445 437 445 434 444 433 444 430 443 429 443 427 442 426 442 423 441 422 441 419 440 418 440 415 439 414 439 411 438 410 438 409 439 408 440 408 441 407 442 407 443 406 444 406 445 405 446 405 448 403 Z M 374 401 376 403 377 403 379 405 380 405 381 406 382 406 383 407 384 407 386 409 386 411 385 412 385 415 384 416 384 419 383 420 383 423 382 424 382 427 381 428 381 430 380 431 380 434 379 435 379 438 378 439 378 442 377 443 377 446 376 447 376 450 375 451 375 454 374 455 374 457 373 458 373 461 372 462 372 465 371 466 371 469 370 470 370 473 369 474 369 477 368 478 368 481 367 482 367 485 366 486 366 488 365 489 365 492 364 493 364 496 363 497 363 500 362 501 362 504 361 505 361 508 360 509 360 511 359 512 359 515 358 516 358 519 357 520 357 523 356 524 356 527 355 528 355 531 354 532 354 535 353 536 353 538 352 539 352 542 351 543 351 546 350 547 348 547 347 546 345 546 344 545 342 545 341 544 340 544 339 543 337 543 336 542 335 542 334 541 332 541 331 540 330 540 329 539 328 539 327 538 326 538 325 537 324 537 323 536 322 536 321 535 320 535 319 534 318 534 317 533 316 533 315 532 314 532 313 531 312 531 310 529 309 529 308 528 307 528 306 527 305 527 303 525 302 525 300 523 299 523 297 521 296 521 294 519 293 519 290 516 289 516 286 513 285 513 281 509 280 509 277 506 277 505 281 501 281 500 296 485 296 484 309 471 309 470 326 453 326 452 338 440 338 439 356 421 356 420 370 406 370 405 Z M 471 378 473 378 474 379 476 379 477 380 478 380 479 381 481 381 482 382 484 382 485 383 487 383 488 384 489 384 490 385 492 385 493 386 495 386 496 387 498 387 499 388 501 388 502 389 504 389 505 390 506 390 507 391 509 391 510 392 512 392 513 393 514 393 515 394 517 394 518 395 520 395 521 396 523 396 524 397 526 397 527 398 529 398 530 399 531 399 532 400 534 400 535 401 537 401 538 402 540 402 541 403 542 403 543 404 545 404 546 405 548 405 549 406 551 406 552 407 554 407 555 408 557 408 558 409 559 409 560 410 562 410 563 411 565 411 566 412 568 412 569 413 571 413 572 414 574 414 575 415 576 415 577 416 579 416 580 417 582 417 583 418 585 418 586 419 588 419 589 420 591 420 592 421 593 421 594 422 596 422 597 423 599 423 600 424 602 424 603 425 605 425 606 426 606 427 605 428 605 429 604 430 604 431 603 432 603 434 602 435 602 436 601 437 601 438 600 439 600 440 599 441 599 442 598 443 598 444 597 445 597 446 595 448 595 449 594 450 594 451 593 452 593 453 591 455 591 456 589 458 589 459 588 460 588 461 586 463 586 464 583 467 583 468 581 470 581 471 578 474 578 475 574 479 574 480 567 487 567 488 562 493 554 485 554 484 536 466 536 465 517 446 517 445 501 429 501 428 484 411 484 410 469 395 469 394 464 389 464 388 467 385 467 384 468 383 468 382 469 381 469 380 Z M 351 379 352 378 353 378 355 380 355 381 356 382 356 383 358 385 358 386 360 388 360 390 345 405 345 406 331 420 331 421 313 439 313 440 300 453 300 454 285 469 285 470 270 485 270 486 264 492 263 492 256 485 256 484 250 478 250 477 247 474 247 473 244 470 244 469 241 466 241 465 239 463 239 462 237 460 237 459 235 457 235 456 234 455 234 454 232 452 232 451 231 450 231 449 229 447 229 446 228 445 228 444 227 443 227 442 226 441 226 440 225 439 225 438 224 437 224 436 223 435 223 434 222 433 222 432 221 431 221 430 220 429 220 427 219 426 220 425 222 425 223 424 225 424 226 423 227 423 228 422 230 422 231 421 233 421 234 420 236 420 237 419 239 419 240 418 241 418 242 417 244 417 245 416 247 416 248 415 250 415 251 414 253 414 254 413 256 413 257 412 258 412 259 411 261 411 262 410 264 410 265 409 267 409 268 408 269 408 270 407 272 407 273 406 275 406 276 405 278 405 279 404 281 404 282 403 284 403 285 402 287 402 288 401 289 401 290 400 292 400 293 399 295 399 296 398 298 398 299 397 300 397 301 396 303 396 304 395 306 395 307 394 309 394 310 393 312 393 313 392 314 392 315 391 317 391 318 390 320 390 321 389 323 389 324 388 326 388 327 387 329 387 330 386 331 386 332 385 334 385 335 384 337 384 338 383 340 383 341 382 343 382 344 381 346 381 347 380 348 380 349 379 Z M 615 328 616 327 620 327 621 328 621 336 622 337 622 358 621 359 621 368 620 369 620 376 619 377 619 382 618 383 618 388 617 389 617 393 616 394 616 397 615 398 615 401 614 402 614 405 613 406 613 408 612 409 611 408 609 408 608 407 606 407 605 406 603 406 602 405 600 405 599 404 597 404 596 403 595 403 594 402 592 402 591 401 589 401 588 400 586 400 585 399 583 399 582 398 581 398 580 397 578 397 577 396 575 396 574 395 572 395 571 394 569 394 568 393 566 393 565 392 563 392 562 391 561 391 560 390 558 390 557 389 555 389 554 388 552 388 551 387 549 387 548 386 546 386 545 385 544 385 543 384 541 384 540 383 538 383 537 382 535 382 534 381 532 381 531 380 529 380 528 379 526 379 525 378 524 378 523 377 521 377 520 376 518 376 517 375 515 375 514 374 512 374 511 373 509 373 508 372 506 372 505 371 504 371 503 370 501 370 500 369 498 369 497 368 495 368 494 367 492 367 491 366 489 366 488 365 486 365 485 364 484 364 483 363 481 363 480 362 478 362 477 361 476 361 475 360 476 359 476 349 478 347 484 347 485 346 491 346 492 345 498 345 499 344 505 344 506 343 512 343 513 342 519 342 520 341 525 341 526 340 533 340 534 339 540 339 541 338 546 338 547 337 553 337 554 336 560 336 561 335 567 335 568 334 574 334 575 333 580 333 581 332 587 332 588 331 594 331 595 330 601 330 602 329 608 329 609 328 Z M 204 328 205 327 209 327 210 328 216 328 217 329 223 329 224 330 230 330 231 331 237 331 238 332 244 332 245 333 251 333 252 334 257 334 258 335 263 335 264 336 271 336 272 337 277 337 278 338 284 338 285 339 291 339 292 340 297 340 298 341 304 341 305 342 310 342 311 343 317 343 318 344 324 344 325 345 330 345 331 346 337 346 338 347 343 347 344 348 348 348 349 349 348 350 348 355 349 356 349 360 348 361 347 361 346 362 344 362 343 363 342 363 341 364 339 364 338 365 336 365 335 366 333 366 332 367 330 367 329 368 328 368 327 369 325 369 324 370 322 370 321 371 319 371 318 372 316 372 315 373 313 373 312 374 311 374 310 375 308 375 307 376 305 376 304 377 302 377 301 378 299 378 298 379 297 379 296 380 294 380 293 381 291 381 290 382 288 382 287 383 285 383 284 384 283 384 282 385 280 385 279 386 277 386 276 387 274 387 273 388 271 388 270 389 269 389 268 390 266 390 265 391 263 391 262 392 260 392 259 393 257 393 256 394 254 394 253 395 251 395 250 396 249 396 248 397 246 397 245 398 243 398 242 399 240 399 239 400 237 400 236 401 235 401 234 402 232 402 231 403 229 403 228 404 226 404 225 405 223 405 222 406 220 406 219 407 218 407 217 408 215 408 214 409 213 409 212 408 212 405 211 404 211 401 210 400 210 397 209 396 209 392 208 391 208 387 207 386 207 382 206 381 206 375 205 374 205 366 204 365 Z M 409 317 410 316 413 316 414 317 420 317 421 318 423 318 424 319 426 319 427 320 428 320 430 322 431 322 433 324 434 324 437 327 437 328 440 331 440 332 442 334 442 335 443 336 443 338 444 339 444 341 445 342 445 346 446 347 446 352 445 353 445 358 444 359 444 361 443 362 443 363 442 364 442 365 440 367 440 368 438 370 438 371 435 374 434 374 431 377 430 377 428 379 427 379 426 380 424 380 423 381 421 381 420 382 405 382 404 381 402 381 401 380 399 380 398 379 397 379 395 377 394 377 392 375 391 375 386 370 386 369 384 367 384 366 383 365 383 364 382 363 382 362 381 361 381 359 380 358 380 354 379 353 379 347 380 346 380 341 381 340 381 338 382 337 382 336 383 335 383 334 384 333 384 332 387 329 387 328 391 324 392 324 395 321 396 321 397 320 398 320 399 319 401 319 402 318 404 318 405 317 Z M 588 231 590 233 590 234 592 236 592 237 594 239 594 240 595 241 595 242 596 243 596 244 597 245 597 246 598 247 598 248 599 249 599 250 600 251 600 252 601 253 601 254 602 255 602 256 603 257 603 258 604 259 604 260 605 261 605 263 606 264 606 265 607 266 607 267 608 268 608 270 609 271 609 273 610 274 610 276 611 277 611 279 612 280 612 282 613 283 613 285 614 286 614 288 615 289 615 293 616 294 616 297 617 298 617 302 618 303 618 307 619 308 619 309 618 310 613 310 612 311 606 311 605 312 599 312 598 313 592 313 591 314 585 314 584 315 578 315 577 316 571 316 570 317 564 317 563 318 558 318 557 319 551 319 550 320 544 320 543 321 537 321 536 322 531 322 530 323 524 323 523 324 517 324 516 325 510 325 509 326 503 326 502 327 497 327 496 328 490 328 489 329 483 329 482 330 476 330 475 331 474 331 473 330 473 328 472 327 472 326 471 325 471 323 470 322 470 321 469 320 473 316 474 316 477 313 478 313 480 311 481 311 484 308 485 308 488 305 489 305 492 302 493 302 495 300 496 300 499 297 500 297 503 294 504 294 507 291 508 291 511 288 512 288 515 285 516 285 519 282 520 282 522 280 523 280 526 277 527 277 530 274 531 274 534 271 535 271 538 268 539 268 541 266 542 266 545 263 546 263 549 260 550 260 553 257 554 257 557 254 558 254 560 252 561 252 564 249 565 249 568 246 569 246 572 243 573 243 576 240 577 240 580 237 581 237 584 234 585 234 Z M 237 231 239 233 240 233 243 236 244 236 247 239 248 239 250 241 251 241 254 244 255 244 258 247 259 247 262 250 263 250 266 253 267 253 269 255 270 255 273 258 274 258 277 261 278 261 281 264 282 264 285 267 286 267 289 270 290 270 292 272 293 272 297 276 298 276 300 278 301 278 304 281 305 281 308 284 309 284 312 287 313 287 316 290 317 290 320 293 321 293 324 296 325 296 328 299 329 299 332 302 333 302 336 305 337 305 340 308 341 308 344 311 345 311 347 313 348 313 351 316 352 316 356 320 355 321 355 322 354 323 354 324 353 325 353 327 352 328 352 329 350 331 349 330 343 330 342 329 336 329 335 328 330 328 329 327 323 327 322 326 316 326 315 325 310 325 309 324 304 324 303 323 296 323 295 322 290 322 289 321 283 321 282 320 276 320 275 319 270 319 269 318 263 318 262 317 256 317 255 316 250 316 249 315 243 315 242 314 236 314 235 313 229 313 228 312 222 312 221 311 215 311 214 310 208 310 207 309 207 307 208 306 208 301 209 300 209 296 210 295 210 292 211 291 211 288 212 287 212 285 213 284 213 281 214 280 214 278 215 277 215 275 216 274 216 272 217 271 217 270 218 269 218 267 219 266 219 264 220 263 220 262 221 261 221 260 222 259 222 257 223 256 223 255 224 254 224 253 225 252 225 251 226 250 226 249 227 248 227 247 228 246 228 245 229 244 229 243 230 242 230 241 231 240 231 239 233 237 233 236 234 235 234 234 Z M 516 164 517 163 518 163 519 164 520 164 521 165 522 165 524 167 525 167 527 169 528 169 530 171 531 171 533 173 534 173 537 176 538 176 542 180 543 180 547 184 548 184 556 192 557 192 563 198 563 199 572 208 572 209 577 214 577 215 578 216 576 218 575 218 572 221 571 221 568 224 567 224 564 227 563 227 560 230 559 230 556 233 555 233 552 236 551 236 548 239 547 239 544 242 543 242 540 245 539 245 536 248 535 248 532 251 531 251 529 253 528 253 525 256 524 256 521 259 520 259 517 262 516 262 513 265 512 265 510 267 509 267 506 270 505 270 502 273 501 273 498 276 497 276 495 278 494 278 491 281 490 281 487 284 486 284 483 287 482 287 479 290 478 290 476 292 475 292 472 295 471 295 468 298 467 298 464 301 463 301 460 304 459 304 458 305 453 300 452 300 450 298 449 298 448 297 448 296 449 295 449 294 451 292 451 291 452 290 452 289 453 288 453 287 454 286 454 285 455 284 455 283 456 282 456 281 457 280 457 279 458 278 458 277 459 276 459 275 460 274 460 273 461 272 461 271 462 270 462 269 463 268 463 267 464 266 464 265 466 263 466 262 467 261 467 260 468 259 468 258 469 257 469 256 470 255 470 254 471 253 471 252 472 251 472 250 473 249 473 248 474 247 474 246 475 245 475 244 476 243 476 242 477 241 477 240 478 239 478 238 479 237 479 236 480 235 480 234 481 233 481 232 483 230 483 229 484 228 484 227 485 226 485 225 486 224 486 223 487 222 487 221 488 220 488 219 489 218 489 217 490 216 490 215 491 214 491 213 492 212 492 211 493 210 493 209 494 208 494 207 495 206 495 205 496 204 496 203 497 202 497 201 498 200 498 199 500 197 500 196 501 195 501 194 502 193 502 192 503 191 503 190 504 189 504 188 505 187 505 186 506 185 506 184 507 183 507 182 508 181 508 180 509 179 509 178 510 177 510 176 511 175 511 174 512 173 512 172 513 171 513 170 514 169 514 168 516 166 Z M 305 164 306 163 307 163 309 165 309 166 310 167 310 168 311 169 311 170 312 171 312 172 313 173 313 174 314 175 314 176 315 177 315 178 316 179 316 180 318 182 318 183 319 184 319 185 320 186 320 187 321 188 321 189 322 190 322 191 323 192 323 193 324 194 324 195 325 196 325 197 326 198 326 199 327 200 327 201 328 202 328 203 329 204 329 205 330 206 330 207 331 208 331 209 332 210 332 211 333 212 333 213 334 214 334 215 335 216 335 217 337 219 337 220 338 221 338 222 339 223 339 224 340 225 340 226 341 227 341 228 342 229 342 230 343 231 343 232 344 233 344 234 345 235 345 236 346 237 346 238 347 239 347 240 348 241 348 242 349 243 349 244 350 245 350 246 351 247 351 248 352 249 352 250 353 251 353 252 354 253 354 254 355 255 355 256 356 257 356 258 357 259 357 260 358 261 358 262 359 263 359 264 360 265 360 266 361 267 361 268 362 269 362 270 363 271 363 272 364 273 364 274 365 275 365 276 366 277 366 278 367 279 367 280 368 281 368 282 369 283 369 284 370 285 370 286 371 287 371 288 372 289 372 290 373 291 373 292 375 294 375 295 376 296 376 297 374 299 373 299 368 304 367 304 366 305 362 301 361 301 358 298 357 298 355 296 354 296 351 293 350 293 347 290 346 290 343 287 342 287 339 284 338 284 335 281 334 281 331 278 330 278 328 276 327 276 324 273 323 273 320 270 319 270 316 267 315 267 312 264 311 264 308 261 307 261 304 258 303 258 300 255 299 255 296 252 295 252 292 249 291 249 289 247 288 247 285 244 284 244 281 241 280 241 277 238 276 238 273 235 272 235 269 232 268 232 265 229 264 229 262 227 261 227 258 224 257 224 254 221 253 221 250 218 249 218 247 216 249 214 249 213 253 209 253 208 260 201 260 200 271 189 272 189 279 182 280 182 284 178 285 178 289 174 290 174 292 172 293 172 295 170 296 170 298 168 299 168 301 166 302 166 304 164 Z M 421 136 422 135 425 135 426 136 435 136 436 137 442 137 443 138 448 138 449 139 453 139 454 140 458 140 459 141 463 141 464 142 466 142 467 143 470 143 471 144 474 144 475 145 477 145 478 146 480 146 481 147 483 147 484 148 486 148 487 149 488 149 489 150 491 150 492 151 493 151 494 152 496 152 497 153 498 153 499 154 500 154 501 155 501 156 500 157 500 158 499 159 499 160 498 161 498 162 497 163 497 164 496 165 496 166 495 167 495 168 493 170 493 171 492 172 492 173 491 174 491 175 490 176 490 177 489 178 489 179 488 180 488 181 487 182 487 183 486 184 486 185 485 186 485 187 484 188 484 189 483 190 483 191 482 192 482 193 481 194 481 195 480 196 480 197 479 198 479 199 478 200 478 201 476 203 476 205 474 207 474 208 473 209 473 210 472 211 472 212 471 213 471 214 470 215 470 216 469 217 469 218 468 219 468 220 467 221 467 222 466 223 466 224 465 225 465 226 464 227 464 228 463 229 463 230 462 231 462 232 461 233 461 234 459 236 459 237 458 238 458 239 457 240 457 241 456 242 456 243 455 244 455 245 454 246 454 247 453 248 453 249 452 250 452 251 451 252 451 253 450 254 450 255 449 256 449 257 448 258 448 259 447 260 447 261 446 262 446 263 445 264 445 265 444 266 444 267 443 268 443 269 442 270 442 271 440 273 440 274 439 275 439 276 438 277 438 278 437 279 437 280 436 281 436 282 435 283 435 284 434 285 434 286 433 287 433 288 431 290 430 289 428 289 427 288 422 288 421 287 Z M 394 136 395 135 403 135 404 136 404 287 403 288 398 288 397 289 394 289 393 290 391 288 391 287 390 286 390 285 389 284 389 283 388 282 388 281 387 280 387 279 386 278 386 277 385 276 385 275 384 274 384 273 383 272 383 271 382 270 382 269 381 268 381 267 380 266 380 265 379 264 379 263 378 262 378 261 376 259 376 257 375 256 375 255 374 254 374 253 372 251 372 250 371 249 371 248 370 247 370 246 369 245 369 244 368 243 368 242 367 241 367 240 366 239 366 238 365 237 365 236 364 235 364 234 363 233 363 232 362 231 362 230 361 229 361 228 360 227 360 226 359 225 359 224 358 223 358 222 357 221 357 220 356 219 356 218 355 217 355 216 354 215 354 214 353 213 353 212 352 211 352 210 351 209 351 208 350 207 350 206 349 205 349 204 348 203 348 202 347 201 347 200 346 199 346 198 345 197 345 196 344 195 344 194 343 193 343 192 341 190 341 189 340 188 340 187 339 186 339 185 338 184 338 183 337 182 337 181 336 180 336 179 335 178 335 177 334 176 334 175 333 174 333 173 332 172 332 171 331 170 331 169 330 168 330 167 329 166 329 165 328 164 328 163 327 162 327 161 326 160 326 159 324 157 324 156 323 155 325 153 327 153 328 152 329 152 330 151 331 151 332 150 334 150 335 149 337 149 338 148 339 148 340 147 342 147 343 146 345 146 346 145 348 145 349 144 351 144 352 143 355 143 356 142 359 142 360 141 363 141 364 140 368 140 369 139 372 139 373 138 378 138 379 137 385 137 386 136 Z" />
</g>
</svg>